<ttFont>
    <TTGlyph name=".notdef" xMin="30" yMin="0" xMax="490" yMax="679">
      <contour>
        <pt x="490" y="0" on="1"/>
        <pt x="30" y="0" on="1"/>
        <pt x="30" y="679" on="1"/>
        <pt x="490" y="679" on="1"/>
      </contour>
      <contour>
        <pt x="441" y="46" on="1"/>
        <pt x="441" y="633" on="1"/>
        <pt x="79" y="633" on="1"/>
        <pt x="79" y="46" on="1"/>
      </contour>
    </TTGlyph>
    <TTGlyph name="A" xMin="-18" yMin="0" xMax="641" yMax="702">
      <contour>
        <pt x="636" y="0" on="1"/>
        <pt x="396" y="0" on="1"/>
        <pt x="396" y="40" on="1"/>
        <pt x="440" y="49" on="0"/>
        <pt x="479" y="65" on="0"/>
        <pt x="479" y="89" on="0"/>
        <pt x="478" y="94" on="1"/>
        <pt x="459" y="224" on="1"/>
        <pt x="200" y="224" on="1"/>
        <pt x="121" y="80" on="1"/>
        <pt x="114" y="66" on="0"/>
        <pt x="114" y="64" on="1"/>
        <pt x="114" y="59" on="0"/>
        <pt x="119" y="58" on="1"/>
        <pt x="183" y="39" on="1"/>
        <pt x="178" y="0" on="1"/>
        <pt x="-18" y="0" on="1"/>
        <pt x="-18" y="40" on="1"/>
        <pt x="22" y="50" on="0"/>
        <pt x="42" y="62" on="0"/>
        <pt x="53" y="83" on="1"/>
        <pt x="392" y="702" on="1"/>
        <pt x="475" y="702" on="1"/>
        <pt x="586" y="64" on="1"/>
        <pt x="589" y="49" on="0"/>
        <pt x="641" y="39" on="1"/>
      </contour>
      <contour>
        <pt x="451" y="277" on="1"/>
        <pt x="405" y="558" on="1"/>
        <pt x="404" y="570" on="0"/>
        <pt x="404" y="587" on="1"/>
        <pt x="394" y="587" on="1"/>
        <pt x="228" y="277" on="1"/>
      </contour>
    </TTGlyph>
    <TTGlyph name="AE" xMin="-14" yMin="0" xMax="963" yMax="693">
      <contour>
        <pt x="904" y="179" on="1"/>
        <pt x="895" y="99" on="0"/>
        <pt x="862" y="0" on="1"/>
        <pt x="375" y="0" on="1"/>
        <pt x="376" y="39" on="1"/>
        <pt x="430" y="48" on="0"/>
        <pt x="457" y="70" on="0"/>
        <pt x="463" y="101" on="1"/>
        <pt x="484" y="224" on="1"/>
        <pt x="255" y="224" on="1"/>
        <pt x="157" y="102" on="1"/>
        <pt x="134" y="73" on="0"/>
        <pt x="134" y="54" on="0"/>
        <pt x="150" y="50" on="1"/>
        <pt x="187" y="39" on="1"/>
        <pt x="182" y="0" on="1"/>
        <pt x="-14" y="0" on="1"/>
        <pt x="-14" y="40" on="1"/>
        <pt x="25" y="49" on="0"/>
        <pt x="47" y="62" on="0"/>
        <pt x="63" y="82" on="1"/>
        <pt x="469" y="592" on="1"/>
        <pt x="479" y="606" on="0"/>
        <pt x="479" y="616" on="1"/>
        <pt x="479" y="641" on="0"/>
        <pt x="414" y="654" on="1"/>
        <pt x="420" y="693" on="1"/>
        <pt x="963" y="693" on="1"/>
        <pt x="963" y="642" on="0"/>
        <pt x="940" y="537" on="1"/>
        <pt x="881" y="530" on="1"/>
        <pt x="880" y="599" on="0"/>
        <pt x="874" y="634" on="0"/>
        <pt x="866" y="635" on="1"/>
        <pt x="842" y="638" on="0"/>
        <pt x="806" y="639" on="1"/>
        <pt x="655" y="642" on="1"/>
        <pt x="608" y="373" on="1"/>
        <pt x="758" y="373" on="1"/>
        <pt x="766" y="373" on="0"/>
        <pt x="788" y="414" on="0"/>
        <pt x="802" y="444" on="1"/>
        <pt x="833" y="441" on="1"/>
        <pt x="816" y="347" on="0"/>
        <pt x="812" y="243" on="1"/>
        <pt x="775" y="237" on="1"/>
        <pt x="769" y="292" on="0"/>
        <pt x="762" y="320" on="0"/>
        <pt x="755" y="320" on="1"/>
        <pt x="598" y="320" on="1"/>
        <pt x="551" y="51" on="1"/>
        <pt x="640" y="52" on="1"/>
        <pt x="741" y="55" on="0"/>
        <pt x="775" y="62" on="0"/>
        <pt x="785" y="66" on="1"/>
        <pt x="803" y="71" on="0"/>
        <pt x="849" y="184" on="1"/>
      </contour>
      <contour>
        <pt x="494" y="277" on="1"/>
        <pt x="548" y="587" on="1"/>
        <pt x="539" y="587" on="1"/>
        <pt x="296" y="277" on="1"/>
      </contour>
    </TTGlyph>
    <TTGlyph name="Aacute" xMin="-18" yMin="0" xMax="641" yMax="914">
      <contour>
        <pt x="614" y="842" on="1"/>
        <pt x="396" y="749" on="1"/>
        <pt x="372" y="785" on="1"/>
        <pt x="570" y="914" on="1"/>
        <pt x="626" y="863" on="1"/>
      </contour>
      <contour>
        <pt x="636" y="0" on="1"/>
        <pt x="396" y="0" on="1"/>
        <pt x="396" y="40" on="1"/>
        <pt x="440" y="49" on="0"/>
        <pt x="479" y="65" on="0"/>
        <pt x="479" y="89" on="0"/>
        <pt x="478" y="94" on="1"/>
        <pt x="459" y="224" on="1"/>
        <pt x="200" y="224" on="1"/>
        <pt x="121" y="80" on="1"/>
        <pt x="114" y="66" on="0"/>
        <pt x="114" y="64" on="1"/>
        <pt x="114" y="59" on="0"/>
        <pt x="119" y="58" on="1"/>
        <pt x="183" y="39" on="1"/>
        <pt x="178" y="0" on="1"/>
        <pt x="-18" y="0" on="1"/>
        <pt x="-18" y="40" on="1"/>
        <pt x="22" y="50" on="0"/>
        <pt x="42" y="62" on="0"/>
        <pt x="53" y="83" on="1"/>
        <pt x="392" y="702" on="1"/>
        <pt x="475" y="702" on="1"/>
        <pt x="586" y="64" on="1"/>
        <pt x="589" y="49" on="0"/>
        <pt x="641" y="39" on="1"/>
      </contour>
      <contour>
        <pt x="451" y="277" on="1"/>
        <pt x="405" y="558" on="1"/>
        <pt x="404" y="570" on="0"/>
        <pt x="404" y="587" on="1"/>
        <pt x="394" y="587" on="1"/>
        <pt x="228" y="277" on="1"/>
      </contour>
    </TTGlyph>
    <TTGlyph name="Abreve" xMin="-18" yMin="0" xMax="641" yMax="900">
      <contour>
        <pt x="594" y="900" on="1"/>
        <pt x="631" y="900" on="1"/>
        <pt x="616" y="838" on="0"/>
        <pt x="527" y="760" on="0"/>
        <pt x="393" y="760" on="0"/>
        <pt x="332" y="824" on="0"/>
        <pt x="332" y="876" on="1"/>
        <pt x="332" y="892" on="0"/>
        <pt x="333" y="900" on="1"/>
        <pt x="370" y="900" on="1"/>
        <pt x="373" y="828" on="0"/>
        <pt x="563" y="828" on="0"/>
      </contour>
      <contour>
        <pt x="636" y="0" on="1"/>
        <pt x="396" y="0" on="1"/>
        <pt x="396" y="40" on="1"/>
        <pt x="440" y="49" on="0"/>
        <pt x="479" y="65" on="0"/>
        <pt x="479" y="89" on="0"/>
        <pt x="478" y="94" on="1"/>
        <pt x="459" y="224" on="1"/>
        <pt x="200" y="224" on="1"/>
        <pt x="121" y="80" on="1"/>
        <pt x="114" y="66" on="0"/>
        <pt x="114" y="64" on="1"/>
        <pt x="114" y="59" on="0"/>
        <pt x="119" y="58" on="1"/>
        <pt x="183" y="39" on="1"/>
        <pt x="178" y="0" on="1"/>
        <pt x="-18" y="0" on="1"/>
        <pt x="-18" y="40" on="1"/>
        <pt x="22" y="50" on="0"/>
        <pt x="42" y="62" on="0"/>
        <pt x="53" y="83" on="1"/>
        <pt x="392" y="702" on="1"/>
        <pt x="475" y="702" on="1"/>
        <pt x="586" y="64" on="1"/>
        <pt x="589" y="49" on="0"/>
        <pt x="641" y="39" on="1"/>
      </contour>
      <contour>
        <pt x="451" y="277" on="1"/>
        <pt x="405" y="558" on="1"/>
        <pt x="404" y="570" on="0"/>
        <pt x="404" y="587" on="1"/>
        <pt x="394" y="587" on="1"/>
        <pt x="228" y="277" on="1"/>
      </contour>
    </TTGlyph>
    <TTGlyph name="Acircumflex" xMin="-18" yMin="0" xMax="641" yMax="914">
      <contour>
        <pt x="624" y="775" on="1"/>
        <pt x="594" y="749" on="1"/>
        <pt x="472" y="840" on="1"/>
        <pt x="316" y="749" on="1"/>
        <pt x="296" y="775" on="1"/>
        <pt x="452" y="914" on="1"/>
        <pt x="508" y="914" on="1"/>
      </contour>
      <contour>
        <pt x="636" y="0" on="1"/>
        <pt x="396" y="0" on="1"/>
        <pt x="396" y="40" on="1"/>
        <pt x="440" y="49" on="0"/>
        <pt x="479" y="65" on="0"/>
        <pt x="479" y="89" on="0"/>
        <pt x="478" y="94" on="1"/>
        <pt x="459" y="224" on="1"/>
        <pt x="200" y="224" on="1"/>
        <pt x="121" y="80" on="1"/>
        <pt x="114" y="66" on="0"/>
        <pt x="114" y="64" on="1"/>
        <pt x="114" y="59" on="0"/>
        <pt x="119" y="58" on="1"/>
        <pt x="183" y="39" on="1"/>
        <pt x="178" y="0" on="1"/>
        <pt x="-18" y="0" on="1"/>
        <pt x="-18" y="40" on="1"/>
        <pt x="22" y="50" on="0"/>
        <pt x="42" y="62" on="0"/>
        <pt x="53" y="83" on="1"/>
        <pt x="392" y="702" on="1"/>
        <pt x="475" y="702" on="1"/>
        <pt x="586" y="64" on="1"/>
        <pt x="589" y="49" on="0"/>
        <pt x="641" y="39" on="1"/>
      </contour>
      <contour>
        <pt x="451" y="277" on="1"/>
        <pt x="405" y="558" on="1"/>
        <pt x="404" y="570" on="0"/>
        <pt x="404" y="587" on="1"/>
        <pt x="394" y="587" on="1"/>
        <pt x="228" y="277" on="1"/>
      </contour>
    </TTGlyph>
    <TTGlyph name="Adieresis" xMin="-18" yMin="0" xMax="641" yMax="885">
      <contour>
        <pt x="540" y="775" on="1"/>
        <pt x="493" y="775" on="0"/>
        <pt x="493" y="821" on="1"/>
        <pt x="493" y="847" on="0"/>
        <pt x="529" y="885" on="0"/>
        <pt x="554" y="885" on="1"/>
        <pt x="601" y="885" on="0"/>
        <pt x="601" y="840" on="1"/>
        <pt x="601" y="814" on="0"/>
        <pt x="565" y="775" on="0"/>
      </contour>
      <contour>
        <pt x="347" y="775" on="1"/>
        <pt x="300" y="775" on="0"/>
        <pt x="300" y="821" on="1"/>
        <pt x="300" y="847" on="0"/>
        <pt x="336" y="885" on="0"/>
        <pt x="361" y="885" on="1"/>
        <pt x="408" y="885" on="0"/>
        <pt x="408" y="840" on="1"/>
        <pt x="408" y="814" on="0"/>
        <pt x="372" y="775" on="0"/>
      </contour>
      <contour>
        <pt x="636" y="0" on="1"/>
        <pt x="396" y="0" on="1"/>
        <pt x="396" y="40" on="1"/>
        <pt x="440" y="49" on="0"/>
        <pt x="479" y="65" on="0"/>
        <pt x="479" y="89" on="0"/>
        <pt x="478" y="94" on="1"/>
        <pt x="459" y="224" on="1"/>
        <pt x="200" y="224" on="1"/>
        <pt x="121" y="80" on="1"/>
        <pt x="114" y="66" on="0"/>
        <pt x="114" y="64" on="1"/>
        <pt x="114" y="59" on="0"/>
        <pt x="119" y="58" on="1"/>
        <pt x="183" y="39" on="1"/>
        <pt x="178" y="0" on="1"/>
        <pt x="-18" y="0" on="1"/>
        <pt x="-18" y="40" on="1"/>
        <pt x="22" y="50" on="0"/>
        <pt x="42" y="62" on="0"/>
        <pt x="53" y="83" on="1"/>
        <pt x="392" y="702" on="1"/>
        <pt x="475" y="702" on="1"/>
        <pt x="586" y="64" on="1"/>
        <pt x="589" y="49" on="0"/>
        <pt x="641" y="39" on="1"/>
      </contour>
      <contour>
        <pt x="451" y="277" on="1"/>
        <pt x="405" y="558" on="1"/>
        <pt x="404" y="570" on="0"/>
        <pt x="404" y="587" on="1"/>
        <pt x="394" y="587" on="1"/>
        <pt x="228" y="277" on="1"/>
      </contour>
    </TTGlyph>
    <TTGlyph name="Agrave" xMin="-18" yMin="0" xMax="641" yMax="914">
      <contour>
        <pt x="489" y="749" on="1"/>
        <pt x="305" y="842" on="1"/>
        <pt x="301" y="863" on="1"/>
        <pt x="365" y="914" on="1"/>
        <pt x="515" y="785" on="1"/>
      </contour>
      <contour>
        <pt x="636" y="0" on="1"/>
        <pt x="396" y="0" on="1"/>
        <pt x="396" y="40" on="1"/>
        <pt x="440" y="49" on="0"/>
        <pt x="479" y="65" on="0"/>
        <pt x="479" y="89" on="0"/>
        <pt x="478" y="94" on="1"/>
        <pt x="459" y="224" on="1"/>
        <pt x="200" y="224" on="1"/>
        <pt x="121" y="80" on="1"/>
        <pt x="114" y="66" on="0"/>
        <pt x="114" y="64" on="1"/>
        <pt x="114" y="59" on="0"/>
        <pt x="119" y="58" on="1"/>
        <pt x="183" y="39" on="1"/>
        <pt x="178" y="0" on="1"/>
        <pt x="-18" y="0" on="1"/>
        <pt x="-18" y="40" on="1"/>
        <pt x="22" y="50" on="0"/>
        <pt x="42" y="62" on="0"/>
        <pt x="53" y="83" on="1"/>
        <pt x="392" y="702" on="1"/>
        <pt x="475" y="702" on="1"/>
        <pt x="586" y="64" on="1"/>
        <pt x="589" y="49" on="0"/>
        <pt x="641" y="39" on="1"/>
      </contour>
      <contour>
        <pt x="451" y="277" on="1"/>
        <pt x="405" y="558" on="1"/>
        <pt x="404" y="570" on="0"/>
        <pt x="404" y="587" on="1"/>
        <pt x="394" y="587" on="1"/>
        <pt x="228" y="277" on="1"/>
      </contour>
    </TTGlyph>
    <TTGlyph name="Amacron" xMin="-18" yMin="0" xMax="641" yMax="864">
      <contour>
        <pt x="581" y="804" on="1"/>
        <pt x="332" y="804" on="1"/>
        <pt x="343" y="864" on="1"/>
        <pt x="592" y="864" on="1"/>
      </contour>
      <contour>
        <pt x="636" y="0" on="1"/>
        <pt x="396" y="0" on="1"/>
        <pt x="396" y="40" on="1"/>
        <pt x="440" y="49" on="0"/>
        <pt x="479" y="65" on="0"/>
        <pt x="479" y="89" on="0"/>
        <pt x="478" y="94" on="1"/>
        <pt x="459" y="224" on="1"/>
        <pt x="200" y="224" on="1"/>
        <pt x="121" y="80" on="1"/>
        <pt x="114" y="66" on="0"/>
        <pt x="114" y="64" on="1"/>
        <pt x="114" y="59" on="0"/>
        <pt x="119" y="58" on="1"/>
        <pt x="183" y="39" on="1"/>
        <pt x="178" y="0" on="1"/>
        <pt x="-18" y="0" on="1"/>
        <pt x="-18" y="40" on="1"/>
        <pt x="22" y="50" on="0"/>
        <pt x="42" y="62" on="0"/>
        <pt x="53" y="83" on="1"/>
        <pt x="392" y="702" on="1"/>
        <pt x="475" y="702" on="1"/>
        <pt x="586" y="64" on="1"/>
        <pt x="589" y="49" on="0"/>
        <pt x="641" y="39" on="1"/>
      </contour>
      <contour>
        <pt x="451" y="277" on="1"/>
        <pt x="405" y="558" on="1"/>
        <pt x="404" y="570" on="0"/>
        <pt x="404" y="587" on="1"/>
        <pt x="394" y="587" on="1"/>
        <pt x="228" y="277" on="1"/>
      </contour>
    </TTGlyph>
    <TTGlyph name="Aogonek" xMin="-18" yMin="-215" xMax="641" yMax="702">
      <contour>
        <pt x="434" y="-116" on="1"/>
        <pt x="434" y="-159" on="0"/>
        <pt x="486" y="-159" on="1"/>
        <pt x="512" y="-159" on="0"/>
        <pt x="542" y="-149" on="1"/>
        <pt x="551" y="-169" on="1"/>
        <pt x="491" y="-215" on="0"/>
        <pt x="432" y="-215" on="1"/>
        <pt x="397" y="-215" on="0"/>
        <pt x="349" y="-172" on="0"/>
        <pt x="349" y="-100" on="0"/>
        <pt x="413" y="-23" on="0"/>
        <pt x="468" y="0" on="1"/>
        <pt x="396" y="0" on="1"/>
        <pt x="396" y="40" on="1"/>
        <pt x="440" y="49" on="0"/>
        <pt x="479" y="65" on="0"/>
        <pt x="479" y="89" on="0"/>
        <pt x="478" y="94" on="1"/>
        <pt x="459" y="224" on="1"/>
        <pt x="200" y="224" on="1"/>
        <pt x="121" y="80" on="1"/>
        <pt x="114" y="66" on="0"/>
        <pt x="114" y="64" on="1"/>
        <pt x="114" y="59" on="0"/>
        <pt x="119" y="58" on="1"/>
        <pt x="183" y="39" on="1"/>
        <pt x="178" y="0" on="1"/>
        <pt x="-18" y="0" on="1"/>
        <pt x="-18" y="40" on="1"/>
        <pt x="22" y="50" on="0"/>
        <pt x="42" y="62" on="0"/>
        <pt x="53" y="83" on="1"/>
        <pt x="392" y="702" on="1"/>
        <pt x="475" y="702" on="1"/>
        <pt x="586" y="64" on="1"/>
        <pt x="589" y="49" on="0"/>
        <pt x="641" y="39" on="1"/>
        <pt x="636" y="0" on="1"/>
        <pt x="597" y="0" on="1"/>
        <pt x="532" y="0" on="0"/>
        <pt x="434" y="-69" on="0"/>
      </contour>
      <contour>
        <pt x="451" y="277" on="1"/>
        <pt x="405" y="558" on="1"/>
        <pt x="404" y="570" on="0"/>
        <pt x="404" y="587" on="1"/>
        <pt x="394" y="587" on="1"/>
        <pt x="228" y="277" on="1"/>
      </contour>
    </TTGlyph>
    <TTGlyph name="Aring" xMin="-18" yMin="0" xMax="641" yMax="919">
      <contour>
        <pt x="505" y="919" on="0"/>
        <pt x="554" y="876" on="0"/>
        <pt x="554" y="798" on="0"/>
        <pt x="484" y="739" on="0"/>
        <pt x="401" y="739" on="0"/>
        <pt x="353" y="781" on="0"/>
        <pt x="353" y="861" on="0"/>
        <pt x="422" y="919" on="0"/>
      </contour>
      <contour>
        <pt x="402" y="824" on="1"/>
        <pt x="402" y="782" on="0"/>
        <pt x="447" y="782" on="1"/>
        <pt x="469" y="782" on="0"/>
        <pt x="503" y="814" on="0"/>
        <pt x="503" y="834" on="1"/>
        <pt x="503" y="876" on="0"/>
        <pt x="457" y="876" on="1"/>
        <pt x="433" y="876" on="0"/>
        <pt x="402" y="845" on="0"/>
      </contour>
      <contour>
        <pt x="636" y="0" on="1"/>
        <pt x="396" y="0" on="1"/>
        <pt x="396" y="40" on="1"/>
        <pt x="440" y="49" on="0"/>
        <pt x="479" y="65" on="0"/>
        <pt x="479" y="89" on="0"/>
        <pt x="478" y="94" on="1"/>
        <pt x="459" y="224" on="1"/>
        <pt x="200" y="224" on="1"/>
        <pt x="121" y="80" on="1"/>
        <pt x="114" y="66" on="0"/>
        <pt x="114" y="64" on="1"/>
        <pt x="114" y="59" on="0"/>
        <pt x="119" y="58" on="1"/>
        <pt x="183" y="39" on="1"/>
        <pt x="178" y="0" on="1"/>
        <pt x="-18" y="0" on="1"/>
        <pt x="-18" y="40" on="1"/>
        <pt x="22" y="50" on="0"/>
        <pt x="42" y="62" on="0"/>
        <pt x="53" y="83" on="1"/>
        <pt x="392" y="702" on="1"/>
        <pt x="475" y="702" on="1"/>
        <pt x="586" y="64" on="1"/>
        <pt x="589" y="49" on="0"/>
        <pt x="641" y="39" on="1"/>
      </contour>
      <contour>
        <pt x="451" y="277" on="1"/>
        <pt x="405" y="558" on="1"/>
        <pt x="404" y="570" on="0"/>
        <pt x="404" y="587" on="1"/>
        <pt x="394" y="587" on="1"/>
        <pt x="228" y="277" on="1"/>
      </contour>
    </TTGlyph>
    <TTGlyph name="Atilde" xMin="-18" yMin="0" xMax="646" yMax="891">
      <contour>
        <pt x="623" y="891" on="1"/>
        <pt x="646" y="879" on="1"/>
        <pt x="581" y="778" on="0"/>
        <pt x="535" y="778" on="1"/>
        <pt x="518" y="778" on="0"/>
        <pt x="390" y="805" on="0"/>
        <pt x="328" y="805" on="0"/>
        <pt x="288" y="771" on="1"/>
        <pt x="268" y="787" on="1"/>
        <pt x="310" y="840" on="0"/>
        <pt x="364" y="883" on="0"/>
        <pt x="410" y="883" on="0"/>
        <pt x="534" y="856" on="0"/>
        <pt x="583" y="856" on="0"/>
      </contour>
      <contour>
        <pt x="636" y="0" on="1"/>
        <pt x="396" y="0" on="1"/>
        <pt x="396" y="40" on="1"/>
        <pt x="440" y="49" on="0"/>
        <pt x="479" y="65" on="0"/>
        <pt x="479" y="89" on="0"/>
        <pt x="478" y="94" on="1"/>
        <pt x="459" y="224" on="1"/>
        <pt x="200" y="224" on="1"/>
        <pt x="121" y="80" on="1"/>
        <pt x="114" y="66" on="0"/>
        <pt x="114" y="64" on="1"/>
        <pt x="114" y="59" on="0"/>
        <pt x="119" y="58" on="1"/>
        <pt x="183" y="39" on="1"/>
        <pt x="178" y="0" on="1"/>
        <pt x="-18" y="0" on="1"/>
        <pt x="-18" y="40" on="1"/>
        <pt x="22" y="50" on="0"/>
        <pt x="42" y="62" on="0"/>
        <pt x="53" y="83" on="1"/>
        <pt x="392" y="702" on="1"/>
        <pt x="475" y="702" on="1"/>
        <pt x="586" y="64" on="1"/>
        <pt x="589" y="49" on="0"/>
        <pt x="641" y="39" on="1"/>
      </contour>
      <contour>
        <pt x="451" y="277" on="1"/>
        <pt x="405" y="558" on="1"/>
        <pt x="404" y="570" on="0"/>
        <pt x="404" y="587" on="1"/>
        <pt x="394" y="587" on="1"/>
        <pt x="228" y="277" on="1"/>
      </contour>
    </TTGlyph>
    <TTGlyph name="B" xMin="23" yMin="0" xMax="604" yMax="693">
      <contour>
        <pt x="310" y="0" on="1"/>
        <pt x="23" y="0" on="1"/>
        <pt x="23" y="39" on="1"/>
        <pt x="90" y="49" on="0"/>
        <pt x="100" y="70" on="1"/>
        <pt x="105" y="78" on="0"/>
        <pt x="109" y="101" on="1"/>
        <pt x="193" y="592" on="1"/>
        <pt x="196" y="606" on="0"/>
        <pt x="196" y="631" on="0"/>
        <pt x="169" y="646" on="0"/>
        <pt x="128" y="654" on="1"/>
        <pt x="134" y="693" on="1"/>
        <pt x="409" y="693" on="1"/>
        <pt x="501" y="693" on="0"/>
        <pt x="604" y="611" on="0"/>
        <pt x="604" y="476" on="0"/>
        <pt x="514" y="377" on="0"/>
        <pt x="466" y="362" on="1"/>
        <pt x="466" y="355" on="1"/>
        <pt x="523" y="340" on="0"/>
        <pt x="589" y="263" on="0"/>
        <pt x="589" y="202" on="1"/>
        <pt x="589" y="124" on="0"/>
        <pt x="530" y="65" on="1"/>
        <pt x="499" y="35" on="0"/>
        <pt x="386" y="0" on="0"/>
      </contour>
      <contour>
        <pt x="253" y="389" on="1"/>
        <pt x="329" y="389" on="1"/>
        <pt x="407" y="389" on="0"/>
        <pt x="494" y="459" on="0"/>
        <pt x="494" y="529" on="1"/>
        <pt x="494" y="640" on="0"/>
        <pt x="365" y="640" on="1"/>
        <pt x="295" y="640" on="1"/>
      </contour>
      <contour>
        <pt x="341" y="333" on="1"/>
        <pt x="244" y="333" on="1"/>
        <pt x="206" y="97" on="1"/>
        <pt x="203" y="81" on="0"/>
        <pt x="205" y="66" on="0"/>
        <pt x="214" y="62" on="1"/>
        <pt x="238" y="50" on="0"/>
        <pt x="292" y="50" on="1"/>
        <pt x="479" y="50" on="0"/>
        <pt x="479" y="200" on="1"/>
        <pt x="479" y="281" on="0"/>
        <pt x="431" y="309" on="1"/>
        <pt x="390" y="333" on="0"/>
      </contour>
    </TTGlyph>
    <TTGlyph name="C" xMin="59" yMin="-9" xMax="619" yMax="702">
      <contour>
        <pt x="512" y="200" on="1"/>
        <pt x="567" y="198" on="1"/>
        <pt x="559" y="113" on="0"/>
        <pt x="543" y="36" on="1"/>
        <pt x="510" y="19" on="0"/>
        <pt x="385" y="-9" on="0"/>
        <pt x="322" y="-9" on="1"/>
        <pt x="197" y="-9" on="0"/>
        <pt x="59" y="151" on="0"/>
        <pt x="59" y="395" on="0"/>
        <pt x="110" y="501" on="1"/>
        <pt x="138" y="559" on="0"/>
        <pt x="222" y="646" on="0"/>
        <pt x="357" y="702" on="0"/>
        <pt x="492" y="702" on="0"/>
        <pt x="603" y="682" on="0"/>
        <pt x="619" y="674" on="1"/>
        <pt x="619" y="608" on="0"/>
        <pt x="599" y="506" on="1"/>
        <pt x="541" y="498" on="1"/>
        <pt x="535" y="612" on="0"/>
        <pt x="520" y="626" on="1"/>
        <pt x="513" y="633" on="0"/>
        <pt x="448" y="649" on="0"/>
        <pt x="416" y="649" on="1"/>
        <pt x="355" y="649" on="0"/>
        <pt x="260" y="590" on="0"/>
        <pt x="231" y="539" on="1"/>
        <pt x="173" y="437" on="0"/>
        <pt x="173" y="289" on="1"/>
        <pt x="173" y="168" on="0"/>
        <pt x="279" y="47" on="0"/>
        <pt x="356" y="47" on="1"/>
        <pt x="390" y="47" on="0"/>
        <pt x="451" y="65" on="0"/>
        <pt x="460" y="72" on="1"/>
        <pt x="474" y="81" on="0"/>
      </contour>
    </TTGlyph>
    <TTGlyph name="Cacute" xMin="59" yMin="-9" xMax="626" yMax="914">
      <contour>
        <pt x="614" y="842" on="1"/>
        <pt x="396" y="749" on="1"/>
        <pt x="372" y="785" on="1"/>
        <pt x="570" y="914" on="1"/>
        <pt x="626" y="863" on="1"/>
      </contour>
      <contour>
        <pt x="512" y="200" on="1"/>
        <pt x="567" y="198" on="1"/>
        <pt x="559" y="113" on="0"/>
        <pt x="543" y="36" on="1"/>
        <pt x="510" y="19" on="0"/>
        <pt x="385" y="-9" on="0"/>
        <pt x="322" y="-9" on="1"/>
        <pt x="197" y="-9" on="0"/>
        <pt x="59" y="151" on="0"/>
        <pt x="59" y="395" on="0"/>
        <pt x="110" y="501" on="1"/>
        <pt x="138" y="559" on="0"/>
        <pt x="222" y="646" on="0"/>
        <pt x="357" y="702" on="0"/>
        <pt x="492" y="702" on="0"/>
        <pt x="603" y="682" on="0"/>
        <pt x="619" y="674" on="1"/>
        <pt x="619" y="608" on="0"/>
        <pt x="599" y="506" on="1"/>
        <pt x="541" y="498" on="1"/>
        <pt x="535" y="612" on="0"/>
        <pt x="520" y="626" on="1"/>
        <pt x="513" y="633" on="0"/>
        <pt x="448" y="649" on="0"/>
        <pt x="416" y="649" on="1"/>
        <pt x="355" y="649" on="0"/>
        <pt x="260" y="590" on="0"/>
        <pt x="231" y="539" on="1"/>
        <pt x="173" y="437" on="0"/>
        <pt x="173" y="289" on="1"/>
        <pt x="173" y="168" on="0"/>
        <pt x="279" y="47" on="0"/>
        <pt x="356" y="47" on="1"/>
        <pt x="390" y="47" on="0"/>
        <pt x="451" y="65" on="0"/>
        <pt x="460" y="72" on="1"/>
        <pt x="474" y="81" on="0"/>
      </contour>
    </TTGlyph>
    <TTGlyph name="Ccaron" xMin="59" yMin="-9" xMax="625" yMax="917">
      <contour>
        <pt x="625" y="891" on="1"/>
        <pt x="468" y="752" on="1"/>
        <pt x="412" y="752" on="1"/>
        <pt x="297" y="891" on="1"/>
        <pt x="327" y="917" on="1"/>
        <pt x="449" y="826" on="1"/>
        <pt x="605" y="917" on="1"/>
      </contour>
      <contour>
        <pt x="512" y="200" on="1"/>
        <pt x="567" y="198" on="1"/>
        <pt x="559" y="113" on="0"/>
        <pt x="543" y="36" on="1"/>
        <pt x="510" y="19" on="0"/>
        <pt x="385" y="-9" on="0"/>
        <pt x="322" y="-9" on="1"/>
        <pt x="197" y="-9" on="0"/>
        <pt x="59" y="151" on="0"/>
        <pt x="59" y="395" on="0"/>
        <pt x="110" y="501" on="1"/>
        <pt x="138" y="559" on="0"/>
        <pt x="222" y="646" on="0"/>
        <pt x="357" y="702" on="0"/>
        <pt x="492" y="702" on="0"/>
        <pt x="603" y="682" on="0"/>
        <pt x="619" y="674" on="1"/>
        <pt x="619" y="608" on="0"/>
        <pt x="599" y="506" on="1"/>
        <pt x="541" y="498" on="1"/>
        <pt x="535" y="612" on="0"/>
        <pt x="520" y="626" on="1"/>
        <pt x="513" y="633" on="0"/>
        <pt x="448" y="649" on="0"/>
        <pt x="416" y="649" on="1"/>
        <pt x="355" y="649" on="0"/>
        <pt x="260" y="590" on="0"/>
        <pt x="231" y="539" on="1"/>
        <pt x="173" y="437" on="0"/>
        <pt x="173" y="289" on="1"/>
        <pt x="173" y="168" on="0"/>
        <pt x="279" y="47" on="0"/>
        <pt x="356" y="47" on="1"/>
        <pt x="390" y="47" on="0"/>
        <pt x="451" y="65" on="0"/>
        <pt x="460" y="72" on="1"/>
        <pt x="474" y="81" on="0"/>
      </contour>
    </TTGlyph>
    <TTGlyph name="Ccedilla" xMin="59" yMin="-217" xMax="619" yMax="702">
      <contour>
        <pt x="238" y="-217" on="1"/>
        <pt x="240" y="-186" on="1"/>
        <pt x="288" y="-180" on="0"/>
        <pt x="346" y="-146" on="0"/>
        <pt x="346" y="-122" on="1"/>
        <pt x="346" y="-90" on="0"/>
        <pt x="306" y="-90" on="1"/>
        <pt x="285" y="-90" on="0"/>
        <pt x="263" y="-100" on="1"/>
        <pt x="257" y="-89" on="1"/>
        <pt x="295" y="-8" on="1"/>
        <pt x="182" y="1" on="0"/>
        <pt x="59" y="158" on="0"/>
        <pt x="59" y="395" on="0"/>
        <pt x="110" y="501" on="1"/>
        <pt x="138" y="559" on="0"/>
        <pt x="222" y="646" on="0"/>
        <pt x="357" y="702" on="0"/>
        <pt x="492" y="702" on="0"/>
        <pt x="603" y="682" on="0"/>
        <pt x="619" y="674" on="1"/>
        <pt x="619" y="608" on="0"/>
        <pt x="599" y="506" on="1"/>
        <pt x="541" y="498" on="1"/>
        <pt x="535" y="612" on="0"/>
        <pt x="520" y="626" on="1"/>
        <pt x="513" y="633" on="0"/>
        <pt x="448" y="649" on="0"/>
        <pt x="416" y="649" on="1"/>
        <pt x="355" y="649" on="0"/>
        <pt x="260" y="590" on="0"/>
        <pt x="231" y="539" on="1"/>
        <pt x="173" y="437" on="0"/>
        <pt x="173" y="289" on="1"/>
        <pt x="173" y="168" on="0"/>
        <pt x="279" y="47" on="0"/>
        <pt x="356" y="47" on="1"/>
        <pt x="390" y="47" on="0"/>
        <pt x="451" y="65" on="0"/>
        <pt x="460" y="72" on="1"/>
        <pt x="474" y="81" on="0"/>
        <pt x="512" y="200" on="1"/>
        <pt x="567" y="198" on="1"/>
        <pt x="559" y="113" on="0"/>
        <pt x="543" y="36" on="1"/>
        <pt x="464" y="-2" on="0"/>
        <pt x="348" y="-8" on="1"/>
        <pt x="330" y="-47" on="1"/>
        <pt x="340" y="-45" on="0"/>
        <pt x="394" y="-45" on="0"/>
        <pt x="432" y="-74" on="0"/>
        <pt x="432" y="-99" on="1"/>
        <pt x="432" y="-144" on="0"/>
        <pt x="326" y="-213" on="0"/>
      </contour>
    </TTGlyph>
    <TTGlyph name="Ccircumflex" xMin="59" yMin="-9" xMax="624" yMax="914">
      <contour>
        <pt x="624" y="775" on="1"/>
        <pt x="594" y="749" on="1"/>
        <pt x="472" y="840" on="1"/>
        <pt x="316" y="749" on="1"/>
        <pt x="296" y="775" on="1"/>
        <pt x="452" y="914" on="1"/>
        <pt x="508" y="914" on="1"/>
      </contour>
      <contour>
        <pt x="512" y="200" on="1"/>
        <pt x="567" y="198" on="1"/>
        <pt x="559" y="113" on="0"/>
        <pt x="543" y="36" on="1"/>
        <pt x="510" y="19" on="0"/>
        <pt x="385" y="-9" on="0"/>
        <pt x="322" y="-9" on="1"/>
        <pt x="197" y="-9" on="0"/>
        <pt x="59" y="151" on="0"/>
        <pt x="59" y="395" on="0"/>
        <pt x="110" y="501" on="1"/>
        <pt x="138" y="559" on="0"/>
        <pt x="222" y="646" on="0"/>
        <pt x="357" y="702" on="0"/>
        <pt x="492" y="702" on="0"/>
        <pt x="603" y="682" on="0"/>
        <pt x="619" y="674" on="1"/>
        <pt x="619" y="608" on="0"/>
        <pt x="599" y="506" on="1"/>
        <pt x="541" y="498" on="1"/>
        <pt x="535" y="612" on="0"/>
        <pt x="520" y="626" on="1"/>
        <pt x="513" y="633" on="0"/>
        <pt x="448" y="649" on="0"/>
        <pt x="416" y="649" on="1"/>
        <pt x="355" y="649" on="0"/>
        <pt x="260" y="590" on="0"/>
        <pt x="231" y="539" on="1"/>
        <pt x="173" y="437" on="0"/>
        <pt x="173" y="289" on="1"/>
        <pt x="173" y="168" on="0"/>
        <pt x="279" y="47" on="0"/>
        <pt x="356" y="47" on="1"/>
        <pt x="390" y="47" on="0"/>
        <pt x="451" y="65" on="0"/>
        <pt x="460" y="72" on="1"/>
        <pt x="474" y="81" on="0"/>
      </contour>
    </TTGlyph>
    <TTGlyph name="Cdotaccent" xMin="59" yMin="-9" xMax="619" yMax="894">
      <contour>
        <pt x="492" y="894" on="0"/>
        <pt x="524" y="867" on="0"/>
        <pt x="524" y="816" on="0"/>
        <pt x="492" y="783" on="0"/>
        <pt x="466" y="783" on="1"/>
        <pt x="412" y="783" on="0"/>
        <pt x="412" y="839" on="1"/>
        <pt x="412" y="862" on="0"/>
        <pt x="441" y="894" on="0"/>
      </contour>
      <contour>
        <pt x="512" y="200" on="1"/>
        <pt x="567" y="198" on="1"/>
        <pt x="559" y="113" on="0"/>
        <pt x="543" y="36" on="1"/>
        <pt x="510" y="19" on="0"/>
        <pt x="385" y="-9" on="0"/>
        <pt x="322" y="-9" on="1"/>
        <pt x="197" y="-9" on="0"/>
        <pt x="59" y="151" on="0"/>
        <pt x="59" y="395" on="0"/>
        <pt x="110" y="501" on="1"/>
        <pt x="138" y="559" on="0"/>
        <pt x="222" y="646" on="0"/>
        <pt x="357" y="702" on="0"/>
        <pt x="492" y="702" on="0"/>
        <pt x="603" y="682" on="0"/>
        <pt x="619" y="674" on="1"/>
        <pt x="619" y="608" on="0"/>
        <pt x="599" y="506" on="1"/>
        <pt x="541" y="498" on="1"/>
        <pt x="535" y="612" on="0"/>
        <pt x="520" y="626" on="1"/>
        <pt x="513" y="633" on="0"/>
        <pt x="448" y="649" on="0"/>
        <pt x="416" y="649" on="1"/>
        <pt x="355" y="649" on="0"/>
        <pt x="260" y="590" on="0"/>
        <pt x="231" y="539" on="1"/>
        <pt x="173" y="437" on="0"/>
        <pt x="173" y="289" on="1"/>
        <pt x="173" y="168" on="0"/>
        <pt x="279" y="47" on="0"/>
        <pt x="356" y="47" on="1"/>
        <pt x="390" y="47" on="0"/>
        <pt x="451" y="65" on="0"/>
        <pt x="460" y="72" on="1"/>
        <pt x="474" y="81" on="0"/>
      </contour>
    </TTGlyph>
    <TTGlyph name="D" xMin="22" yMin="0" xMax="703" yMax="693">
      <contour>
        <pt x="311" y="0" on="1"/>
        <pt x="22" y="0" on="1"/>
        <pt x="22" y="39" on="1"/>
        <pt x="76" y="48" on="0"/>
        <pt x="102" y="70" on="0"/>
        <pt x="108" y="101" on="1"/>
        <pt x="195" y="592" on="1"/>
        <pt x="198" y="607" on="0"/>
        <pt x="198" y="631" on="0"/>
        <pt x="171" y="647" on="0"/>
        <pt x="129" y="654" on="1"/>
        <pt x="135" y="693" on="1"/>
        <pt x="426" y="693" on="1"/>
        <pt x="499" y="693" on="0"/>
        <pt x="609" y="648" on="0"/>
        <pt x="640" y="610" on="1"/>
        <pt x="703" y="533" on="0"/>
        <pt x="703" y="424" on="1"/>
        <pt x="703" y="266" on="0"/>
        <pt x="612" y="139" on="1"/>
        <pt x="566" y="76" on="0"/>
        <pt x="410" y="0" on="0"/>
      </contour>
      <contour>
        <pt x="395" y="640" on="1"/>
        <pt x="300" y="640" on="1"/>
        <pt x="206" y="109" on="1"/>
        <pt x="203" y="88" on="0"/>
        <pt x="203" y="87" on="1"/>
        <pt x="203" y="71" on="0"/>
        <pt x="220" y="67" on="1"/>
        <pt x="287" y="53" on="0"/>
        <pt x="322" y="53" on="1"/>
        <pt x="453" y="53" on="0"/>
        <pt x="589" y="249" on="0"/>
        <pt x="589" y="405" on="1"/>
        <pt x="589" y="469" on="0"/>
        <pt x="552" y="566" on="0"/>
        <pt x="522" y="591" on="1"/>
        <pt x="463" y="640" on="0"/>
      </contour>
    </TTGlyph>
    <TTGlyph name="Dcaron" xMin="22" yMin="0" xMax="703" yMax="917">
      <contour>
        <pt x="620" y="891" on="1"/>
        <pt x="463" y="752" on="1"/>
        <pt x="407" y="752" on="1"/>
        <pt x="292" y="891" on="1"/>
        <pt x="322" y="917" on="1"/>
        <pt x="444" y="826" on="1"/>
        <pt x="600" y="917" on="1"/>
      </contour>
      <contour>
        <pt x="311" y="0" on="1"/>
        <pt x="22" y="0" on="1"/>
        <pt x="22" y="39" on="1"/>
        <pt x="76" y="48" on="0"/>
        <pt x="102" y="70" on="0"/>
        <pt x="108" y="101" on="1"/>
        <pt x="195" y="592" on="1"/>
        <pt x="198" y="607" on="0"/>
        <pt x="198" y="631" on="0"/>
        <pt x="171" y="647" on="0"/>
        <pt x="129" y="654" on="1"/>
        <pt x="135" y="693" on="1"/>
        <pt x="426" y="693" on="1"/>
        <pt x="499" y="693" on="0"/>
        <pt x="609" y="648" on="0"/>
        <pt x="640" y="610" on="1"/>
        <pt x="703" y="533" on="0"/>
        <pt x="703" y="424" on="1"/>
        <pt x="703" y="266" on="0"/>
        <pt x="612" y="139" on="1"/>
        <pt x="566" y="76" on="0"/>
        <pt x="410" y="0" on="0"/>
      </contour>
      <contour>
        <pt x="395" y="640" on="1"/>
        <pt x="300" y="640" on="1"/>
        <pt x="206" y="109" on="1"/>
        <pt x="203" y="88" on="0"/>
        <pt x="203" y="87" on="1"/>
        <pt x="203" y="71" on="0"/>
        <pt x="220" y="67" on="1"/>
        <pt x="287" y="53" on="0"/>
        <pt x="322" y="53" on="1"/>
        <pt x="453" y="53" on="0"/>
        <pt x="589" y="249" on="0"/>
        <pt x="589" y="405" on="1"/>
        <pt x="589" y="469" on="0"/>
        <pt x="552" y="566" on="0"/>
        <pt x="522" y="591" on="1"/>
        <pt x="463" y="640" on="0"/>
      </contour>
    </TTGlyph>
    <TTGlyph name="Dcroat" xMin="22" yMin="0" xMax="703" yMax="864">
      <contour>
        <pt x="576" y="804" on="1"/>
        <pt x="327" y="804" on="1"/>
        <pt x="338" y="864" on="1"/>
        <pt x="587" y="864" on="1"/>
      </contour>
      <contour>
        <pt x="311" y="0" on="1"/>
        <pt x="22" y="0" on="1"/>
        <pt x="22" y="39" on="1"/>
        <pt x="76" y="48" on="0"/>
        <pt x="102" y="70" on="0"/>
        <pt x="108" y="101" on="1"/>
        <pt x="195" y="592" on="1"/>
        <pt x="198" y="607" on="0"/>
        <pt x="198" y="631" on="0"/>
        <pt x="171" y="647" on="0"/>
        <pt x="129" y="654" on="1"/>
        <pt x="135" y="693" on="1"/>
        <pt x="426" y="693" on="1"/>
        <pt x="499" y="693" on="0"/>
        <pt x="609" y="648" on="0"/>
        <pt x="640" y="610" on="1"/>
        <pt x="703" y="533" on="0"/>
        <pt x="703" y="424" on="1"/>
        <pt x="703" y="266" on="0"/>
        <pt x="612" y="139" on="1"/>
        <pt x="566" y="76" on="0"/>
        <pt x="410" y="0" on="0"/>
      </contour>
      <contour>
        <pt x="395" y="640" on="1"/>
        <pt x="300" y="640" on="1"/>
        <pt x="206" y="109" on="1"/>
        <pt x="203" y="88" on="0"/>
        <pt x="203" y="87" on="1"/>
        <pt x="203" y="71" on="0"/>
        <pt x="220" y="67" on="1"/>
        <pt x="287" y="53" on="0"/>
        <pt x="322" y="53" on="1"/>
        <pt x="453" y="53" on="0"/>
        <pt x="589" y="249" on="0"/>
        <pt x="589" y="405" on="1"/>
        <pt x="589" y="469" on="0"/>
        <pt x="552" y="566" on="0"/>
        <pt x="522" y="591" on="1"/>
        <pt x="463" y="640" on="0"/>
      </contour>
    </TTGlyph>
    <TTGlyph name="Delta" xMin="16" yMin="0" xMax="568" yMax="702">
      <contour>
        <pt x="560" y="0" on="1"/>
        <pt x="16" y="0" on="1"/>
        <pt x="23" y="40" on="1"/>
        <pt x="386" y="702" on="1"/>
        <pt x="455" y="702" on="1"/>
        <pt x="568" y="42" on="1"/>
      </contour>
      <contour>
        <pt x="460" y="53" on="1"/>
        <pt x="388" y="558" on="1"/>
        <pt x="387" y="563" on="0"/>
        <pt x="387" y="585" on="0"/>
        <pt x="388" y="587" on="1"/>
        <pt x="381" y="587" on="1"/>
        <pt x="98" y="53" on="1"/>
      </contour>
    </TTGlyph>
    <TTGlyph name="E" xMin="20" yMin="0" xMax="608" yMax="693">
      <contour>
        <pt x="549" y="179" on="1"/>
        <pt x="540" y="99" on="0"/>
        <pt x="507" y="0" on="1"/>
        <pt x="20" y="0" on="1"/>
        <pt x="20" y="39" on="1"/>
        <pt x="74" y="48" on="0"/>
        <pt x="102" y="70" on="0"/>
        <pt x="108" y="101" on="1"/>
        <pt x="194" y="592" on="1"/>
        <pt x="197" y="606" on="0"/>
        <pt x="197" y="631" on="0"/>
        <pt x="170" y="647" on="0"/>
        <pt x="129" y="654" on="1"/>
        <pt x="135" y="693" on="1"/>
        <pt x="608" y="693" on="1"/>
        <pt x="608" y="642" on="0"/>
        <pt x="585" y="537" on="1"/>
        <pt x="526" y="530" on="1"/>
        <pt x="525" y="599" on="0"/>
        <pt x="519" y="634" on="0"/>
        <pt x="511" y="635" on="1"/>
        <pt x="487" y="638" on="0"/>
        <pt x="451" y="639" on="1"/>
        <pt x="300" y="642" on="1"/>
        <pt x="253" y="373" on="1"/>
        <pt x="403" y="373" on="1"/>
        <pt x="411" y="373" on="0"/>
        <pt x="433" y="414" on="0"/>
        <pt x="447" y="444" on="1"/>
        <pt x="478" y="441" on="1"/>
        <pt x="461" y="347" on="0"/>
        <pt x="457" y="243" on="1"/>
        <pt x="420" y="237" on="1"/>
        <pt x="414" y="292" on="0"/>
        <pt x="407" y="320" on="0"/>
        <pt x="400" y="320" on="1"/>
        <pt x="243" y="320" on="1"/>
        <pt x="196" y="51" on="1"/>
        <pt x="285" y="52" on="1"/>
        <pt x="386" y="55" on="0"/>
        <pt x="420" y="62" on="0"/>
        <pt x="430" y="66" on="1"/>
        <pt x="448" y="71" on="0"/>
        <pt x="494" y="184" on="1"/>
      </contour>
    </TTGlyph>
    <TTGlyph name="Eacute" xMin="20" yMin="0" xMax="608" yMax="914">
      <contour>
        <pt x="569" y="842" on="1"/>
        <pt x="351" y="749" on="1"/>
        <pt x="327" y="785" on="1"/>
        <pt x="525" y="914" on="1"/>
        <pt x="581" y="863" on="1"/>
      </contour>
      <contour>
        <pt x="549" y="179" on="1"/>
        <pt x="540" y="99" on="0"/>
        <pt x="507" y="0" on="1"/>
        <pt x="20" y="0" on="1"/>
        <pt x="20" y="39" on="1"/>
        <pt x="74" y="48" on="0"/>
        <pt x="102" y="70" on="0"/>
        <pt x="108" y="101" on="1"/>
        <pt x="194" y="592" on="1"/>
        <pt x="197" y="606" on="0"/>
        <pt x="197" y="631" on="0"/>
        <pt x="170" y="647" on="0"/>
        <pt x="129" y="654" on="1"/>
        <pt x="135" y="693" on="1"/>
        <pt x="608" y="693" on="1"/>
        <pt x="608" y="642" on="0"/>
        <pt x="585" y="537" on="1"/>
        <pt x="526" y="530" on="1"/>
        <pt x="525" y="599" on="0"/>
        <pt x="519" y="634" on="0"/>
        <pt x="511" y="635" on="1"/>
        <pt x="487" y="638" on="0"/>
        <pt x="451" y="639" on="1"/>
        <pt x="300" y="642" on="1"/>
        <pt x="253" y="373" on="1"/>
        <pt x="403" y="373" on="1"/>
        <pt x="411" y="373" on="0"/>
        <pt x="433" y="414" on="0"/>
        <pt x="447" y="444" on="1"/>
        <pt x="478" y="441" on="1"/>
        <pt x="461" y="347" on="0"/>
        <pt x="457" y="243" on="1"/>
        <pt x="420" y="237" on="1"/>
        <pt x="414" y="292" on="0"/>
        <pt x="407" y="320" on="0"/>
        <pt x="400" y="320" on="1"/>
        <pt x="243" y="320" on="1"/>
        <pt x="196" y="51" on="1"/>
        <pt x="285" y="52" on="1"/>
        <pt x="386" y="55" on="0"/>
        <pt x="420" y="62" on="0"/>
        <pt x="430" y="66" on="1"/>
        <pt x="448" y="71" on="0"/>
        <pt x="494" y="184" on="1"/>
      </contour>
    </TTGlyph>
    <TTGlyph name="Ecaron" xMin="20" yMin="0" xMax="608" yMax="917">
      <contour>
        <pt x="580" y="891" on="1"/>
        <pt x="423" y="752" on="1"/>
        <pt x="367" y="752" on="1"/>
        <pt x="252" y="891" on="1"/>
        <pt x="282" y="917" on="1"/>
        <pt x="404" y="826" on="1"/>
        <pt x="560" y="917" on="1"/>
      </contour>
      <contour>
        <pt x="549" y="179" on="1"/>
        <pt x="540" y="99" on="0"/>
        <pt x="507" y="0" on="1"/>
        <pt x="20" y="0" on="1"/>
        <pt x="20" y="39" on="1"/>
        <pt x="74" y="48" on="0"/>
        <pt x="102" y="70" on="0"/>
        <pt x="108" y="101" on="1"/>
        <pt x="194" y="592" on="1"/>
        <pt x="197" y="606" on="0"/>
        <pt x="197" y="631" on="0"/>
        <pt x="170" y="647" on="0"/>
        <pt x="129" y="654" on="1"/>
        <pt x="135" y="693" on="1"/>
        <pt x="608" y="693" on="1"/>
        <pt x="608" y="642" on="0"/>
        <pt x="585" y="537" on="1"/>
        <pt x="526" y="530" on="1"/>
        <pt x="525" y="599" on="0"/>
        <pt x="519" y="634" on="0"/>
        <pt x="511" y="635" on="1"/>
        <pt x="487" y="638" on="0"/>
        <pt x="451" y="639" on="1"/>
        <pt x="300" y="642" on="1"/>
        <pt x="253" y="373" on="1"/>
        <pt x="403" y="373" on="1"/>
        <pt x="411" y="373" on="0"/>
        <pt x="433" y="414" on="0"/>
        <pt x="447" y="444" on="1"/>
        <pt x="478" y="441" on="1"/>
        <pt x="461" y="347" on="0"/>
        <pt x="457" y="243" on="1"/>
        <pt x="420" y="237" on="1"/>
        <pt x="414" y="292" on="0"/>
        <pt x="407" y="320" on="0"/>
        <pt x="400" y="320" on="1"/>
        <pt x="243" y="320" on="1"/>
        <pt x="196" y="51" on="1"/>
        <pt x="285" y="52" on="1"/>
        <pt x="386" y="55" on="0"/>
        <pt x="420" y="62" on="0"/>
        <pt x="430" y="66" on="1"/>
        <pt x="448" y="71" on="0"/>
        <pt x="494" y="184" on="1"/>
      </contour>
    </TTGlyph>
    <TTGlyph name="Ecircumflex" xMin="20" yMin="0" xMax="608" yMax="914">
      <contour>
        <pt x="579" y="775" on="1"/>
        <pt x="549" y="749" on="1"/>
        <pt x="427" y="840" on="1"/>
        <pt x="271" y="749" on="1"/>
        <pt x="251" y="775" on="1"/>
        <pt x="407" y="914" on="1"/>
        <pt x="463" y="914" on="1"/>
      </contour>
      <contour>
        <pt x="549" y="179" on="1"/>
        <pt x="540" y="99" on="0"/>
        <pt x="507" y="0" on="1"/>
        <pt x="20" y="0" on="1"/>
        <pt x="20" y="39" on="1"/>
        <pt x="74" y="48" on="0"/>
        <pt x="102" y="70" on="0"/>
        <pt x="108" y="101" on="1"/>
        <pt x="194" y="592" on="1"/>
        <pt x="197" y="606" on="0"/>
        <pt x="197" y="631" on="0"/>
        <pt x="170" y="647" on="0"/>
        <pt x="129" y="654" on="1"/>
        <pt x="135" y="693" on="1"/>
        <pt x="608" y="693" on="1"/>
        <pt x="608" y="642" on="0"/>
        <pt x="585" y="537" on="1"/>
        <pt x="526" y="530" on="1"/>
        <pt x="525" y="599" on="0"/>
        <pt x="519" y="634" on="0"/>
        <pt x="511" y="635" on="1"/>
        <pt x="487" y="638" on="0"/>
        <pt x="451" y="639" on="1"/>
        <pt x="300" y="642" on="1"/>
        <pt x="253" y="373" on="1"/>
        <pt x="403" y="373" on="1"/>
        <pt x="411" y="373" on="0"/>
        <pt x="433" y="414" on="0"/>
        <pt x="447" y="444" on="1"/>
        <pt x="478" y="441" on="1"/>
        <pt x="461" y="347" on="0"/>
        <pt x="457" y="243" on="1"/>
        <pt x="420" y="237" on="1"/>
        <pt x="414" y="292" on="0"/>
        <pt x="407" y="320" on="0"/>
        <pt x="400" y="320" on="1"/>
        <pt x="243" y="320" on="1"/>
        <pt x="196" y="51" on="1"/>
        <pt x="285" y="52" on="1"/>
        <pt x="386" y="55" on="0"/>
        <pt x="420" y="62" on="0"/>
        <pt x="430" y="66" on="1"/>
        <pt x="448" y="71" on="0"/>
        <pt x="494" y="184" on="1"/>
      </contour>
    </TTGlyph>
    <TTGlyph name="Edieresis" xMin="20" yMin="0" xMax="608" yMax="885">
      <contour>
        <pt x="505" y="775" on="1"/>
        <pt x="458" y="775" on="0"/>
        <pt x="458" y="821" on="1"/>
        <pt x="458" y="847" on="0"/>
        <pt x="494" y="885" on="0"/>
        <pt x="519" y="885" on="1"/>
        <pt x="566" y="885" on="0"/>
        <pt x="566" y="840" on="1"/>
        <pt x="566" y="814" on="0"/>
        <pt x="530" y="775" on="0"/>
      </contour>
      <contour>
        <pt x="312" y="775" on="1"/>
        <pt x="265" y="775" on="0"/>
        <pt x="265" y="821" on="1"/>
        <pt x="265" y="847" on="0"/>
        <pt x="301" y="885" on="0"/>
        <pt x="326" y="885" on="1"/>
        <pt x="373" y="885" on="0"/>
        <pt x="373" y="840" on="1"/>
        <pt x="373" y="814" on="0"/>
        <pt x="337" y="775" on="0"/>
      </contour>
      <contour>
        <pt x="549" y="179" on="1"/>
        <pt x="540" y="99" on="0"/>
        <pt x="507" y="0" on="1"/>
        <pt x="20" y="0" on="1"/>
        <pt x="20" y="39" on="1"/>
        <pt x="74" y="48" on="0"/>
        <pt x="102" y="70" on="0"/>
        <pt x="108" y="101" on="1"/>
        <pt x="194" y="592" on="1"/>
        <pt x="197" y="606" on="0"/>
        <pt x="197" y="631" on="0"/>
        <pt x="170" y="647" on="0"/>
        <pt x="129" y="654" on="1"/>
        <pt x="135" y="693" on="1"/>
        <pt x="608" y="693" on="1"/>
        <pt x="608" y="642" on="0"/>
        <pt x="585" y="537" on="1"/>
        <pt x="526" y="530" on="1"/>
        <pt x="525" y="599" on="0"/>
        <pt x="519" y="634" on="0"/>
        <pt x="511" y="635" on="1"/>
        <pt x="487" y="638" on="0"/>
        <pt x="451" y="639" on="1"/>
        <pt x="300" y="642" on="1"/>
        <pt x="253" y="373" on="1"/>
        <pt x="403" y="373" on="1"/>
        <pt x="411" y="373" on="0"/>
        <pt x="433" y="414" on="0"/>
        <pt x="447" y="444" on="1"/>
        <pt x="478" y="441" on="1"/>
        <pt x="461" y="347" on="0"/>
        <pt x="457" y="243" on="1"/>
        <pt x="420" y="237" on="1"/>
        <pt x="414" y="292" on="0"/>
        <pt x="407" y="320" on="0"/>
        <pt x="400" y="320" on="1"/>
        <pt x="243" y="320" on="1"/>
        <pt x="196" y="51" on="1"/>
        <pt x="285" y="52" on="1"/>
        <pt x="386" y="55" on="0"/>
        <pt x="420" y="62" on="0"/>
        <pt x="430" y="66" on="1"/>
        <pt x="448" y="71" on="0"/>
        <pt x="494" y="184" on="1"/>
      </contour>
    </TTGlyph>
    <TTGlyph name="Edotaccent" xMin="20" yMin="0" xMax="608" yMax="894">
      <contour>
        <pt x="433" y="894" on="0"/>
        <pt x="465" y="867" on="0"/>
        <pt x="465" y="816" on="0"/>
        <pt x="433" y="783" on="0"/>
        <pt x="407" y="783" on="1"/>
        <pt x="353" y="783" on="0"/>
        <pt x="353" y="839" on="1"/>
        <pt x="353" y="862" on="0"/>
        <pt x="382" y="894" on="0"/>
      </contour>
      <contour>
        <pt x="549" y="179" on="1"/>
        <pt x="540" y="99" on="0"/>
        <pt x="507" y="0" on="1"/>
        <pt x="20" y="0" on="1"/>
        <pt x="20" y="39" on="1"/>
        <pt x="74" y="48" on="0"/>
        <pt x="102" y="70" on="0"/>
        <pt x="108" y="101" on="1"/>
        <pt x="194" y="592" on="1"/>
        <pt x="197" y="606" on="0"/>
        <pt x="197" y="631" on="0"/>
        <pt x="170" y="647" on="0"/>
        <pt x="129" y="654" on="1"/>
        <pt x="135" y="693" on="1"/>
        <pt x="608" y="693" on="1"/>
        <pt x="608" y="642" on="0"/>
        <pt x="585" y="537" on="1"/>
        <pt x="526" y="530" on="1"/>
        <pt x="525" y="599" on="0"/>
        <pt x="519" y="634" on="0"/>
        <pt x="511" y="635" on="1"/>
        <pt x="487" y="638" on="0"/>
        <pt x="451" y="639" on="1"/>
        <pt x="300" y="642" on="1"/>
        <pt x="253" y="373" on="1"/>
        <pt x="403" y="373" on="1"/>
        <pt x="411" y="373" on="0"/>
        <pt x="433" y="414" on="0"/>
        <pt x="447" y="444" on="1"/>
        <pt x="478" y="441" on="1"/>
        <pt x="461" y="347" on="0"/>
        <pt x="457" y="243" on="1"/>
        <pt x="420" y="237" on="1"/>
        <pt x="414" y="292" on="0"/>
        <pt x="407" y="320" on="0"/>
        <pt x="400" y="320" on="1"/>
        <pt x="243" y="320" on="1"/>
        <pt x="196" y="51" on="1"/>
        <pt x="285" y="52" on="1"/>
        <pt x="386" y="55" on="0"/>
        <pt x="420" y="62" on="0"/>
        <pt x="430" y="66" on="1"/>
        <pt x="448" y="71" on="0"/>
        <pt x="494" y="184" on="1"/>
      </contour>
    </TTGlyph>
    <TTGlyph name="Egrave" xMin="20" yMin="0" xMax="608" yMax="914">
      <contour>
        <pt x="444" y="749" on="1"/>
        <pt x="260" y="842" on="1"/>
        <pt x="256" y="863" on="1"/>
        <pt x="320" y="914" on="1"/>
        <pt x="470" y="785" on="1"/>
      </contour>
      <contour>
        <pt x="549" y="179" on="1"/>
        <pt x="540" y="99" on="0"/>
        <pt x="507" y="0" on="1"/>
        <pt x="20" y="0" on="1"/>
        <pt x="20" y="39" on="1"/>
        <pt x="74" y="48" on="0"/>
        <pt x="102" y="70" on="0"/>
        <pt x="108" y="101" on="1"/>
        <pt x="194" y="592" on="1"/>
        <pt x="197" y="606" on="0"/>
        <pt x="197" y="631" on="0"/>
        <pt x="170" y="647" on="0"/>
        <pt x="129" y="654" on="1"/>
        <pt x="135" y="693" on="1"/>
        <pt x="608" y="693" on="1"/>
        <pt x="608" y="642" on="0"/>
        <pt x="585" y="537" on="1"/>
        <pt x="526" y="530" on="1"/>
        <pt x="525" y="599" on="0"/>
        <pt x="519" y="634" on="0"/>
        <pt x="511" y="635" on="1"/>
        <pt x="487" y="638" on="0"/>
        <pt x="451" y="639" on="1"/>
        <pt x="300" y="642" on="1"/>
        <pt x="253" y="373" on="1"/>
        <pt x="403" y="373" on="1"/>
        <pt x="411" y="373" on="0"/>
        <pt x="433" y="414" on="0"/>
        <pt x="447" y="444" on="1"/>
        <pt x="478" y="441" on="1"/>
        <pt x="461" y="347" on="0"/>
        <pt x="457" y="243" on="1"/>
        <pt x="420" y="237" on="1"/>
        <pt x="414" y="292" on="0"/>
        <pt x="407" y="320" on="0"/>
        <pt x="400" y="320" on="1"/>
        <pt x="243" y="320" on="1"/>
        <pt x="196" y="51" on="1"/>
        <pt x="285" y="52" on="1"/>
        <pt x="386" y="55" on="0"/>
        <pt x="420" y="62" on="0"/>
        <pt x="430" y="66" on="1"/>
        <pt x="448" y="71" on="0"/>
        <pt x="494" y="184" on="1"/>
      </contour>
    </TTGlyph>
    <TTGlyph name="Emacron" xMin="20" yMin="0" xMax="608" yMax="864">
      <contour>
        <pt x="536" y="804" on="1"/>
        <pt x="287" y="804" on="1"/>
        <pt x="298" y="864" on="1"/>
        <pt x="547" y="864" on="1"/>
      </contour>
      <contour>
        <pt x="549" y="179" on="1"/>
        <pt x="540" y="99" on="0"/>
        <pt x="507" y="0" on="1"/>
        <pt x="20" y="0" on="1"/>
        <pt x="20" y="39" on="1"/>
        <pt x="74" y="48" on="0"/>
        <pt x="102" y="70" on="0"/>
        <pt x="108" y="101" on="1"/>
        <pt x="194" y="592" on="1"/>
        <pt x="197" y="606" on="0"/>
        <pt x="197" y="631" on="0"/>
        <pt x="170" y="647" on="0"/>
        <pt x="129" y="654" on="1"/>
        <pt x="135" y="693" on="1"/>
        <pt x="608" y="693" on="1"/>
        <pt x="608" y="642" on="0"/>
        <pt x="585" y="537" on="1"/>
        <pt x="526" y="530" on="1"/>
        <pt x="525" y="599" on="0"/>
        <pt x="519" y="634" on="0"/>
        <pt x="511" y="635" on="1"/>
        <pt x="487" y="638" on="0"/>
        <pt x="451" y="639" on="1"/>
        <pt x="300" y="642" on="1"/>
        <pt x="253" y="373" on="1"/>
        <pt x="403" y="373" on="1"/>
        <pt x="411" y="373" on="0"/>
        <pt x="433" y="414" on="0"/>
        <pt x="447" y="444" on="1"/>
        <pt x="478" y="441" on="1"/>
        <pt x="461" y="347" on="0"/>
        <pt x="457" y="243" on="1"/>
        <pt x="420" y="237" on="1"/>
        <pt x="414" y="292" on="0"/>
        <pt x="407" y="320" on="0"/>
        <pt x="400" y="320" on="1"/>
        <pt x="243" y="320" on="1"/>
        <pt x="196" y="51" on="1"/>
        <pt x="285" y="52" on="1"/>
        <pt x="386" y="55" on="0"/>
        <pt x="420" y="62" on="0"/>
        <pt x="430" y="66" on="1"/>
        <pt x="448" y="71" on="0"/>
        <pt x="494" y="184" on="1"/>
      </contour>
    </TTGlyph>
    <TTGlyph name="Eng" xMin="21" yMin="-129" xMax="789" yMax="693">
      <contour>
        <pt x="518" y="21" on="1"/>
        <pt x="269" y="592" on="1"/>
        <pt x="261" y="592" on="1"/>
        <pt x="174" y="95" on="1"/>
        <pt x="172" y="85" on="0"/>
        <pt x="172" y="77" on="1"/>
        <pt x="172" y="52" on="0"/>
        <pt x="195" y="50" on="1"/>
        <pt x="278" y="39" on="1"/>
        <pt x="273" y="0" on="1"/>
        <pt x="21" y="0" on="1"/>
        <pt x="21" y="39" on="1"/>
        <pt x="75" y="48" on="0"/>
        <pt x="102" y="70" on="0"/>
        <pt x="108" y="101" on="1"/>
        <pt x="194" y="592" on="1"/>
        <pt x="197" y="606" on="0"/>
        <pt x="197" y="631" on="0"/>
        <pt x="170" y="647" on="0"/>
        <pt x="129" y="654" on="1"/>
        <pt x="135" y="693" on="1"/>
        <pt x="333" y="693" on="1"/>
        <pt x="548" y="189" on="1"/>
        <pt x="555" y="189" on="1"/>
        <pt x="624" y="580" on="1"/>
        <pt x="627" y="595" on="0"/>
        <pt x="627" y="624" on="0"/>
        <pt x="599" y="645" on="0"/>
        <pt x="570" y="651" on="0"/>
        <pt x="541" y="654" on="1"/>
        <pt x="547" y="693" on="1"/>
        <pt x="789" y="693" on="1"/>
        <pt x="786" y="654" on="1"/>
        <pt x="722" y="642" on="1"/>
        <pt x="705" y="638" on="0"/>
        <pt x="700" y="628" on="1"/>
        <pt x="699" y="624" on="0"/>
        <pt x="698" y="616" on="1"/>
        <pt x="615" y="149" on="1"/>
        <pt x="565" y="-129" on="0"/>
        <pt x="405" y="-129" on="1"/>
        <pt x="359" y="-129" on="0"/>
        <pt x="359" y="-106" on="1"/>
        <pt x="359" y="-80" on="0"/>
        <pt x="387" y="-22" on="0"/>
        <pt x="400" y="-22" on="1"/>
        <pt x="410" y="-22" on="0"/>
        <pt x="460" y="-35" on="0"/>
        <pt x="473" y="-35" on="1"/>
        <pt x="499" y="-35" on="0"/>
      </contour>
    </TTGlyph>
    <TTGlyph name="Eogonek" xMin="21" yMin="-215" xMax="608" yMax="693">
      <contour>
        <pt x="344" y="-116" on="1"/>
        <pt x="344" y="-159" on="0"/>
        <pt x="396" y="-159" on="1"/>
        <pt x="422" y="-159" on="0"/>
        <pt x="452" y="-149" on="1"/>
        <pt x="461" y="-169" on="1"/>
        <pt x="401" y="-215" on="0"/>
        <pt x="342" y="-215" on="1"/>
        <pt x="307" y="-215" on="0"/>
        <pt x="259" y="-172" on="0"/>
        <pt x="259" y="-100" on="0"/>
        <pt x="323" y="-23" on="0"/>
        <pt x="378" y="0" on="1"/>
        <pt x="21" y="0" on="1"/>
        <pt x="21" y="39" on="1"/>
        <pt x="75" y="48" on="0"/>
        <pt x="102" y="70" on="0"/>
        <pt x="108" y="101" on="1"/>
        <pt x="194" y="592" on="1"/>
        <pt x="197" y="606" on="0"/>
        <pt x="197" y="631" on="0"/>
        <pt x="170" y="647" on="0"/>
        <pt x="129" y="654" on="1"/>
        <pt x="135" y="693" on="1"/>
        <pt x="608" y="693" on="1"/>
        <pt x="608" y="642" on="0"/>
        <pt x="585" y="537" on="1"/>
        <pt x="526" y="530" on="1"/>
        <pt x="525" y="599" on="0"/>
        <pt x="519" y="634" on="0"/>
        <pt x="511" y="635" on="1"/>
        <pt x="487" y="638" on="0"/>
        <pt x="451" y="639" on="1"/>
        <pt x="300" y="642" on="1"/>
        <pt x="253" y="373" on="1"/>
        <pt x="403" y="373" on="1"/>
        <pt x="411" y="373" on="0"/>
        <pt x="433" y="414" on="0"/>
        <pt x="447" y="444" on="1"/>
        <pt x="478" y="441" on="1"/>
        <pt x="461" y="347" on="0"/>
        <pt x="457" y="243" on="1"/>
        <pt x="420" y="237" on="1"/>
        <pt x="414" y="292" on="0"/>
        <pt x="407" y="320" on="0"/>
        <pt x="400" y="320" on="1"/>
        <pt x="243" y="320" on="1"/>
        <pt x="196" y="52" on="1"/>
        <pt x="285" y="52" on="1"/>
        <pt x="386" y="55" on="0"/>
        <pt x="420" y="62" on="0"/>
        <pt x="430" y="66" on="1"/>
        <pt x="448" y="71" on="0"/>
        <pt x="494" y="184" on="1"/>
        <pt x="549" y="179" on="1"/>
        <pt x="540" y="99" on="0"/>
        <pt x="507" y="0" on="1"/>
        <pt x="442" y="-2" on="0"/>
        <pt x="344" y="-69" on="0"/>
      </contour>
    </TTGlyph>
    <TTGlyph name="Eth" xMin="22" yMin="0" xMax="703" yMax="693">
      <contour>
        <pt x="311" y="0" on="1"/>
        <pt x="22" y="0" on="1"/>
        <pt x="22" y="39" on="1"/>
        <pt x="76" y="48" on="0"/>
        <pt x="102" y="70" on="0"/>
        <pt x="108" y="101" on="1"/>
        <pt x="150" y="338" on="1"/>
        <pt x="49" y="338" on="1"/>
        <pt x="65" y="398" on="1"/>
        <pt x="160" y="398" on="1"/>
        <pt x="195" y="592" on="1"/>
        <pt x="198" y="607" on="0"/>
        <pt x="198" y="631" on="0"/>
        <pt x="171" y="647" on="0"/>
        <pt x="129" y="654" on="1"/>
        <pt x="135" y="693" on="1"/>
        <pt x="426" y="693" on="1"/>
        <pt x="499" y="693" on="0"/>
        <pt x="609" y="648" on="0"/>
        <pt x="640" y="610" on="1"/>
        <pt x="703" y="533" on="0"/>
        <pt x="703" y="424" on="1"/>
        <pt x="703" y="266" on="0"/>
        <pt x="612" y="139" on="1"/>
        <pt x="566" y="76" on="0"/>
        <pt x="410" y="0" on="0"/>
      </contour>
      <contour>
        <pt x="406" y="338" on="1"/>
        <pt x="246" y="338" on="1"/>
        <pt x="206" y="109" on="1"/>
        <pt x="203" y="88" on="0"/>
        <pt x="203" y="87" on="1"/>
        <pt x="203" y="71" on="0"/>
        <pt x="220" y="67" on="1"/>
        <pt x="287" y="53" on="0"/>
        <pt x="322" y="53" on="1"/>
        <pt x="453" y="53" on="0"/>
        <pt x="589" y="249" on="0"/>
        <pt x="589" y="405" on="1"/>
        <pt x="589" y="469" on="0"/>
        <pt x="552" y="566" on="0"/>
        <pt x="522" y="591" on="1"/>
        <pt x="463" y="640" on="0"/>
        <pt x="395" y="640" on="1"/>
        <pt x="300" y="640" on="1"/>
        <pt x="257" y="398" on="1"/>
        <pt x="422" y="398" on="1"/>
      </contour>
    </TTGlyph>
    <TTGlyph name="Euro" xMin="36" yMin="-9" xMax="622" yMax="676">
      <contour>
        <pt x="602" y="480" on="1"/>
        <pt x="544" y="472" on="1"/>
        <pt x="539" y="582" on="0"/>
        <pt x="523" y="600" on="1"/>
        <pt x="517" y="607" on="0"/>
        <pt x="459" y="623" on="0"/>
        <pt x="430" y="623" on="1"/>
        <pt x="350" y="623" on="0"/>
        <pt x="248" y="511" on="0"/>
        <pt x="227" y="419" on="1"/>
        <pt x="453" y="419" on="1"/>
        <pt x="443" y="368" on="1"/>
        <pt x="48" y="368" on="1"/>
        <pt x="58" y="419" on="1"/>
        <pt x="118" y="419" on="1"/>
        <pt x="150" y="531" on="0"/>
        <pt x="316" y="676" on="0"/>
        <pt x="455" y="676" on="1"/>
        <pt x="503" y="676" on="0"/>
        <pt x="606" y="656" on="0"/>
        <pt x="622" y="648" on="1"/>
        <pt x="622" y="582" on="0"/>
      </contour>
      <contour>
        <pt x="518" y="200" on="1"/>
        <pt x="573" y="198" on="1"/>
        <pt x="565" y="113" on="0"/>
        <pt x="549" y="36" on="1"/>
        <pt x="517" y="19" on="0"/>
        <pt x="400" y="-9" on="0"/>
        <pt x="342" y="-9" on="1"/>
        <pt x="233" y="-9" on="0"/>
        <pt x="108" y="133" on="0"/>
        <pt x="101" y="246" on="1"/>
        <pt x="36" y="246" on="1"/>
        <pt x="45" y="297" on="1"/>
        <pt x="430" y="297" on="1"/>
        <pt x="421" y="246" on="1"/>
        <pt x="215" y="246" on="1"/>
        <pt x="223" y="146" on="0"/>
        <pt x="314" y="47" on="0"/>
        <pt x="376" y="47" on="1"/>
        <pt x="405" y="47" on="0"/>
        <pt x="456" y="65" on="0"/>
        <pt x="481" y="83" on="0"/>
      </contour>
    </TTGlyph>
    <TTGlyph name="Euro.tab" xMin="29" yMin="-9" xMax="531" yMax="676">
      <contour>
        <pt x="511" y="480" on="1"/>
        <pt x="453" y="472" on="1"/>
        <pt x="448" y="582" on="0"/>
        <pt x="432" y="600" on="1"/>
        <pt x="427" y="607" on="0"/>
        <pt x="384" y="623" on="0"/>
        <pt x="363" y="623" on="1"/>
        <pt x="299" y="623" on="0"/>
        <pt x="217" y="511" on="0"/>
        <pt x="202" y="419" on="1"/>
        <pt x="398" y="419" on="1"/>
        <pt x="388" y="368" on="1"/>
        <pt x="41" y="368" on="1"/>
        <pt x="51" y="419" on="1"/>
        <pt x="94" y="419" on="1"/>
        <pt x="123" y="531" on="0"/>
        <pt x="267" y="676" on="0"/>
        <pt x="388" y="676" on="1"/>
        <pt x="429" y="676" on="0"/>
        <pt x="518" y="656" on="0"/>
        <pt x="531" y="648" on="1"/>
        <pt x="531" y="582" on="0"/>
      </contour>
      <contour>
        <pt x="424" y="200" on="1"/>
        <pt x="479" y="198" on="1"/>
        <pt x="471" y="113" on="0"/>
        <pt x="455" y="36" on="1"/>
        <pt x="429" y="19" on="0"/>
        <pt x="328" y="-9" on="0"/>
        <pt x="278" y="-9" on="1"/>
        <pt x="187" y="-9" on="0"/>
        <pt x="82" y="133" on="0"/>
        <pt x="76" y="246" on="1"/>
        <pt x="29" y="246" on="1"/>
        <pt x="38" y="297" on="1"/>
        <pt x="375" y="297" on="1"/>
        <pt x="366" y="246" on="1"/>
        <pt x="191" y="246" on="1"/>
        <pt x="198" y="146" on="0"/>
        <pt x="263" y="47" on="0"/>
        <pt x="308" y="47" on="1"/>
        <pt x="329" y="47" on="0"/>
        <pt x="366" y="65" on="0"/>
        <pt x="372" y="72" on="1"/>
        <pt x="387" y="83" on="0"/>
      </contour>
    </TTGlyph>
    <TTGlyph name="F" xMin="20" yMin="0" xMax="608" yMax="693">
      <contour>
        <pt x="310" y="0" on="1"/>
        <pt x="20" y="0" on="1"/>
        <pt x="20" y="39" on="1"/>
        <pt x="74" y="48" on="0"/>
        <pt x="102" y="70" on="0"/>
        <pt x="108" y="101" on="1"/>
        <pt x="194" y="592" on="1"/>
        <pt x="197" y="606" on="0"/>
        <pt x="197" y="631" on="0"/>
        <pt x="170" y="647" on="0"/>
        <pt x="129" y="654" on="1"/>
        <pt x="135" y="693" on="1"/>
        <pt x="608" y="693" on="1"/>
        <pt x="608" y="642" on="0"/>
        <pt x="585" y="537" on="1"/>
        <pt x="526" y="530" on="1"/>
        <pt x="525" y="599" on="0"/>
        <pt x="519" y="634" on="0"/>
        <pt x="511" y="635" on="1"/>
        <pt x="487" y="638" on="0"/>
        <pt x="451" y="639" on="1"/>
        <pt x="300" y="642" on="1"/>
        <pt x="251" y="364" on="1"/>
        <pt x="405" y="364" on="1"/>
        <pt x="430" y="364" on="0"/>
        <pt x="462" y="435" on="1"/>
        <pt x="492" y="432" on="1"/>
        <pt x="475" y="338" on="0"/>
        <pt x="471" y="234" on="1"/>
        <pt x="434" y="228" on="1"/>
        <pt x="425" y="311" on="0"/>
        <pt x="403" y="311" on="1"/>
        <pt x="242" y="311" on="1"/>
        <pt x="204" y="95" on="1"/>
        <pt x="202" y="85" on="0"/>
        <pt x="202" y="77" on="1"/>
        <pt x="202" y="52" on="0"/>
        <pt x="225" y="50" on="1"/>
        <pt x="315" y="39" on="1"/>
      </contour>
    </TTGlyph>
    <TTGlyph name="G" xMin="60" yMin="-9" xMax="640" yMax="702">
      <contour>
        <pt x="443" y="63" on="1"/>
        <pt x="463" y="202" on="1"/>
        <pt x="465" y="218" on="0"/>
        <pt x="465" y="240" on="0"/>
        <pt x="438" y="257" on="0"/>
        <pt x="396" y="264" on="1"/>
        <pt x="407" y="303" on="1"/>
        <pt x="640" y="303" on="1"/>
        <pt x="640" y="264" on="1"/>
        <pt x="587" y="252" on="1"/>
        <pt x="567" y="248" on="0"/>
        <pt x="563" y="226" on="1"/>
        <pt x="536" y="37" on="1"/>
        <pt x="503" y="20" on="0"/>
        <pt x="382" y="-9" on="0"/>
        <pt x="321" y="-9" on="1"/>
        <pt x="192" y="-9" on="0"/>
        <pt x="60" y="154" on="0"/>
        <pt x="60" y="398" on="0"/>
        <pt x="110" y="501" on="1"/>
        <pt x="139" y="559" on="0"/>
        <pt x="223" y="646" on="0"/>
        <pt x="358" y="702" on="0"/>
        <pt x="493" y="702" on="0"/>
        <pt x="604" y="682" on="0"/>
        <pt x="620" y="674" on="1"/>
        <pt x="620" y="607" on="0"/>
        <pt x="601" y="506" on="1"/>
        <pt x="543" y="498" on="1"/>
        <pt x="536" y="614" on="0"/>
        <pt x="522" y="626" on="1"/>
        <pt x="515" y="633" on="0"/>
        <pt x="450" y="649" on="0"/>
        <pt x="418" y="649" on="1"/>
        <pt x="336" y="649" on="0"/>
        <pt x="279" y="597" on="1"/>
        <pt x="174" y="501" on="0"/>
        <pt x="174" y="290" on="1"/>
        <pt x="174" y="172" on="0"/>
        <pt x="279" y="47" on="0"/>
        <pt x="358" y="47" on="1"/>
        <pt x="405" y="47" on="0"/>
      </contour>
    </TTGlyph>
    <TTGlyph name="Gbreve" xMin="60" yMin="-9" xMax="640" yMax="900">
      <contour>
        <pt x="602" y="900" on="1"/>
        <pt x="639" y="900" on="1"/>
        <pt x="624" y="838" on="0"/>
        <pt x="535" y="760" on="0"/>
        <pt x="401" y="760" on="0"/>
        <pt x="340" y="824" on="0"/>
        <pt x="340" y="876" on="1"/>
        <pt x="340" y="892" on="0"/>
        <pt x="341" y="900" on="1"/>
        <pt x="378" y="900" on="1"/>
        <pt x="381" y="828" on="0"/>
        <pt x="571" y="828" on="0"/>
      </contour>
      <contour>
        <pt x="443" y="63" on="1"/>
        <pt x="463" y="202" on="1"/>
        <pt x="465" y="218" on="0"/>
        <pt x="465" y="240" on="0"/>
        <pt x="438" y="257" on="0"/>
        <pt x="396" y="264" on="1"/>
        <pt x="407" y="303" on="1"/>
        <pt x="640" y="303" on="1"/>
        <pt x="640" y="264" on="1"/>
        <pt x="587" y="252" on="1"/>
        <pt x="567" y="248" on="0"/>
        <pt x="563" y="226" on="1"/>
        <pt x="536" y="37" on="1"/>
        <pt x="503" y="20" on="0"/>
        <pt x="382" y="-9" on="0"/>
        <pt x="321" y="-9" on="1"/>
        <pt x="192" y="-9" on="0"/>
        <pt x="60" y="154" on="0"/>
        <pt x="60" y="398" on="0"/>
        <pt x="110" y="501" on="1"/>
        <pt x="139" y="559" on="0"/>
        <pt x="223" y="646" on="0"/>
        <pt x="358" y="702" on="0"/>
        <pt x="493" y="702" on="0"/>
        <pt x="604" y="682" on="0"/>
        <pt x="620" y="674" on="1"/>
        <pt x="620" y="607" on="0"/>
        <pt x="601" y="506" on="1"/>
        <pt x="543" y="498" on="1"/>
        <pt x="536" y="614" on="0"/>
        <pt x="522" y="626" on="1"/>
        <pt x="515" y="633" on="0"/>
        <pt x="450" y="649" on="0"/>
        <pt x="418" y="649" on="1"/>
        <pt x="336" y="649" on="0"/>
        <pt x="279" y="597" on="1"/>
        <pt x="174" y="501" on="0"/>
        <pt x="174" y="290" on="1"/>
        <pt x="174" y="172" on="0"/>
        <pt x="279" y="47" on="0"/>
        <pt x="358" y="47" on="1"/>
        <pt x="405" y="47" on="0"/>
      </contour>
    </TTGlyph>
    <TTGlyph name="Gcaron" xMin="60" yMin="-9" xMax="640" yMax="917">
      <contour>
        <pt x="633" y="891" on="1"/>
        <pt x="476" y="752" on="1"/>
        <pt x="420" y="752" on="1"/>
        <pt x="305" y="891" on="1"/>
        <pt x="335" y="917" on="1"/>
        <pt x="457" y="826" on="1"/>
        <pt x="613" y="917" on="1"/>
      </contour>
      <contour>
        <pt x="443" y="63" on="1"/>
        <pt x="463" y="202" on="1"/>
        <pt x="465" y="218" on="0"/>
        <pt x="465" y="240" on="0"/>
        <pt x="438" y="257" on="0"/>
        <pt x="396" y="264" on="1"/>
        <pt x="407" y="303" on="1"/>
        <pt x="640" y="303" on="1"/>
        <pt x="640" y="264" on="1"/>
        <pt x="587" y="252" on="1"/>
        <pt x="567" y="248" on="0"/>
        <pt x="563" y="226" on="1"/>
        <pt x="536" y="37" on="1"/>
        <pt x="503" y="20" on="0"/>
        <pt x="382" y="-9" on="0"/>
        <pt x="321" y="-9" on="1"/>
        <pt x="192" y="-9" on="0"/>
        <pt x="60" y="154" on="0"/>
        <pt x="60" y="398" on="0"/>
        <pt x="110" y="501" on="1"/>
        <pt x="139" y="559" on="0"/>
        <pt x="223" y="646" on="0"/>
        <pt x="358" y="702" on="0"/>
        <pt x="493" y="702" on="0"/>
        <pt x="604" y="682" on="0"/>
        <pt x="620" y="674" on="1"/>
        <pt x="620" y="607" on="0"/>
        <pt x="601" y="506" on="1"/>
        <pt x="543" y="498" on="1"/>
        <pt x="536" y="614" on="0"/>
        <pt x="522" y="626" on="1"/>
        <pt x="515" y="633" on="0"/>
        <pt x="450" y="649" on="0"/>
        <pt x="418" y="649" on="1"/>
        <pt x="336" y="649" on="0"/>
        <pt x="279" y="597" on="1"/>
        <pt x="174" y="501" on="0"/>
        <pt x="174" y="290" on="1"/>
        <pt x="174" y="172" on="0"/>
        <pt x="279" y="47" on="0"/>
        <pt x="358" y="47" on="1"/>
        <pt x="405" y="47" on="0"/>
      </contour>
    </TTGlyph>
    <TTGlyph name="Gcircumflex" xMin="60" yMin="-9" xMax="640" yMax="914">
      <contour>
        <pt x="624" y="775" on="1"/>
        <pt x="594" y="749" on="1"/>
        <pt x="472" y="840" on="1"/>
        <pt x="316" y="749" on="1"/>
        <pt x="296" y="775" on="1"/>
        <pt x="452" y="914" on="1"/>
        <pt x="508" y="914" on="1"/>
      </contour>
      <contour>
        <pt x="443" y="63" on="1"/>
        <pt x="463" y="202" on="1"/>
        <pt x="465" y="218" on="0"/>
        <pt x="465" y="240" on="0"/>
        <pt x="438" y="257" on="0"/>
        <pt x="396" y="264" on="1"/>
        <pt x="407" y="303" on="1"/>
        <pt x="640" y="303" on="1"/>
        <pt x="640" y="264" on="1"/>
        <pt x="587" y="252" on="1"/>
        <pt x="567" y="248" on="0"/>
        <pt x="563" y="226" on="1"/>
        <pt x="536" y="37" on="1"/>
        <pt x="503" y="20" on="0"/>
        <pt x="382" y="-9" on="0"/>
        <pt x="321" y="-9" on="1"/>
        <pt x="192" y="-9" on="0"/>
        <pt x="60" y="154" on="0"/>
        <pt x="60" y="398" on="0"/>
        <pt x="110" y="501" on="1"/>
        <pt x="139" y="559" on="0"/>
        <pt x="223" y="646" on="0"/>
        <pt x="358" y="702" on="0"/>
        <pt x="493" y="702" on="0"/>
        <pt x="604" y="682" on="0"/>
        <pt x="620" y="674" on="1"/>
        <pt x="620" y="607" on="0"/>
        <pt x="601" y="506" on="1"/>
        <pt x="543" y="498" on="1"/>
        <pt x="536" y="614" on="0"/>
        <pt x="522" y="626" on="1"/>
        <pt x="515" y="633" on="0"/>
        <pt x="450" y="649" on="0"/>
        <pt x="418" y="649" on="1"/>
        <pt x="336" y="649" on="0"/>
        <pt x="279" y="597" on="1"/>
        <pt x="174" y="501" on="0"/>
        <pt x="174" y="290" on="1"/>
        <pt x="174" y="172" on="0"/>
        <pt x="279" y="47" on="0"/>
        <pt x="358" y="47" on="1"/>
        <pt x="405" y="47" on="0"/>
      </contour>
    </TTGlyph>
    <TTGlyph name="Gcommaaccent" xMin="60" yMin="-210" xMax="640" yMax="702">
      <contour>
        <pt x="443" y="63" on="1"/>
        <pt x="463" y="202" on="1"/>
        <pt x="465" y="218" on="0"/>
        <pt x="465" y="240" on="0"/>
        <pt x="438" y="257" on="0"/>
        <pt x="396" y="264" on="1"/>
        <pt x="407" y="303" on="1"/>
        <pt x="640" y="303" on="1"/>
        <pt x="640" y="264" on="1"/>
        <pt x="587" y="252" on="1"/>
        <pt x="567" y="248" on="0"/>
        <pt x="563" y="226" on="1"/>
        <pt x="536" y="37" on="1"/>
        <pt x="503" y="20" on="0"/>
        <pt x="382" y="-9" on="0"/>
        <pt x="321" y="-9" on="1"/>
        <pt x="192" y="-9" on="0"/>
        <pt x="60" y="154" on="0"/>
        <pt x="60" y="398" on="0"/>
        <pt x="110" y="501" on="1"/>
        <pt x="139" y="559" on="0"/>
        <pt x="223" y="646" on="0"/>
        <pt x="358" y="702" on="0"/>
        <pt x="493" y="702" on="0"/>
        <pt x="604" y="682" on="0"/>
        <pt x="620" y="674" on="1"/>
        <pt x="620" y="607" on="0"/>
        <pt x="601" y="506" on="1"/>
        <pt x="543" y="498" on="1"/>
        <pt x="536" y="614" on="0"/>
        <pt x="522" y="626" on="1"/>
        <pt x="515" y="633" on="0"/>
        <pt x="450" y="649" on="0"/>
        <pt x="418" y="649" on="1"/>
        <pt x="336" y="649" on="0"/>
        <pt x="279" y="597" on="1"/>
        <pt x="174" y="501" on="0"/>
        <pt x="174" y="290" on="1"/>
        <pt x="174" y="172" on="0"/>
        <pt x="279" y="47" on="0"/>
        <pt x="358" y="47" on="1"/>
        <pt x="405" y="47" on="0"/>
      </contour>
      <contour>
        <pt x="251" y="-210" on="1"/>
        <pt x="230" y="-185" on="1"/>
        <pt x="287" y="-149" on="0"/>
        <pt x="287" y="-117" on="1"/>
        <pt x="287" y="-108" on="0"/>
        <pt x="274" y="-80" on="0"/>
        <pt x="274" y="-48" on="0"/>
        <pt x="303" y="-21" on="0"/>
        <pt x="343" y="-21" on="0"/>
        <pt x="369" y="-50" on="0"/>
        <pt x="369" y="-108" on="0"/>
        <pt x="307" y="-181" on="0"/>
      </contour>
    </TTGlyph>
    <TTGlyph name="Gdotaccent" xMin="60" yMin="-9" xMax="640" yMax="894">
      <contour>
        <pt x="497" y="894" on="0"/>
        <pt x="529" y="867" on="0"/>
        <pt x="529" y="816" on="0"/>
        <pt x="497" y="783" on="0"/>
        <pt x="471" y="783" on="1"/>
        <pt x="417" y="783" on="0"/>
        <pt x="417" y="839" on="1"/>
        <pt x="417" y="862" on="0"/>
        <pt x="446" y="894" on="0"/>
      </contour>
      <contour>
        <pt x="443" y="63" on="1"/>
        <pt x="463" y="202" on="1"/>
        <pt x="465" y="218" on="0"/>
        <pt x="465" y="240" on="0"/>
        <pt x="438" y="257" on="0"/>
        <pt x="396" y="264" on="1"/>
        <pt x="407" y="303" on="1"/>
        <pt x="640" y="303" on="1"/>
        <pt x="640" y="264" on="1"/>
        <pt x="587" y="252" on="1"/>
        <pt x="567" y="248" on="0"/>
        <pt x="563" y="226" on="1"/>
        <pt x="536" y="37" on="1"/>
        <pt x="503" y="20" on="0"/>
        <pt x="382" y="-9" on="0"/>
        <pt x="321" y="-9" on="1"/>
        <pt x="192" y="-9" on="0"/>
        <pt x="60" y="154" on="0"/>
        <pt x="60" y="398" on="0"/>
        <pt x="110" y="501" on="1"/>
        <pt x="139" y="559" on="0"/>
        <pt x="223" y="646" on="0"/>
        <pt x="358" y="702" on="0"/>
        <pt x="493" y="702" on="0"/>
        <pt x="604" y="682" on="0"/>
        <pt x="620" y="674" on="1"/>
        <pt x="620" y="607" on="0"/>
        <pt x="601" y="506" on="1"/>
        <pt x="543" y="498" on="1"/>
        <pt x="536" y="614" on="0"/>
        <pt x="522" y="626" on="1"/>
        <pt x="515" y="633" on="0"/>
        <pt x="450" y="649" on="0"/>
        <pt x="418" y="649" on="1"/>
        <pt x="336" y="649" on="0"/>
        <pt x="279" y="597" on="1"/>
        <pt x="174" y="501" on="0"/>
        <pt x="174" y="290" on="1"/>
        <pt x="174" y="172" on="0"/>
        <pt x="279" y="47" on="0"/>
        <pt x="358" y="47" on="1"/>
        <pt x="405" y="47" on="0"/>
      </contour>
    </TTGlyph>
    <TTGlyph name="H" xMin="22" yMin="0" xMax="796" yMax="693">
      <contour>
        <pt x="680" y="0" on="1"/>
        <pt x="431" y="0" on="1"/>
        <pt x="431" y="39" on="1"/>
        <pt x="485" y="48" on="0"/>
        <pt x="511" y="70" on="0"/>
        <pt x="517" y="101" on="1"/>
        <pt x="557" y="327" on="1"/>
        <pt x="245" y="327" on="1"/>
        <pt x="205" y="103" on="1"/>
        <pt x="202" y="91" on="0"/>
        <pt x="202" y="54" on="0"/>
        <pt x="225" y="49" on="1"/>
        <pt x="276" y="39" on="1"/>
        <pt x="271" y="0" on="1"/>
        <pt x="22" y="0" on="1"/>
        <pt x="22" y="39" on="1"/>
        <pt x="76" y="48" on="0"/>
        <pt x="102" y="70" on="0"/>
        <pt x="108" y="101" on="1"/>
        <pt x="194" y="592" on="1"/>
        <pt x="197" y="606" on="0"/>
        <pt x="197" y="631" on="0"/>
        <pt x="170" y="647" on="0"/>
        <pt x="129" y="654" on="1"/>
        <pt x="135" y="693" on="1"/>
        <pt x="387" y="693" on="1"/>
        <pt x="384" y="654" on="1"/>
        <pt x="320" y="642" on="1"/>
        <pt x="303" y="638" on="0"/>
        <pt x="298" y="628" on="1"/>
        <pt x="297" y="624" on="0"/>
        <pt x="296" y="616" on="1"/>
        <pt x="255" y="387" on="1"/>
        <pt x="567" y="387" on="1"/>
        <pt x="603" y="592" on="1"/>
        <pt x="606" y="606" on="0"/>
        <pt x="606" y="631" on="0"/>
        <pt x="579" y="647" on="0"/>
        <pt x="538" y="654" on="1"/>
        <pt x="544" y="693" on="1"/>
        <pt x="796" y="693" on="1"/>
        <pt x="793" y="654" on="1"/>
        <pt x="729" y="642" on="1"/>
        <pt x="712" y="638" on="0"/>
        <pt x="708" y="628" on="1"/>
        <pt x="706" y="624" on="0"/>
        <pt x="705" y="616" on="1"/>
        <pt x="614" y="101" on="1"/>
        <pt x="611" y="83" on="0"/>
        <pt x="611" y="78" on="1"/>
        <pt x="611" y="55" on="0"/>
        <pt x="631" y="50" on="1"/>
        <pt x="685" y="39" on="1"/>
      </contour>
    </TTGlyph>
    <TTGlyph name="H22073" xMin="81" yMin="0" xMax="919" yMax="838">
      <contour>
        <pt x="919" y="0" on="1"/>
        <pt x="81" y="0" on="1"/>
        <pt x="81" y="838" on="1"/>
        <pt x="919" y="838" on="1"/>
      </contour>
      <contour>
        <pt x="859" y="60" on="1"/>
        <pt x="859" y="778" on="1"/>
        <pt x="141" y="778" on="1"/>
        <pt x="141" y="60" on="1"/>
      </contour>
    </TTGlyph>
    <TTGlyph name="Hbar" xMin="22" yMin="0" xMax="796" yMax="693">
      <contour>
        <pt x="680" y="0" on="1"/>
        <pt x="431" y="0" on="1"/>
        <pt x="431" y="39" on="1"/>
        <pt x="485" y="48" on="0"/>
        <pt x="511" y="70" on="0"/>
        <pt x="517" y="101" on="1"/>
        <pt x="557" y="327" on="1"/>
        <pt x="245" y="327" on="1"/>
        <pt x="205" y="103" on="1"/>
        <pt x="202" y="91" on="0"/>
        <pt x="202" y="54" on="0"/>
        <pt x="225" y="49" on="1"/>
        <pt x="276" y="39" on="1"/>
        <pt x="271" y="0" on="1"/>
        <pt x="22" y="0" on="1"/>
        <pt x="22" y="39" on="1"/>
        <pt x="76" y="48" on="0"/>
        <pt x="102" y="70" on="0"/>
        <pt x="108" y="101" on="1"/>
        <pt x="173" y="473" on="1"/>
        <pt x="78" y="473" on="1"/>
        <pt x="94" y="533" on="1"/>
        <pt x="184" y="533" on="1"/>
        <pt x="194" y="592" on="1"/>
        <pt x="197" y="606" on="0"/>
        <pt x="197" y="631" on="0"/>
        <pt x="170" y="647" on="0"/>
        <pt x="129" y="654" on="1"/>
        <pt x="135" y="693" on="1"/>
        <pt x="387" y="693" on="1"/>
        <pt x="384" y="654" on="1"/>
        <pt x="320" y="642" on="1"/>
        <pt x="303" y="638" on="0"/>
        <pt x="298" y="628" on="1"/>
        <pt x="297" y="624" on="0"/>
        <pt x="296" y="616" on="1"/>
        <pt x="281" y="533" on="1"/>
        <pt x="593" y="533" on="1"/>
        <pt x="603" y="592" on="1"/>
        <pt x="606" y="606" on="0"/>
        <pt x="606" y="631" on="0"/>
        <pt x="579" y="647" on="0"/>
        <pt x="538" y="654" on="1"/>
        <pt x="544" y="693" on="1"/>
        <pt x="796" y="693" on="1"/>
        <pt x="793" y="654" on="1"/>
        <pt x="729" y="642" on="1"/>
        <pt x="712" y="638" on="0"/>
        <pt x="708" y="628" on="1"/>
        <pt x="706" y="624" on="0"/>
        <pt x="705" y="616" on="1"/>
        <pt x="690" y="533" on="1"/>
        <pt x="791" y="533" on="1"/>
        <pt x="775" y="473" on="1"/>
        <pt x="680" y="473" on="1"/>
        <pt x="614" y="101" on="1"/>
        <pt x="611" y="83" on="0"/>
        <pt x="611" y="78" on="1"/>
        <pt x="611" y="55" on="0"/>
        <pt x="631" y="50" on="1"/>
        <pt x="685" y="39" on="1"/>
      </contour>
      <contour>
        <pt x="567" y="387" on="1"/>
        <pt x="582" y="473" on="1"/>
        <pt x="270" y="473" on="1"/>
        <pt x="255" y="387" on="1"/>
      </contour>
    </TTGlyph>
    <TTGlyph name="Hcircumflex" xMin="22" yMin="0" xMax="796" yMax="914">
      <contour>
        <pt x="643" y="775" on="1"/>
        <pt x="613" y="749" on="1"/>
        <pt x="491" y="840" on="1"/>
        <pt x="335" y="749" on="1"/>
        <pt x="315" y="775" on="1"/>
        <pt x="471" y="914" on="1"/>
        <pt x="527" y="914" on="1"/>
      </contour>
      <contour>
        <pt x="680" y="0" on="1"/>
        <pt x="431" y="0" on="1"/>
        <pt x="431" y="39" on="1"/>
        <pt x="485" y="48" on="0"/>
        <pt x="511" y="70" on="0"/>
        <pt x="517" y="101" on="1"/>
        <pt x="557" y="327" on="1"/>
        <pt x="245" y="327" on="1"/>
        <pt x="205" y="103" on="1"/>
        <pt x="202" y="91" on="0"/>
        <pt x="202" y="54" on="0"/>
        <pt x="225" y="49" on="1"/>
        <pt x="276" y="39" on="1"/>
        <pt x="271" y="0" on="1"/>
        <pt x="22" y="0" on="1"/>
        <pt x="22" y="39" on="1"/>
        <pt x="76" y="48" on="0"/>
        <pt x="102" y="70" on="0"/>
        <pt x="108" y="101" on="1"/>
        <pt x="194" y="592" on="1"/>
        <pt x="197" y="606" on="0"/>
        <pt x="197" y="631" on="0"/>
        <pt x="170" y="647" on="0"/>
        <pt x="129" y="654" on="1"/>
        <pt x="135" y="693" on="1"/>
        <pt x="387" y="693" on="1"/>
        <pt x="384" y="654" on="1"/>
        <pt x="320" y="642" on="1"/>
        <pt x="303" y="638" on="0"/>
        <pt x="298" y="628" on="1"/>
        <pt x="297" y="624" on="0"/>
        <pt x="296" y="616" on="1"/>
        <pt x="255" y="387" on="1"/>
        <pt x="567" y="387" on="1"/>
        <pt x="603" y="592" on="1"/>
        <pt x="606" y="606" on="0"/>
        <pt x="606" y="631" on="0"/>
        <pt x="579" y="647" on="0"/>
        <pt x="538" y="654" on="1"/>
        <pt x="544" y="693" on="1"/>
        <pt x="796" y="693" on="1"/>
        <pt x="793" y="654" on="1"/>
        <pt x="729" y="642" on="1"/>
        <pt x="712" y="638" on="0"/>
        <pt x="708" y="628" on="1"/>
        <pt x="706" y="624" on="0"/>
        <pt x="705" y="616" on="1"/>
        <pt x="614" y="101" on="1"/>
        <pt x="611" y="83" on="0"/>
        <pt x="611" y="78" on="1"/>
        <pt x="611" y="55" on="0"/>
        <pt x="631" y="50" on="1"/>
        <pt x="685" y="39" on="1"/>
      </contour>
    </TTGlyph>
    <TTGlyph name="I" xMin="22" yMin="0" xMax="388" yMax="693">
      <contour>
        <pt x="195" y="592" on="1"/>
        <pt x="198" y="615" on="1"/>
        <pt x="198" y="631" on="0"/>
        <pt x="171" y="647" on="0"/>
        <pt x="130" y="654" on="1"/>
        <pt x="136" y="693" on="1"/>
        <pt x="388" y="693" on="1"/>
        <pt x="385" y="654" on="1"/>
        <pt x="321" y="642" on="1"/>
        <pt x="300" y="638" on="0"/>
        <pt x="296" y="616" on="1"/>
        <pt x="205" y="102" on="1"/>
        <pt x="202" y="86" on="0"/>
        <pt x="202" y="76" on="1"/>
        <pt x="202" y="53" on="0"/>
        <pt x="229" y="48" on="1"/>
        <pt x="276" y="39" on="1"/>
        <pt x="271" y="0" on="1"/>
        <pt x="22" y="0" on="1"/>
        <pt x="22" y="39" on="1"/>
        <pt x="76" y="48" on="0"/>
        <pt x="102" y="70" on="0"/>
        <pt x="108" y="101" on="1"/>
      </contour>
    </TTGlyph>
    <TTGlyph name="IJ" xMin="22" yMin="-129" xMax="737" yMax="693">
      <contour>
        <pt x="467" y="210" on="1"/>
        <pt x="534" y="592" on="1"/>
        <pt x="536" y="604" on="0"/>
        <pt x="536" y="609" on="1"/>
        <pt x="536" y="628" on="0"/>
        <pt x="504" y="646" on="0"/>
        <pt x="459" y="654" on="1"/>
        <pt x="465" y="693" on="1"/>
        <pt x="737" y="693" on="1"/>
        <pt x="734" y="654" on="1"/>
        <pt x="660" y="642" on="1"/>
        <pt x="639" y="638" on="0"/>
        <pt x="637" y="622" on="1"/>
        <pt x="568" y="234" on="1"/>
        <pt x="538" y="64" on="0"/>
        <pt x="409" y="-129" on="0"/>
        <pt x="313" y="-129" on="1"/>
        <pt x="267" y="-129" on="0"/>
        <pt x="267" y="-106" on="1"/>
        <pt x="267" y="-80" on="0"/>
        <pt x="295" y="-22" on="0"/>
        <pt x="308" y="-22" on="1"/>
        <pt x="318" y="-22" on="0"/>
        <pt x="368" y="-35" on="0"/>
        <pt x="382" y="-35" on="1"/>
        <pt x="412" y="-35" on="0"/>
        <pt x="449" y="103" on="0"/>
      </contour>
      <contour>
        <pt x="195" y="592" on="1"/>
        <pt x="198" y="615" on="1"/>
        <pt x="198" y="631" on="0"/>
        <pt x="171" y="647" on="0"/>
        <pt x="130" y="654" on="1"/>
        <pt x="136" y="693" on="1"/>
        <pt x="388" y="693" on="1"/>
        <pt x="385" y="654" on="1"/>
        <pt x="321" y="642" on="1"/>
        <pt x="300" y="638" on="0"/>
        <pt x="296" y="616" on="1"/>
        <pt x="205" y="102" on="1"/>
        <pt x="202" y="86" on="0"/>
        <pt x="202" y="76" on="1"/>
        <pt x="202" y="53" on="0"/>
        <pt x="229" y="48" on="1"/>
        <pt x="276" y="39" on="1"/>
        <pt x="271" y="0" on="1"/>
        <pt x="22" y="0" on="1"/>
        <pt x="22" y="39" on="1"/>
        <pt x="76" y="48" on="0"/>
        <pt x="102" y="70" on="0"/>
        <pt x="108" y="101" on="1"/>
      </contour>
    </TTGlyph>
    <TTGlyph name="Iacute" xMin="22" yMin="0" xMax="447" yMax="914">
      <contour>
        <pt x="435" y="842" on="1"/>
        <pt x="217" y="749" on="1"/>
        <pt x="193" y="785" on="1"/>
        <pt x="391" y="914" on="1"/>
        <pt x="447" y="863" on="1"/>
      </contour>
      <contour>
        <pt x="195" y="592" on="1"/>
        <pt x="198" y="615" on="1"/>
        <pt x="198" y="631" on="0"/>
        <pt x="171" y="647" on="0"/>
        <pt x="130" y="654" on="1"/>
        <pt x="136" y="693" on="1"/>
        <pt x="388" y="693" on="1"/>
        <pt x="385" y="654" on="1"/>
        <pt x="321" y="642" on="1"/>
        <pt x="300" y="638" on="0"/>
        <pt x="296" y="616" on="1"/>
        <pt x="205" y="102" on="1"/>
        <pt x="202" y="86" on="0"/>
        <pt x="202" y="76" on="1"/>
        <pt x="202" y="53" on="0"/>
        <pt x="229" y="48" on="1"/>
        <pt x="276" y="39" on="1"/>
        <pt x="271" y="0" on="1"/>
        <pt x="22" y="0" on="1"/>
        <pt x="22" y="39" on="1"/>
        <pt x="76" y="48" on="0"/>
        <pt x="102" y="70" on="0"/>
        <pt x="108" y="101" on="1"/>
      </contour>
    </TTGlyph>
    <TTGlyph name="Icircumflex" xMin="22" yMin="0" xMax="445" yMax="914">
      <contour>
        <pt x="445" y="775" on="1"/>
        <pt x="415" y="749" on="1"/>
        <pt x="293" y="840" on="1"/>
        <pt x="137" y="749" on="1"/>
        <pt x="117" y="775" on="1"/>
        <pt x="273" y="914" on="1"/>
        <pt x="329" y="914" on="1"/>
      </contour>
      <contour>
        <pt x="195" y="592" on="1"/>
        <pt x="198" y="615" on="1"/>
        <pt x="198" y="631" on="0"/>
        <pt x="171" y="647" on="0"/>
        <pt x="130" y="654" on="1"/>
        <pt x="136" y="693" on="1"/>
        <pt x="388" y="693" on="1"/>
        <pt x="385" y="654" on="1"/>
        <pt x="321" y="642" on="1"/>
        <pt x="300" y="638" on="0"/>
        <pt x="296" y="616" on="1"/>
        <pt x="205" y="102" on="1"/>
        <pt x="202" y="86" on="0"/>
        <pt x="202" y="76" on="1"/>
        <pt x="202" y="53" on="0"/>
        <pt x="229" y="48" on="1"/>
        <pt x="276" y="39" on="1"/>
        <pt x="271" y="0" on="1"/>
        <pt x="22" y="0" on="1"/>
        <pt x="22" y="39" on="1"/>
        <pt x="76" y="48" on="0"/>
        <pt x="102" y="70" on="0"/>
        <pt x="108" y="101" on="1"/>
      </contour>
    </TTGlyph>
    <TTGlyph name="Idieresis" xMin="22" yMin="0" xMax="432" yMax="885">
      <contour>
        <pt x="371" y="775" on="1"/>
        <pt x="324" y="775" on="0"/>
        <pt x="324" y="821" on="1"/>
        <pt x="324" y="847" on="0"/>
        <pt x="360" y="885" on="0"/>
        <pt x="385" y="885" on="1"/>
        <pt x="432" y="885" on="0"/>
        <pt x="432" y="840" on="1"/>
        <pt x="432" y="814" on="0"/>
        <pt x="396" y="775" on="0"/>
      </contour>
      <contour>
        <pt x="178" y="775" on="1"/>
        <pt x="131" y="775" on="0"/>
        <pt x="131" y="821" on="1"/>
        <pt x="131" y="847" on="0"/>
        <pt x="167" y="885" on="0"/>
        <pt x="192" y="885" on="1"/>
        <pt x="239" y="885" on="0"/>
        <pt x="239" y="840" on="1"/>
        <pt x="239" y="814" on="0"/>
        <pt x="203" y="775" on="0"/>
      </contour>
      <contour>
        <pt x="195" y="592" on="1"/>
        <pt x="198" y="615" on="1"/>
        <pt x="198" y="631" on="0"/>
        <pt x="171" y="647" on="0"/>
        <pt x="130" y="654" on="1"/>
        <pt x="136" y="693" on="1"/>
        <pt x="388" y="693" on="1"/>
        <pt x="385" y="654" on="1"/>
        <pt x="321" y="642" on="1"/>
        <pt x="300" y="638" on="0"/>
        <pt x="296" y="616" on="1"/>
        <pt x="205" y="102" on="1"/>
        <pt x="202" y="86" on="0"/>
        <pt x="202" y="76" on="1"/>
        <pt x="202" y="53" on="0"/>
        <pt x="229" y="48" on="1"/>
        <pt x="276" y="39" on="1"/>
        <pt x="271" y="0" on="1"/>
        <pt x="22" y="0" on="1"/>
        <pt x="22" y="39" on="1"/>
        <pt x="76" y="48" on="0"/>
        <pt x="102" y="70" on="0"/>
        <pt x="108" y="101" on="1"/>
      </contour>
    </TTGlyph>
    <TTGlyph name="Idotaccent" xMin="22" yMin="0" xMax="388" yMax="894">
      <contour>
        <pt x="313" y="894" on="0"/>
        <pt x="345" y="867" on="0"/>
        <pt x="345" y="816" on="0"/>
        <pt x="313" y="783" on="0"/>
        <pt x="287" y="783" on="1"/>
        <pt x="233" y="783" on="0"/>
        <pt x="233" y="839" on="1"/>
        <pt x="233" y="862" on="0"/>
        <pt x="262" y="894" on="0"/>
      </contour>
      <contour>
        <pt x="195" y="592" on="1"/>
        <pt x="198" y="615" on="1"/>
        <pt x="198" y="631" on="0"/>
        <pt x="171" y="647" on="0"/>
        <pt x="130" y="654" on="1"/>
        <pt x="136" y="693" on="1"/>
        <pt x="388" y="693" on="1"/>
        <pt x="385" y="654" on="1"/>
        <pt x="321" y="642" on="1"/>
        <pt x="300" y="638" on="0"/>
        <pt x="296" y="616" on="1"/>
        <pt x="205" y="102" on="1"/>
        <pt x="202" y="86" on="0"/>
        <pt x="202" y="76" on="1"/>
        <pt x="202" y="53" on="0"/>
        <pt x="229" y="48" on="1"/>
        <pt x="276" y="39" on="1"/>
        <pt x="271" y="0" on="1"/>
        <pt x="22" y="0" on="1"/>
        <pt x="22" y="39" on="1"/>
        <pt x="76" y="48" on="0"/>
        <pt x="102" y="70" on="0"/>
        <pt x="108" y="101" on="1"/>
      </contour>
    </TTGlyph>
    <TTGlyph name="Igrave" xMin="22" yMin="0" xMax="388" yMax="914">
      <contour>
        <pt x="310" y="749" on="1"/>
        <pt x="126" y="842" on="1"/>
        <pt x="122" y="863" on="1"/>
        <pt x="186" y="914" on="1"/>
        <pt x="336" y="785" on="1"/>
      </contour>
      <contour>
        <pt x="195" y="592" on="1"/>
        <pt x="198" y="615" on="1"/>
        <pt x="198" y="631" on="0"/>
        <pt x="171" y="647" on="0"/>
        <pt x="130" y="654" on="1"/>
        <pt x="136" y="693" on="1"/>
        <pt x="388" y="693" on="1"/>
        <pt x="385" y="654" on="1"/>
        <pt x="321" y="642" on="1"/>
        <pt x="300" y="638" on="0"/>
        <pt x="296" y="616" on="1"/>
        <pt x="205" y="102" on="1"/>
        <pt x="202" y="86" on="0"/>
        <pt x="202" y="76" on="1"/>
        <pt x="202" y="53" on="0"/>
        <pt x="229" y="48" on="1"/>
        <pt x="276" y="39" on="1"/>
        <pt x="271" y="0" on="1"/>
        <pt x="22" y="0" on="1"/>
        <pt x="22" y="39" on="1"/>
        <pt x="76" y="48" on="0"/>
        <pt x="102" y="70" on="0"/>
        <pt x="108" y="101" on="1"/>
      </contour>
    </TTGlyph>
    <TTGlyph name="Imacron" xMin="22" yMin="0" xMax="413" yMax="864">
      <contour>
        <pt x="402" y="804" on="1"/>
        <pt x="153" y="804" on="1"/>
        <pt x="164" y="864" on="1"/>
        <pt x="413" y="864" on="1"/>
      </contour>
      <contour>
        <pt x="195" y="592" on="1"/>
        <pt x="198" y="615" on="1"/>
        <pt x="198" y="631" on="0"/>
        <pt x="171" y="647" on="0"/>
        <pt x="130" y="654" on="1"/>
        <pt x="136" y="693" on="1"/>
        <pt x="388" y="693" on="1"/>
        <pt x="385" y="654" on="1"/>
        <pt x="321" y="642" on="1"/>
        <pt x="300" y="638" on="0"/>
        <pt x="296" y="616" on="1"/>
        <pt x="205" y="102" on="1"/>
        <pt x="202" y="86" on="0"/>
        <pt x="202" y="76" on="1"/>
        <pt x="202" y="53" on="0"/>
        <pt x="229" y="48" on="1"/>
        <pt x="276" y="39" on="1"/>
        <pt x="271" y="0" on="1"/>
        <pt x="22" y="0" on="1"/>
        <pt x="22" y="39" on="1"/>
        <pt x="76" y="48" on="0"/>
        <pt x="102" y="70" on="0"/>
        <pt x="108" y="101" on="1"/>
      </contour>
    </TTGlyph>
    <TTGlyph name="Iogonek" xMin="21" yMin="-215" xMax="387" yMax="693">
      <contour>
        <pt x="107" y="-116" on="1"/>
        <pt x="107" y="-159" on="0"/>
        <pt x="159" y="-159" on="1"/>
        <pt x="185" y="-159" on="0"/>
        <pt x="215" y="-149" on="1"/>
        <pt x="224" y="-169" on="1"/>
        <pt x="164" y="-215" on="0"/>
        <pt x="105" y="-215" on="1"/>
        <pt x="70" y="-215" on="0"/>
        <pt x="22" y="-172" on="0"/>
        <pt x="22" y="-100" on="0"/>
        <pt x="86" y="-23" on="0"/>
        <pt x="141" y="0" on="1"/>
        <pt x="21" y="0" on="1"/>
        <pt x="21" y="39" on="1"/>
        <pt x="75" y="48" on="0"/>
        <pt x="101" y="70" on="0"/>
        <pt x="107" y="101" on="1"/>
        <pt x="194" y="592" on="1"/>
        <pt x="197" y="615" on="1"/>
        <pt x="197" y="631" on="0"/>
        <pt x="170" y="647" on="0"/>
        <pt x="129" y="654" on="1"/>
        <pt x="135" y="693" on="1"/>
        <pt x="387" y="693" on="1"/>
        <pt x="384" y="654" on="1"/>
        <pt x="320" y="642" on="1"/>
        <pt x="299" y="638" on="0"/>
        <pt x="295" y="616" on="1"/>
        <pt x="204" y="102" on="1"/>
        <pt x="201" y="86" on="0"/>
        <pt x="201" y="76" on="1"/>
        <pt x="201" y="53" on="0"/>
        <pt x="228" y="48" on="1"/>
        <pt x="275" y="39" on="1"/>
        <pt x="270" y="0" on="1"/>
        <pt x="205" y="-2" on="0"/>
        <pt x="107" y="-69" on="0"/>
      </contour>
    </TTGlyph>
    <TTGlyph name="Itilde" xMin="22" yMin="0" xMax="477" yMax="891">
      <contour>
        <pt x="454" y="891" on="1"/>
        <pt x="477" y="879" on="1"/>
        <pt x="412" y="778" on="0"/>
        <pt x="366" y="778" on="1"/>
        <pt x="349" y="778" on="0"/>
        <pt x="221" y="805" on="0"/>
        <pt x="159" y="805" on="0"/>
        <pt x="119" y="771" on="1"/>
        <pt x="99" y="787" on="1"/>
        <pt x="141" y="840" on="0"/>
        <pt x="195" y="883" on="0"/>
        <pt x="241" y="883" on="0"/>
        <pt x="365" y="856" on="0"/>
        <pt x="414" y="856" on="0"/>
      </contour>
      <contour>
        <pt x="195" y="592" on="1"/>
        <pt x="198" y="615" on="1"/>
        <pt x="198" y="631" on="0"/>
        <pt x="171" y="647" on="0"/>
        <pt x="130" y="654" on="1"/>
        <pt x="136" y="693" on="1"/>
        <pt x="388" y="693" on="1"/>
        <pt x="385" y="654" on="1"/>
        <pt x="321" y="642" on="1"/>
        <pt x="300" y="638" on="0"/>
        <pt x="296" y="616" on="1"/>
        <pt x="205" y="102" on="1"/>
        <pt x="202" y="86" on="0"/>
        <pt x="202" y="76" on="1"/>
        <pt x="202" y="53" on="0"/>
        <pt x="229" y="48" on="1"/>
        <pt x="276" y="39" on="1"/>
        <pt x="271" y="0" on="1"/>
        <pt x="22" y="0" on="1"/>
        <pt x="22" y="39" on="1"/>
        <pt x="76" y="48" on="0"/>
        <pt x="102" y="70" on="0"/>
        <pt x="108" y="101" on="1"/>
      </contour>
    </TTGlyph>
    <TTGlyph name="J" xMin="-73" yMin="-129" xMax="397" yMax="693">
      <contour>
        <pt x="127" y="210" on="1"/>
        <pt x="194" y="592" on="1"/>
        <pt x="196" y="604" on="0"/>
        <pt x="196" y="609" on="1"/>
        <pt x="196" y="628" on="0"/>
        <pt x="164" y="646" on="0"/>
        <pt x="119" y="654" on="1"/>
        <pt x="125" y="693" on="1"/>
        <pt x="397" y="693" on="1"/>
        <pt x="394" y="654" on="1"/>
        <pt x="320" y="642" on="1"/>
        <pt x="299" y="638" on="0"/>
        <pt x="297" y="622" on="1"/>
        <pt x="228" y="234" on="1"/>
        <pt x="198" y="64" on="0"/>
        <pt x="69" y="-129" on="0"/>
        <pt x="-27" y="-129" on="1"/>
        <pt x="-73" y="-129" on="0"/>
        <pt x="-73" y="-106" on="1"/>
        <pt x="-73" y="-80" on="0"/>
        <pt x="-45" y="-22" on="0"/>
        <pt x="-32" y="-22" on="1"/>
        <pt x="-22" y="-22" on="0"/>
        <pt x="28" y="-35" on="0"/>
        <pt x="42" y="-35" on="1"/>
        <pt x="72" y="-35" on="0"/>
        <pt x="109" y="103" on="0"/>
      </contour>
    </TTGlyph>
    <TTGlyph name="Jcircumflex" xMin="-73" yMin="-129" xMax="446" yMax="914">
      <contour>
        <pt x="446" y="775" on="1"/>
        <pt x="416" y="749" on="1"/>
        <pt x="294" y="840" on="1"/>
        <pt x="138" y="749" on="1"/>
        <pt x="118" y="775" on="1"/>
        <pt x="274" y="914" on="1"/>
        <pt x="330" y="914" on="1"/>
      </contour>
      <contour>
        <pt x="127" y="210" on="1"/>
        <pt x="194" y="592" on="1"/>
        <pt x="196" y="604" on="0"/>
        <pt x="196" y="609" on="1"/>
        <pt x="196" y="628" on="0"/>
        <pt x="164" y="646" on="0"/>
        <pt x="119" y="654" on="1"/>
        <pt x="125" y="693" on="1"/>
        <pt x="397" y="693" on="1"/>
        <pt x="394" y="654" on="1"/>
        <pt x="320" y="642" on="1"/>
        <pt x="299" y="638" on="0"/>
        <pt x="297" y="622" on="1"/>
        <pt x="228" y="234" on="1"/>
        <pt x="198" y="64" on="0"/>
        <pt x="69" y="-129" on="0"/>
        <pt x="-27" y="-129" on="1"/>
        <pt x="-73" y="-129" on="0"/>
        <pt x="-73" y="-106" on="1"/>
        <pt x="-73" y="-80" on="0"/>
        <pt x="-45" y="-22" on="0"/>
        <pt x="-32" y="-22" on="1"/>
        <pt x="-22" y="-22" on="0"/>
        <pt x="28" y="-35" on="0"/>
        <pt x="42" y="-35" on="1"/>
        <pt x="72" y="-35" on="0"/>
        <pt x="109" y="103" on="0"/>
      </contour>
    </TTGlyph>
    <TTGlyph name="K" xMin="20" yMin="0" xMax="737" yMax="693">
      <contour>
        <pt x="644" y="0" on="1"/>
        <pt x="494" y="0" on="1"/>
        <pt x="289" y="302" on="1"/>
        <pt x="232" y="253" on="1"/>
        <pt x="205" y="102" on="1"/>
        <pt x="202" y="86" on="0"/>
        <pt x="202" y="76" on="1"/>
        <pt x="202" y="53" on="0"/>
        <pt x="229" y="48" on="1"/>
        <pt x="269" y="39" on="1"/>
        <pt x="264" y="0" on="1"/>
        <pt x="20" y="0" on="1"/>
        <pt x="20" y="39" on="1"/>
        <pt x="74" y="48" on="0"/>
        <pt x="102" y="70" on="0"/>
        <pt x="108" y="101" on="1"/>
        <pt x="194" y="592" on="1"/>
        <pt x="197" y="606" on="0"/>
        <pt x="197" y="631" on="0"/>
        <pt x="170" y="647" on="0"/>
        <pt x="129" y="654" on="1"/>
        <pt x="135" y="693" on="1"/>
        <pt x="387" y="693" on="1"/>
        <pt x="384" y="654" on="1"/>
        <pt x="320" y="642" on="1"/>
        <pt x="303" y="638" on="0"/>
        <pt x="298" y="628" on="1"/>
        <pt x="297" y="624" on="0"/>
        <pt x="296" y="616" on="1"/>
        <pt x="249" y="352" on="1"/>
        <pt x="556" y="608" on="1"/>
        <pt x="576" y="625" on="0"/>
        <pt x="576" y="634" on="1"/>
        <pt x="576" y="650" on="0"/>
        <pt x="512" y="653" on="1"/>
        <pt x="518" y="693" on="1"/>
        <pt x="737" y="693" on="1"/>
        <pt x="734" y="651" on="1"/>
        <pt x="698" y="648" on="0"/>
        <pt x="655" y="615" on="0"/>
        <pt x="648" y="608" on="1"/>
        <pt x="366" y="367" on="1"/>
        <pt x="564" y="80" on="1"/>
        <pt x="577" y="60" on="0"/>
        <pt x="612" y="42" on="0"/>
        <pt x="649" y="39" on="1"/>
      </contour>
    </TTGlyph>
    <TTGlyph name="Kcommaaccent" xMin="20" yMin="-210" xMax="737" yMax="693">
      <contour>
        <pt x="644" y="0" on="1"/>
        <pt x="494" y="0" on="1"/>
        <pt x="289" y="302" on="1"/>
        <pt x="232" y="253" on="1"/>
        <pt x="205" y="102" on="1"/>
        <pt x="202" y="86" on="0"/>
        <pt x="202" y="76" on="1"/>
        <pt x="202" y="53" on="0"/>
        <pt x="229" y="48" on="1"/>
        <pt x="269" y="39" on="1"/>
        <pt x="264" y="0" on="1"/>
        <pt x="20" y="0" on="1"/>
        <pt x="20" y="39" on="1"/>
        <pt x="74" y="48" on="0"/>
        <pt x="102" y="70" on="0"/>
        <pt x="108" y="101" on="1"/>
        <pt x="194" y="592" on="1"/>
        <pt x="197" y="606" on="0"/>
        <pt x="197" y="631" on="0"/>
        <pt x="170" y="647" on="0"/>
        <pt x="129" y="654" on="1"/>
        <pt x="135" y="693" on="1"/>
        <pt x="387" y="693" on="1"/>
        <pt x="384" y="654" on="1"/>
        <pt x="320" y="642" on="1"/>
        <pt x="303" y="638" on="0"/>
        <pt x="298" y="628" on="1"/>
        <pt x="297" y="624" on="0"/>
        <pt x="296" y="616" on="1"/>
        <pt x="249" y="352" on="1"/>
        <pt x="556" y="608" on="1"/>
        <pt x="576" y="625" on="0"/>
        <pt x="576" y="634" on="1"/>
        <pt x="576" y="650" on="0"/>
        <pt x="512" y="653" on="1"/>
        <pt x="518" y="693" on="1"/>
        <pt x="737" y="693" on="1"/>
        <pt x="734" y="651" on="1"/>
        <pt x="698" y="648" on="0"/>
        <pt x="655" y="615" on="0"/>
        <pt x="648" y="608" on="1"/>
        <pt x="366" y="367" on="1"/>
        <pt x="564" y="80" on="1"/>
        <pt x="577" y="60" on="0"/>
        <pt x="612" y="42" on="0"/>
        <pt x="649" y="39" on="1"/>
      </contour>
      <contour>
        <pt x="260" y="-210" on="1"/>
        <pt x="239" y="-185" on="1"/>
        <pt x="296" y="-149" on="0"/>
        <pt x="296" y="-117" on="1"/>
        <pt x="296" y="-108" on="0"/>
        <pt x="283" y="-80" on="0"/>
        <pt x="283" y="-48" on="0"/>
        <pt x="312" y="-21" on="0"/>
        <pt x="352" y="-21" on="0"/>
        <pt x="378" y="-50" on="0"/>
        <pt x="378" y="-108" on="0"/>
        <pt x="316" y="-181" on="0"/>
      </contour>
    </TTGlyph>
    <TTGlyph name="L" xMin="20" yMin="0" xMax="554" yMax="693">
      <contour>
        <pt x="554" y="208" on="1"/>
        <pt x="543" y="117" on="0"/>
        <pt x="507" y="0" on="1"/>
        <pt x="20" y="0" on="1"/>
        <pt x="20" y="39" on="1"/>
        <pt x="74" y="48" on="0"/>
        <pt x="102" y="70" on="0"/>
        <pt x="108" y="101" on="1"/>
        <pt x="194" y="592" on="1"/>
        <pt x="197" y="606" on="0"/>
        <pt x="197" y="631" on="0"/>
        <pt x="170" y="647" on="0"/>
        <pt x="129" y="654" on="1"/>
        <pt x="135" y="693" on="1"/>
        <pt x="387" y="693" on="1"/>
        <pt x="384" y="654" on="1"/>
        <pt x="320" y="642" on="1"/>
        <pt x="303" y="638" on="0"/>
        <pt x="298" y="628" on="1"/>
        <pt x="297" y="624" on="0"/>
        <pt x="296" y="616" on="1"/>
        <pt x="196" y="51" on="1"/>
        <pt x="285" y="52" on="1"/>
        <pt x="397" y="54" on="0"/>
        <pt x="435" y="65" on="0"/>
        <pt x="500" y="213" on="1"/>
      </contour>
    </TTGlyph>
    <TTGlyph name="Lacute" xMin="20" yMin="0" xMax="554" yMax="914">
      <contour>
        <pt x="440" y="842" on="1"/>
        <pt x="222" y="749" on="1"/>
        <pt x="198" y="785" on="1"/>
        <pt x="396" y="914" on="1"/>
        <pt x="452" y="863" on="1"/>
      </contour>
      <contour>
        <pt x="554" y="208" on="1"/>
        <pt x="543" y="117" on="0"/>
        <pt x="507" y="0" on="1"/>
        <pt x="20" y="0" on="1"/>
        <pt x="20" y="39" on="1"/>
        <pt x="74" y="48" on="0"/>
        <pt x="102" y="70" on="0"/>
        <pt x="108" y="101" on="1"/>
        <pt x="194" y="592" on="1"/>
        <pt x="197" y="606" on="0"/>
        <pt x="197" y="631" on="0"/>
        <pt x="170" y="647" on="0"/>
        <pt x="129" y="654" on="1"/>
        <pt x="135" y="693" on="1"/>
        <pt x="387" y="693" on="1"/>
        <pt x="384" y="654" on="1"/>
        <pt x="320" y="642" on="1"/>
        <pt x="303" y="638" on="0"/>
        <pt x="298" y="628" on="1"/>
        <pt x="297" y="624" on="0"/>
        <pt x="296" y="616" on="1"/>
        <pt x="196" y="51" on="1"/>
        <pt x="285" y="52" on="1"/>
        <pt x="397" y="54" on="0"/>
        <pt x="435" y="65" on="0"/>
        <pt x="500" y="213" on="1"/>
      </contour>
    </TTGlyph>
    <TTGlyph name="Lcaron" xMin="20" yMin="0" xMax="582" yMax="774">
      <contour>
        <pt x="484" y="577" on="1"/>
        <pt x="445" y="591" on="1"/>
        <pt x="481" y="678" on="0"/>
        <pt x="484" y="752" on="1"/>
        <pt x="573" y="774" on="1"/>
        <pt x="582" y="755" on="1"/>
        <pt x="554" y="658" on="0"/>
      </contour>
      <contour>
        <pt x="554" y="208" on="1"/>
        <pt x="543" y="117" on="0"/>
        <pt x="507" y="0" on="1"/>
        <pt x="20" y="0" on="1"/>
        <pt x="20" y="39" on="1"/>
        <pt x="74" y="48" on="0"/>
        <pt x="102" y="70" on="0"/>
        <pt x="108" y="101" on="1"/>
        <pt x="194" y="592" on="1"/>
        <pt x="197" y="606" on="0"/>
        <pt x="197" y="631" on="0"/>
        <pt x="170" y="647" on="0"/>
        <pt x="129" y="654" on="1"/>
        <pt x="135" y="693" on="1"/>
        <pt x="387" y="693" on="1"/>
        <pt x="384" y="654" on="1"/>
        <pt x="320" y="642" on="1"/>
        <pt x="303" y="638" on="0"/>
        <pt x="298" y="628" on="1"/>
        <pt x="297" y="624" on="0"/>
        <pt x="296" y="616" on="1"/>
        <pt x="196" y="51" on="1"/>
        <pt x="285" y="52" on="1"/>
        <pt x="397" y="54" on="0"/>
        <pt x="435" y="65" on="0"/>
        <pt x="500" y="213" on="1"/>
      </contour>
    </TTGlyph>
    <TTGlyph name="Lcommaaccent" xMin="20" yMin="-210" xMax="554" yMax="693">
      <contour>
        <pt x="554" y="208" on="1"/>
        <pt x="543" y="117" on="0"/>
        <pt x="507" y="0" on="1"/>
        <pt x="20" y="0" on="1"/>
        <pt x="20" y="39" on="1"/>
        <pt x="74" y="48" on="0"/>
        <pt x="102" y="70" on="0"/>
        <pt x="108" y="101" on="1"/>
        <pt x="194" y="592" on="1"/>
        <pt x="197" y="606" on="0"/>
        <pt x="197" y="631" on="0"/>
        <pt x="170" y="647" on="0"/>
        <pt x="129" y="654" on="1"/>
        <pt x="135" y="693" on="1"/>
        <pt x="387" y="693" on="1"/>
        <pt x="384" y="654" on="1"/>
        <pt x="320" y="642" on="1"/>
        <pt x="303" y="638" on="0"/>
        <pt x="298" y="628" on="1"/>
        <pt x="297" y="624" on="0"/>
        <pt x="296" y="616" on="1"/>
        <pt x="196" y="51" on="1"/>
        <pt x="285" y="52" on="1"/>
        <pt x="397" y="54" on="0"/>
        <pt x="435" y="65" on="0"/>
        <pt x="500" y="213" on="1"/>
      </contour>
      <contour>
        <pt x="205" y="-210" on="1"/>
        <pt x="184" y="-185" on="1"/>
        <pt x="241" y="-149" on="0"/>
        <pt x="241" y="-117" on="1"/>
        <pt x="241" y="-108" on="0"/>
        <pt x="228" y="-80" on="0"/>
        <pt x="228" y="-48" on="0"/>
        <pt x="257" y="-21" on="0"/>
        <pt x="297" y="-21" on="0"/>
        <pt x="323" y="-50" on="0"/>
        <pt x="323" y="-108" on="0"/>
        <pt x="261" y="-181" on="0"/>
      </contour>
    </TTGlyph>
    <TTGlyph name="Ldotaccent" xMin="20" yMin="0" xMax="554" yMax="693">
      <contour>
        <pt x="554" y="208" on="1"/>
        <pt x="543" y="117" on="0"/>
        <pt x="507" y="0" on="1"/>
        <pt x="20" y="0" on="1"/>
        <pt x="20" y="39" on="1"/>
        <pt x="74" y="48" on="0"/>
        <pt x="102" y="70" on="0"/>
        <pt x="108" y="101" on="1"/>
        <pt x="194" y="592" on="1"/>
        <pt x="197" y="606" on="0"/>
        <pt x="197" y="631" on="0"/>
        <pt x="170" y="647" on="0"/>
        <pt x="129" y="654" on="1"/>
        <pt x="135" y="693" on="1"/>
        <pt x="387" y="693" on="1"/>
        <pt x="384" y="654" on="1"/>
        <pt x="320" y="642" on="1"/>
        <pt x="303" y="638" on="0"/>
        <pt x="298" y="628" on="1"/>
        <pt x="297" y="624" on="0"/>
        <pt x="296" y="616" on="1"/>
        <pt x="196" y="51" on="1"/>
        <pt x="285" y="52" on="1"/>
        <pt x="397" y="54" on="0"/>
        <pt x="435" y="65" on="0"/>
        <pt x="500" y="213" on="1"/>
      </contour>
      <contour>
        <pt x="492" y="375" on="0"/>
        <pt x="453" y="334" on="0"/>
        <pt x="403" y="334" on="0"/>
        <pt x="374" y="360" on="0"/>
        <pt x="374" y="410" on="0"/>
        <pt x="413" y="449" on="0"/>
        <pt x="440" y="449" on="1"/>
        <pt x="492" y="449" on="0"/>
        <pt x="492" y="402" on="1"/>
      </contour>
    </TTGlyph>
    <TTGlyph name="Lslash" xMin="20" yMin="0" xMax="554" yMax="693">
      <contour>
        <pt x="554" y="208" on="1"/>
        <pt x="543" y="117" on="0"/>
        <pt x="507" y="0" on="1"/>
        <pt x="20" y="0" on="1"/>
        <pt x="20" y="39" on="1"/>
        <pt x="74" y="48" on="0"/>
        <pt x="102" y="70" on="0"/>
        <pt x="108" y="101" on="1"/>
        <pt x="136" y="262" on="1"/>
        <pt x="56" y="215" on="1"/>
        <pt x="36" y="258" on="1"/>
        <pt x="146" y="323" on="1"/>
        <pt x="194" y="592" on="1"/>
        <pt x="197" y="606" on="0"/>
        <pt x="197" y="631" on="0"/>
        <pt x="170" y="647" on="0"/>
        <pt x="129" y="654" on="1"/>
        <pt x="135" y="693" on="1"/>
        <pt x="387" y="693" on="1"/>
        <pt x="384" y="654" on="1"/>
        <pt x="320" y="642" on="1"/>
        <pt x="303" y="638" on="0"/>
        <pt x="298" y="628" on="1"/>
        <pt x="297" y="624" on="0"/>
        <pt x="296" y="616" on="1"/>
        <pt x="255" y="386" on="1"/>
        <pt x="427" y="487" on="1"/>
        <pt x="447" y="444" on="1"/>
        <pt x="244" y="325" on="1"/>
        <pt x="196" y="51" on="1"/>
        <pt x="285" y="52" on="1"/>
        <pt x="397" y="54" on="0"/>
        <pt x="435" y="65" on="0"/>
        <pt x="500" y="213" on="1"/>
      </contour>
    </TTGlyph>
    <TTGlyph name="M" xMin="17" yMin="0" xMax="887" yMax="693">
      <contour>
        <pt x="808" y="0" on="1"/>
        <pt x="557" y="0" on="1"/>
        <pt x="557" y="39" on="1"/>
        <pt x="608" y="48" on="0"/>
        <pt x="639" y="69" on="0"/>
        <pt x="643" y="93" on="1"/>
        <pt x="711" y="550" on="1"/>
        <pt x="715" y="576" on="0"/>
        <pt x="720" y="588" on="1"/>
        <pt x="712" y="588" on="1"/>
        <pt x="443" y="20" on="1"/>
        <pt x="358" y="20" on="1"/>
        <pt x="263" y="590" on="1"/>
        <pt x="256" y="590" on="1"/>
        <pt x="176" y="102" on="1"/>
        <pt x="173" y="86" on="0"/>
        <pt x="173" y="76" on="1"/>
        <pt x="173" y="52" on="0"/>
        <pt x="200" y="48" on="1"/>
        <pt x="260" y="39" on="1"/>
        <pt x="255" y="0" on="1"/>
        <pt x="17" y="0" on="1"/>
        <pt x="17" y="39" on="1"/>
        <pt x="73" y="49" on="0"/>
        <pt x="104" y="71" on="0"/>
        <pt x="109" y="101" on="1"/>
        <pt x="189" y="592" on="1"/>
        <pt x="191" y="610" on="0"/>
        <pt x="191" y="614" on="1"/>
        <pt x="191" y="630" on="0"/>
        <pt x="164" y="647" on="0"/>
        <pt x="123" y="654" on="1"/>
        <pt x="128" y="693" on="1"/>
        <pt x="338" y="693" on="1"/>
        <pt x="422" y="167" on="1"/>
        <pt x="425" y="149" on="0"/>
        <pt x="425" y="142" on="1"/>
        <pt x="435" y="142" on="1"/>
        <pt x="436" y="146" on="0"/>
        <pt x="439" y="153" on="0"/>
        <pt x="442" y="161" on="0"/>
        <pt x="443" y="162" on="1"/>
        <pt x="690" y="693" on="1"/>
        <pt x="887" y="693" on="1"/>
        <pt x="885" y="654" on="1"/>
        <pt x="841" y="642" on="1"/>
        <pt x="821" y="636" on="0"/>
        <pt x="819" y="619" on="1"/>
        <pt x="742" y="102" on="1"/>
        <pt x="739" y="85" on="0"/>
        <pt x="739" y="76" on="1"/>
        <pt x="739" y="53" on="0"/>
        <pt x="766" y="48" on="1"/>
        <pt x="813" y="39" on="1"/>
      </contour>
    </TTGlyph>
    <TTGlyph name="N" xMin="20" yMin="0" xMax="789" yMax="693">
      <contour>
        <pt x="589" y="0" on="1"/>
        <pt x="527" y="0" on="1"/>
        <pt x="269" y="592" on="1"/>
        <pt x="261" y="592" on="1"/>
        <pt x="174" y="95" on="1"/>
        <pt x="172" y="85" on="0"/>
        <pt x="172" y="77" on="1"/>
        <pt x="172" y="52" on="0"/>
        <pt x="195" y="50" on="1"/>
        <pt x="278" y="39" on="1"/>
        <pt x="273" y="0" on="1"/>
        <pt x="20" y="0" on="1"/>
        <pt x="20" y="39" on="1"/>
        <pt x="74" y="48" on="0"/>
        <pt x="102" y="70" on="0"/>
        <pt x="108" y="101" on="1"/>
        <pt x="194" y="592" on="1"/>
        <pt x="197" y="606" on="0"/>
        <pt x="197" y="631" on="0"/>
        <pt x="170" y="647" on="0"/>
        <pt x="129" y="654" on="1"/>
        <pt x="135" y="693" on="1"/>
        <pt x="333" y="693" on="1"/>
        <pt x="548" y="189" on="1"/>
        <pt x="555" y="189" on="1"/>
        <pt x="623" y="572" on="1"/>
        <pt x="626" y="590" on="0"/>
        <pt x="626" y="627" on="0"/>
        <pt x="591" y="648" on="0"/>
        <pt x="541" y="654" on="1"/>
        <pt x="547" y="693" on="1"/>
        <pt x="789" y="693" on="1"/>
        <pt x="786" y="654" on="1"/>
        <pt x="722" y="642" on="1"/>
        <pt x="705" y="638" on="0"/>
        <pt x="700" y="628" on="1"/>
        <pt x="699" y="624" on="0"/>
        <pt x="698" y="616" on="1"/>
      </contour>
    </TTGlyph>
    <TTGlyph name="Nacute" xMin="20" yMin="0" xMax="789" yMax="914">
      <contour>
        <pt x="628" y="842" on="1"/>
        <pt x="410" y="749" on="1"/>
        <pt x="386" y="785" on="1"/>
        <pt x="584" y="914" on="1"/>
        <pt x="640" y="863" on="1"/>
      </contour>
      <contour>
        <pt x="589" y="0" on="1"/>
        <pt x="527" y="0" on="1"/>
        <pt x="269" y="592" on="1"/>
        <pt x="261" y="592" on="1"/>
        <pt x="174" y="95" on="1"/>
        <pt x="172" y="85" on="0"/>
        <pt x="172" y="77" on="1"/>
        <pt x="172" y="52" on="0"/>
        <pt x="195" y="50" on="1"/>
        <pt x="278" y="39" on="1"/>
        <pt x="273" y="0" on="1"/>
        <pt x="20" y="0" on="1"/>
        <pt x="20" y="39" on="1"/>
        <pt x="74" y="48" on="0"/>
        <pt x="102" y="70" on="0"/>
        <pt x="108" y="101" on="1"/>
        <pt x="194" y="592" on="1"/>
        <pt x="197" y="606" on="0"/>
        <pt x="197" y="631" on="0"/>
        <pt x="170" y="647" on="0"/>
        <pt x="129" y="654" on="1"/>
        <pt x="135" y="693" on="1"/>
        <pt x="333" y="693" on="1"/>
        <pt x="548" y="189" on="1"/>
        <pt x="555" y="189" on="1"/>
        <pt x="623" y="572" on="1"/>
        <pt x="626" y="590" on="0"/>
        <pt x="626" y="627" on="0"/>
        <pt x="591" y="648" on="0"/>
        <pt x="541" y="654" on="1"/>
        <pt x="547" y="693" on="1"/>
        <pt x="789" y="693" on="1"/>
        <pt x="786" y="654" on="1"/>
        <pt x="722" y="642" on="1"/>
        <pt x="705" y="638" on="0"/>
        <pt x="700" y="628" on="1"/>
        <pt x="699" y="624" on="0"/>
        <pt x="698" y="616" on="1"/>
      </contour>
    </TTGlyph>
    <TTGlyph name="Ncaron" xMin="20" yMin="0" xMax="789" yMax="917">
      <contour>
        <pt x="633" y="891" on="1"/>
        <pt x="476" y="752" on="1"/>
        <pt x="420" y="752" on="1"/>
        <pt x="305" y="891" on="1"/>
        <pt x="335" y="917" on="1"/>
        <pt x="457" y="826" on="1"/>
        <pt x="613" y="917" on="1"/>
      </contour>
      <contour>
        <pt x="589" y="0" on="1"/>
        <pt x="527" y="0" on="1"/>
        <pt x="269" y="592" on="1"/>
        <pt x="261" y="592" on="1"/>
        <pt x="174" y="95" on="1"/>
        <pt x="172" y="85" on="0"/>
        <pt x="172" y="77" on="1"/>
        <pt x="172" y="52" on="0"/>
        <pt x="195" y="50" on="1"/>
        <pt x="278" y="39" on="1"/>
        <pt x="273" y="0" on="1"/>
        <pt x="20" y="0" on="1"/>
        <pt x="20" y="39" on="1"/>
        <pt x="74" y="48" on="0"/>
        <pt x="102" y="70" on="0"/>
        <pt x="108" y="101" on="1"/>
        <pt x="194" y="592" on="1"/>
        <pt x="197" y="606" on="0"/>
        <pt x="197" y="631" on="0"/>
        <pt x="170" y="647" on="0"/>
        <pt x="129" y="654" on="1"/>
        <pt x="135" y="693" on="1"/>
        <pt x="333" y="693" on="1"/>
        <pt x="548" y="189" on="1"/>
        <pt x="555" y="189" on="1"/>
        <pt x="623" y="572" on="1"/>
        <pt x="626" y="590" on="0"/>
        <pt x="626" y="627" on="0"/>
        <pt x="591" y="648" on="0"/>
        <pt x="541" y="654" on="1"/>
        <pt x="547" y="693" on="1"/>
        <pt x="789" y="693" on="1"/>
        <pt x="786" y="654" on="1"/>
        <pt x="722" y="642" on="1"/>
        <pt x="705" y="638" on="0"/>
        <pt x="700" y="628" on="1"/>
        <pt x="699" y="624" on="0"/>
        <pt x="698" y="616" on="1"/>
      </contour>
    </TTGlyph>
    <TTGlyph name="Ncommaaccent" xMin="20" yMin="-210" xMax="789" yMax="693">
      <contour>
        <pt x="589" y="0" on="1"/>
        <pt x="527" y="0" on="1"/>
        <pt x="269" y="592" on="1"/>
        <pt x="261" y="592" on="1"/>
        <pt x="174" y="95" on="1"/>
        <pt x="172" y="85" on="0"/>
        <pt x="172" y="77" on="1"/>
        <pt x="172" y="52" on="0"/>
        <pt x="195" y="50" on="1"/>
        <pt x="278" y="39" on="1"/>
        <pt x="273" y="0" on="1"/>
        <pt x="20" y="0" on="1"/>
        <pt x="20" y="39" on="1"/>
        <pt x="74" y="48" on="0"/>
        <pt x="102" y="70" on="0"/>
        <pt x="108" y="101" on="1"/>
        <pt x="194" y="592" on="1"/>
        <pt x="197" y="606" on="0"/>
        <pt x="197" y="631" on="0"/>
        <pt x="170" y="647" on="0"/>
        <pt x="129" y="654" on="1"/>
        <pt x="135" y="693" on="1"/>
        <pt x="333" y="693" on="1"/>
        <pt x="548" y="189" on="1"/>
        <pt x="555" y="189" on="1"/>
        <pt x="623" y="572" on="1"/>
        <pt x="626" y="590" on="0"/>
        <pt x="626" y="627" on="0"/>
        <pt x="591" y="648" on="0"/>
        <pt x="541" y="654" on="1"/>
        <pt x="547" y="693" on="1"/>
        <pt x="789" y="693" on="1"/>
        <pt x="786" y="654" on="1"/>
        <pt x="722" y="642" on="1"/>
        <pt x="705" y="638" on="0"/>
        <pt x="700" y="628" on="1"/>
        <pt x="699" y="624" on="0"/>
        <pt x="698" y="616" on="1"/>
      </contour>
      <contour>
        <pt x="295" y="-210" on="1"/>
        <pt x="274" y="-185" on="1"/>
        <pt x="331" y="-149" on="0"/>
        <pt x="331" y="-117" on="1"/>
        <pt x="331" y="-108" on="0"/>
        <pt x="318" y="-80" on="0"/>
        <pt x="318" y="-48" on="0"/>
        <pt x="347" y="-21" on="0"/>
        <pt x="387" y="-21" on="0"/>
        <pt x="413" y="-50" on="0"/>
        <pt x="413" y="-108" on="0"/>
        <pt x="351" y="-181" on="0"/>
      </contour>
    </TTGlyph>
    <TTGlyph name="Ntilde" xMin="20" yMin="0" xMax="789" yMax="891">
      <contour>
        <pt x="657" y="891" on="1"/>
        <pt x="680" y="879" on="1"/>
        <pt x="615" y="778" on="0"/>
        <pt x="569" y="778" on="1"/>
        <pt x="552" y="778" on="0"/>
        <pt x="424" y="805" on="0"/>
        <pt x="362" y="805" on="0"/>
        <pt x="322" y="771" on="1"/>
        <pt x="302" y="787" on="1"/>
        <pt x="344" y="840" on="0"/>
        <pt x="398" y="883" on="0"/>
        <pt x="444" y="883" on="0"/>
        <pt x="568" y="856" on="0"/>
        <pt x="617" y="856" on="0"/>
      </contour>
      <contour>
        <pt x="589" y="0" on="1"/>
        <pt x="527" y="0" on="1"/>
        <pt x="269" y="592" on="1"/>
        <pt x="261" y="592" on="1"/>
        <pt x="174" y="95" on="1"/>
        <pt x="172" y="85" on="0"/>
        <pt x="172" y="77" on="1"/>
        <pt x="172" y="52" on="0"/>
        <pt x="195" y="50" on="1"/>
        <pt x="278" y="39" on="1"/>
        <pt x="273" y="0" on="1"/>
        <pt x="20" y="0" on="1"/>
        <pt x="20" y="39" on="1"/>
        <pt x="74" y="48" on="0"/>
        <pt x="102" y="70" on="0"/>
        <pt x="108" y="101" on="1"/>
        <pt x="194" y="592" on="1"/>
        <pt x="197" y="606" on="0"/>
        <pt x="197" y="631" on="0"/>
        <pt x="170" y="647" on="0"/>
        <pt x="129" y="654" on="1"/>
        <pt x="135" y="693" on="1"/>
        <pt x="333" y="693" on="1"/>
        <pt x="548" y="189" on="1"/>
        <pt x="555" y="189" on="1"/>
        <pt x="623" y="572" on="1"/>
        <pt x="626" y="590" on="0"/>
        <pt x="626" y="627" on="0"/>
        <pt x="591" y="648" on="0"/>
        <pt x="541" y="654" on="1"/>
        <pt x="547" y="693" on="1"/>
        <pt x="789" y="693" on="1"/>
        <pt x="786" y="654" on="1"/>
        <pt x="722" y="642" on="1"/>
        <pt x="705" y="638" on="0"/>
        <pt x="700" y="628" on="1"/>
        <pt x="699" y="624" on="0"/>
        <pt x="698" y="616" on="1"/>
      </contour>
    </TTGlyph>
    <TTGlyph name="O" xMin="60" yMin="-9" xMax="672" yMax="702">
      <contour>
        <pt x="308" y="-9" on="1"/>
        <pt x="189" y="-9" on="0"/>
        <pt x="60" y="148" on="0"/>
        <pt x="60" y="274" on="1"/>
        <pt x="60" y="464" on="0"/>
        <pt x="253" y="702" on="0"/>
        <pt x="423" y="702" on="1"/>
        <pt x="542" y="702" on="0"/>
        <pt x="672" y="547" on="0"/>
        <pt x="672" y="425" on="1"/>
        <pt x="672" y="234" on="0"/>
        <pt x="478" y="-9" on="0"/>
      </contour>
      <contour>
        <pt x="331" y="44" on="1"/>
        <pt x="393" y="44" on="0"/>
        <pt x="487" y="115" on="0"/>
        <pt x="512" y="172" on="1"/>
        <pt x="559" y="284" on="0"/>
        <pt x="559" y="517" on="0"/>
        <pt x="477" y="649" on="0"/>
        <pt x="399" y="649" on="1"/>
        <pt x="349" y="649" on="0"/>
        <pt x="310" y="626" on="1"/>
        <pt x="238" y="584" on="0"/>
        <pt x="172" y="389" on="0"/>
        <pt x="172" y="179" on="0"/>
        <pt x="254" y="44" on="0"/>
      </contour>
    </TTGlyph>
    <TTGlyph name="OE" xMin="60" yMin="-9" xMax="982" yMax="702">
      <contour>
        <pt x="923" y="179" on="1"/>
        <pt x="914" y="99" on="0"/>
        <pt x="881" y="0" on="1"/>
        <pt x="647" y="0" on="0"/>
        <pt x="314" y="-9" on="0"/>
        <pt x="308" y="-9" on="1"/>
        <pt x="189" y="-9" on="0"/>
        <pt x="60" y="148" on="0"/>
        <pt x="60" y="274" on="1"/>
        <pt x="60" y="464" on="0"/>
        <pt x="253" y="702" on="0"/>
        <pt x="423" y="702" on="1"/>
        <pt x="427" y="702" on="0"/>
        <pt x="819" y="693" on="0"/>
        <pt x="982" y="693" on="1"/>
        <pt x="982" y="642" on="0"/>
        <pt x="959" y="537" on="1"/>
        <pt x="900" y="530" on="1"/>
        <pt x="899" y="599" on="0"/>
        <pt x="893" y="634" on="0"/>
        <pt x="885" y="635" on="1"/>
        <pt x="861" y="638" on="0"/>
        <pt x="825" y="639" on="1"/>
        <pt x="674" y="642" on="1"/>
        <pt x="627" y="373" on="1"/>
        <pt x="777" y="373" on="1"/>
        <pt x="785" y="373" on="0"/>
        <pt x="807" y="414" on="0"/>
        <pt x="821" y="444" on="1"/>
        <pt x="852" y="441" on="1"/>
        <pt x="835" y="347" on="0"/>
        <pt x="831" y="243" on="1"/>
        <pt x="794" y="237" on="1"/>
        <pt x="788" y="292" on="0"/>
        <pt x="781" y="320" on="0"/>
        <pt x="774" y="320" on="1"/>
        <pt x="617" y="320" on="1"/>
        <pt x="570" y="51" on="1"/>
        <pt x="659" y="52" on="1"/>
        <pt x="760" y="55" on="0"/>
        <pt x="794" y="62" on="0"/>
        <pt x="804" y="66" on="1"/>
        <pt x="822" y="71" on="0"/>
        <pt x="868" y="184" on="1"/>
      </contour>
      <contour>
        <pt x="498" y="192" on="1"/>
        <pt x="550" y="490" on="1"/>
        <pt x="561" y="556" on="0"/>
        <pt x="561" y="575" on="1"/>
        <pt x="561" y="622" on="0"/>
        <pt x="498" y="649" on="0"/>
        <pt x="399" y="649" on="1"/>
        <pt x="349" y="649" on="0"/>
        <pt x="310" y="626" on="1"/>
        <pt x="238" y="584" on="0"/>
        <pt x="172" y="389" on="0"/>
        <pt x="172" y="179" on="0"/>
        <pt x="254" y="44" on="0"/>
        <pt x="421" y="44" on="0"/>
        <pt x="481" y="93" on="0"/>
      </contour>
    </TTGlyph>
    <TTGlyph name="Oacute" xMin="60" yMin="-9" xMax="672" yMax="914">
      <contour>
        <pt x="578" y="842" on="1"/>
        <pt x="360" y="749" on="1"/>
        <pt x="336" y="785" on="1"/>
        <pt x="534" y="914" on="1"/>
        <pt x="590" y="863" on="1"/>
      </contour>
      <contour>
        <pt x="308" y="-9" on="1"/>
        <pt x="189" y="-9" on="0"/>
        <pt x="60" y="148" on="0"/>
        <pt x="60" y="274" on="1"/>
        <pt x="60" y="464" on="0"/>
        <pt x="253" y="702" on="0"/>
        <pt x="423" y="702" on="1"/>
        <pt x="542" y="702" on="0"/>
        <pt x="672" y="547" on="0"/>
        <pt x="672" y="425" on="1"/>
        <pt x="672" y="234" on="0"/>
        <pt x="478" y="-9" on="0"/>
      </contour>
      <contour>
        <pt x="331" y="44" on="1"/>
        <pt x="393" y="44" on="0"/>
        <pt x="487" y="115" on="0"/>
        <pt x="512" y="172" on="1"/>
        <pt x="559" y="284" on="0"/>
        <pt x="559" y="517" on="0"/>
        <pt x="477" y="649" on="0"/>
        <pt x="399" y="649" on="1"/>
        <pt x="349" y="649" on="0"/>
        <pt x="310" y="626" on="1"/>
        <pt x="238" y="584" on="0"/>
        <pt x="172" y="389" on="0"/>
        <pt x="172" y="179" on="0"/>
        <pt x="254" y="44" on="0"/>
      </contour>
    </TTGlyph>
    <TTGlyph name="Ocircumflex" xMin="60" yMin="-9" xMax="672" yMax="914">
      <contour>
        <pt x="588" y="775" on="1"/>
        <pt x="558" y="749" on="1"/>
        <pt x="436" y="840" on="1"/>
        <pt x="280" y="749" on="1"/>
        <pt x="260" y="775" on="1"/>
        <pt x="416" y="914" on="1"/>
        <pt x="472" y="914" on="1"/>
      </contour>
      <contour>
        <pt x="308" y="-9" on="1"/>
        <pt x="189" y="-9" on="0"/>
        <pt x="60" y="148" on="0"/>
        <pt x="60" y="274" on="1"/>
        <pt x="60" y="464" on="0"/>
        <pt x="253" y="702" on="0"/>
        <pt x="423" y="702" on="1"/>
        <pt x="542" y="702" on="0"/>
        <pt x="672" y="547" on="0"/>
        <pt x="672" y="425" on="1"/>
        <pt x="672" y="234" on="0"/>
        <pt x="478" y="-9" on="0"/>
      </contour>
      <contour>
        <pt x="331" y="44" on="1"/>
        <pt x="393" y="44" on="0"/>
        <pt x="487" y="115" on="0"/>
        <pt x="512" y="172" on="1"/>
        <pt x="559" y="284" on="0"/>
        <pt x="559" y="517" on="0"/>
        <pt x="477" y="649" on="0"/>
        <pt x="399" y="649" on="1"/>
        <pt x="349" y="649" on="0"/>
        <pt x="310" y="626" on="1"/>
        <pt x="238" y="584" on="0"/>
        <pt x="172" y="389" on="0"/>
        <pt x="172" y="179" on="0"/>
        <pt x="254" y="44" on="0"/>
      </contour>
    </TTGlyph>
    <TTGlyph name="Odieresis" xMin="60" yMin="-9" xMax="672" yMax="885">
      <contour>
        <pt x="514" y="775" on="1"/>
        <pt x="467" y="775" on="0"/>
        <pt x="467" y="821" on="1"/>
        <pt x="467" y="847" on="0"/>
        <pt x="503" y="885" on="0"/>
        <pt x="528" y="885" on="1"/>
        <pt x="575" y="885" on="0"/>
        <pt x="575" y="840" on="1"/>
        <pt x="575" y="814" on="0"/>
        <pt x="539" y="775" on="0"/>
      </contour>
      <contour>
        <pt x="321" y="775" on="1"/>
        <pt x="274" y="775" on="0"/>
        <pt x="274" y="821" on="1"/>
        <pt x="274" y="847" on="0"/>
        <pt x="310" y="885" on="0"/>
        <pt x="335" y="885" on="1"/>
        <pt x="382" y="885" on="0"/>
        <pt x="382" y="840" on="1"/>
        <pt x="382" y="814" on="0"/>
        <pt x="346" y="775" on="0"/>
      </contour>
      <contour>
        <pt x="308" y="-9" on="1"/>
        <pt x="189" y="-9" on="0"/>
        <pt x="60" y="148" on="0"/>
        <pt x="60" y="274" on="1"/>
        <pt x="60" y="464" on="0"/>
        <pt x="253" y="702" on="0"/>
        <pt x="423" y="702" on="1"/>
        <pt x="542" y="702" on="0"/>
        <pt x="672" y="547" on="0"/>
        <pt x="672" y="425" on="1"/>
        <pt x="672" y="234" on="0"/>
        <pt x="478" y="-9" on="0"/>
      </contour>
      <contour>
        <pt x="331" y="44" on="1"/>
        <pt x="393" y="44" on="0"/>
        <pt x="487" y="115" on="0"/>
        <pt x="512" y="172" on="1"/>
        <pt x="559" y="284" on="0"/>
        <pt x="559" y="517" on="0"/>
        <pt x="477" y="649" on="0"/>
        <pt x="399" y="649" on="1"/>
        <pt x="349" y="649" on="0"/>
        <pt x="310" y="626" on="1"/>
        <pt x="238" y="584" on="0"/>
        <pt x="172" y="389" on="0"/>
        <pt x="172" y="179" on="0"/>
        <pt x="254" y="44" on="0"/>
      </contour>
    </TTGlyph>
    <TTGlyph name="Ograve" xMin="60" yMin="-9" xMax="672" yMax="914">
      <contour>
        <pt x="453" y="749" on="1"/>
        <pt x="269" y="842" on="1"/>
        <pt x="265" y="863" on="1"/>
        <pt x="329" y="914" on="1"/>
        <pt x="479" y="785" on="1"/>
      </contour>
      <contour>
        <pt x="308" y="-9" on="1"/>
        <pt x="189" y="-9" on="0"/>
        <pt x="60" y="148" on="0"/>
        <pt x="60" y="274" on="1"/>
        <pt x="60" y="464" on="0"/>
        <pt x="253" y="702" on="0"/>
        <pt x="423" y="702" on="1"/>
        <pt x="542" y="702" on="0"/>
        <pt x="672" y="547" on="0"/>
        <pt x="672" y="425" on="1"/>
        <pt x="672" y="234" on="0"/>
        <pt x="478" y="-9" on="0"/>
      </contour>
      <contour>
        <pt x="331" y="44" on="1"/>
        <pt x="393" y="44" on="0"/>
        <pt x="487" y="115" on="0"/>
        <pt x="512" y="172" on="1"/>
        <pt x="559" y="284" on="0"/>
        <pt x="559" y="517" on="0"/>
        <pt x="477" y="649" on="0"/>
        <pt x="399" y="649" on="1"/>
        <pt x="349" y="649" on="0"/>
        <pt x="310" y="626" on="1"/>
        <pt x="238" y="584" on="0"/>
        <pt x="172" y="389" on="0"/>
        <pt x="172" y="179" on="0"/>
        <pt x="254" y="44" on="0"/>
      </contour>
    </TTGlyph>
    <TTGlyph name="Ohungarumlaut" xMin="60" yMin="-9" xMax="709" yMax="915">
      <contour>
        <pt x="705" y="862" on="1"/>
        <pt x="507" y="751" on="1"/>
        <pt x="477" y="776" on="1"/>
        <pt x="620" y="915" on="1"/>
        <pt x="709" y="885" on="1"/>
      </contour>
      <contour>
        <pt x="507" y="862" on="1"/>
        <pt x="309" y="751" on="1"/>
        <pt x="279" y="776" on="1"/>
        <pt x="422" y="915" on="1"/>
        <pt x="511" y="885" on="1"/>
      </contour>
      <contour>
        <pt x="308" y="-9" on="1"/>
        <pt x="189" y="-9" on="0"/>
        <pt x="60" y="148" on="0"/>
        <pt x="60" y="274" on="1"/>
        <pt x="60" y="464" on="0"/>
        <pt x="253" y="702" on="0"/>
        <pt x="423" y="702" on="1"/>
        <pt x="542" y="702" on="0"/>
        <pt x="672" y="547" on="0"/>
        <pt x="672" y="425" on="1"/>
        <pt x="672" y="234" on="0"/>
        <pt x="478" y="-9" on="0"/>
      </contour>
      <contour>
        <pt x="331" y="44" on="1"/>
        <pt x="393" y="44" on="0"/>
        <pt x="487" y="115" on="0"/>
        <pt x="512" y="172" on="1"/>
        <pt x="559" y="284" on="0"/>
        <pt x="559" y="517" on="0"/>
        <pt x="477" y="649" on="0"/>
        <pt x="399" y="649" on="1"/>
        <pt x="349" y="649" on="0"/>
        <pt x="310" y="626" on="1"/>
        <pt x="238" y="584" on="0"/>
        <pt x="172" y="389" on="0"/>
        <pt x="172" y="179" on="0"/>
        <pt x="254" y="44" on="0"/>
      </contour>
    </TTGlyph>
    <TTGlyph name="Omacron" xMin="60" yMin="-9" xMax="672" yMax="864">
      <contour>
        <pt x="545" y="804" on="1"/>
        <pt x="296" y="804" on="1"/>
        <pt x="307" y="864" on="1"/>
        <pt x="556" y="864" on="1"/>
      </contour>
      <contour>
        <pt x="308" y="-9" on="1"/>
        <pt x="189" y="-9" on="0"/>
        <pt x="60" y="148" on="0"/>
        <pt x="60" y="274" on="1"/>
        <pt x="60" y="464" on="0"/>
        <pt x="253" y="702" on="0"/>
        <pt x="423" y="702" on="1"/>
        <pt x="542" y="702" on="0"/>
        <pt x="672" y="547" on="0"/>
        <pt x="672" y="425" on="1"/>
        <pt x="672" y="234" on="0"/>
        <pt x="478" y="-9" on="0"/>
      </contour>
      <contour>
        <pt x="331" y="44" on="1"/>
        <pt x="393" y="44" on="0"/>
        <pt x="487" y="115" on="0"/>
        <pt x="512" y="172" on="1"/>
        <pt x="559" y="284" on="0"/>
        <pt x="559" y="517" on="0"/>
        <pt x="477" y="649" on="0"/>
        <pt x="399" y="649" on="1"/>
        <pt x="349" y="649" on="0"/>
        <pt x="310" y="626" on="1"/>
        <pt x="238" y="584" on="0"/>
        <pt x="172" y="389" on="0"/>
        <pt x="172" y="179" on="0"/>
        <pt x="254" y="44" on="0"/>
      </contour>
    </TTGlyph>
    <TTGlyph name="Omega" xMin="34" yMin="0" xMax="710" yMax="702">
      <contour>
        <pt x="608" y="0" on="1"/>
        <pt x="372" y="0" on="1"/>
        <pt x="368" y="32" on="1"/>
        <pt x="422" y="89" on="0"/>
        <pt x="489" y="169" on="0"/>
        <pt x="524" y="224" on="1"/>
        <pt x="594" y="330" on="0"/>
        <pt x="594" y="452" on="1"/>
        <pt x="594" y="538" on="0"/>
        <pt x="510" y="649" on="0"/>
        <pt x="432" y="649" on="1"/>
        <pt x="372" y="649" on="0"/>
        <pt x="281" y="590" on="0"/>
        <pt x="256" y="543" on="1"/>
        <pt x="206" y="452" on="0"/>
        <pt x="206" y="243" on="0"/>
        <pt x="256" y="128" on="1"/>
        <pt x="262" y="116" on="0"/>
        <pt x="298" y="39" on="0"/>
        <pt x="301" y="32" on="1"/>
        <pt x="285" y="0" on="1"/>
        <pt x="48" y="0" on="1"/>
        <pt x="34" y="55" on="0"/>
        <pt x="34" y="153" on="0"/>
        <pt x="35" y="166" on="1"/>
        <pt x="87" y="171" on="1"/>
        <pt x="104" y="111" on="0"/>
        <pt x="117" y="82" on="0"/>
        <pt x="127" y="81" on="1"/>
        <pt x="155" y="77" on="0"/>
        <pt x="190" y="77" on="1"/>
        <pt x="216" y="77" on="1"/>
        <pt x="221" y="84" on="1"/>
        <pt x="206" y="90" on="0"/>
        <pt x="195" y="103" on="1"/>
        <pt x="97" y="223" on="0"/>
        <pt x="97" y="356" on="1"/>
        <pt x="97" y="509" on="0"/>
        <pt x="289" y="702" on="0"/>
        <pt x="453" y="702" on="1"/>
        <pt x="573" y="702" on="0"/>
        <pt x="710" y="580" on="0"/>
        <pt x="710" y="387" on="0"/>
        <pt x="613" y="211" on="0"/>
        <pt x="498" y="106" on="1"/>
        <pt x="482" y="92" on="0"/>
        <pt x="463" y="84" on="1"/>
        <pt x="464" y="77" on="1"/>
        <pt x="495" y="77" on="1"/>
        <pt x="532" y="77" on="0"/>
        <pt x="560" y="81" on="1"/>
        <pt x="570" y="82" on="0"/>
        <pt x="595" y="112" on="0"/>
        <pt x="633" y="171" on="1"/>
        <pt x="683" y="166" on="1"/>
        <pt x="655" y="73" on="0"/>
      </contour>
    </TTGlyph>
    <TTGlyph name="Oslash" xMin="61" yMin="-80" xMax="673" yMax="772">
      <contour>
        <pt x="121" y="-80" on="1"/>
        <pt x="70" y="-60" on="1"/>
        <pt x="142" y="52" on="1"/>
        <pt x="61" y="128" on="0"/>
        <pt x="61" y="274" on="1"/>
        <pt x="61" y="464" on="0"/>
        <pt x="254" y="702" on="0"/>
        <pt x="424" y="702" on="1"/>
        <pt x="491" y="702" on="0"/>
        <pt x="541" y="676" on="1"/>
        <pt x="602" y="772" on="1"/>
        <pt x="654" y="752" on="1"/>
        <pt x="586" y="646" on="1"/>
        <pt x="673" y="571" on="0"/>
        <pt x="673" y="425" on="1"/>
        <pt x="673" y="234" on="0"/>
        <pt x="479" y="-9" on="0"/>
        <pt x="309" y="-9" on="1"/>
        <pt x="237" y="-9" on="0"/>
        <pt x="185" y="20" on="1"/>
      </contour>
      <contour>
        <pt x="198" y="140" on="1"/>
        <pt x="498" y="609" on="1"/>
        <pt x="458" y="649" on="0"/>
        <pt x="350" y="649" on="0"/>
        <pt x="310" y="626" on="1"/>
        <pt x="239" y="584" on="0"/>
        <pt x="173" y="389" on="0"/>
        <pt x="173" y="199" on="0"/>
      </contour>
      <contour>
        <pt x="531" y="560" on="1"/>
        <pt x="230" y="90" on="1"/>
        <pt x="270" y="44" on="0"/>
        <pt x="394" y="44" on="0"/>
        <pt x="488" y="115" on="0"/>
        <pt x="512" y="172" on="1"/>
        <pt x="560" y="284" on="0"/>
        <pt x="560" y="414" on="1"/>
        <pt x="560" y="502" on="0"/>
      </contour>
    </TTGlyph>
    <TTGlyph name="Otilde" xMin="60" yMin="-9" xMax="672" yMax="891">
      <contour>
        <pt x="607" y="891" on="1"/>
        <pt x="630" y="879" on="1"/>
        <pt x="565" y="778" on="0"/>
        <pt x="519" y="778" on="1"/>
        <pt x="502" y="778" on="0"/>
        <pt x="374" y="805" on="0"/>
        <pt x="312" y="805" on="0"/>
        <pt x="272" y="771" on="1"/>
        <pt x="252" y="787" on="1"/>
        <pt x="294" y="840" on="0"/>
        <pt x="348" y="883" on="0"/>
        <pt x="394" y="883" on="0"/>
        <pt x="518" y="856" on="0"/>
        <pt x="567" y="856" on="0"/>
      </contour>
      <contour>
        <pt x="308" y="-9" on="1"/>
        <pt x="189" y="-9" on="0"/>
        <pt x="60" y="148" on="0"/>
        <pt x="60" y="274" on="1"/>
        <pt x="60" y="464" on="0"/>
        <pt x="253" y="702" on="0"/>
        <pt x="423" y="702" on="1"/>
        <pt x="542" y="702" on="0"/>
        <pt x="672" y="547" on="0"/>
        <pt x="672" y="425" on="1"/>
        <pt x="672" y="234" on="0"/>
        <pt x="478" y="-9" on="0"/>
      </contour>
      <contour>
        <pt x="331" y="44" on="1"/>
        <pt x="393" y="44" on="0"/>
        <pt x="487" y="115" on="0"/>
        <pt x="512" y="172" on="1"/>
        <pt x="559" y="284" on="0"/>
        <pt x="559" y="517" on="0"/>
        <pt x="477" y="649" on="0"/>
        <pt x="399" y="649" on="1"/>
        <pt x="349" y="649" on="0"/>
        <pt x="310" y="626" on="1"/>
        <pt x="238" y="584" on="0"/>
        <pt x="172" y="389" on="0"/>
        <pt x="172" y="179" on="0"/>
        <pt x="254" y="44" on="0"/>
      </contour>
    </TTGlyph>
    <TTGlyph name="P" xMin="21" yMin="0" xMax="594" yMax="693">
      <contour>
        <pt x="310" y="0" on="1"/>
        <pt x="21" y="0" on="1"/>
        <pt x="21" y="39" on="1"/>
        <pt x="75" y="48" on="0"/>
        <pt x="102" y="70" on="0"/>
        <pt x="108" y="101" on="1"/>
        <pt x="194" y="592" on="1"/>
        <pt x="197" y="606" on="0"/>
        <pt x="197" y="631" on="0"/>
        <pt x="170" y="647" on="0"/>
        <pt x="129" y="654" on="1"/>
        <pt x="135" y="693" on="1"/>
        <pt x="410" y="693" on="1"/>
        <pt x="500" y="693" on="0"/>
        <pt x="594" y="609" on="0"/>
        <pt x="594" y="539" on="1"/>
        <pt x="594" y="428" on="0"/>
        <pt x="430" y="268" on="0"/>
        <pt x="284" y="268" on="1"/>
        <pt x="234" y="268" on="1"/>
        <pt x="204" y="95" on="1"/>
        <pt x="202" y="85" on="0"/>
        <pt x="202" y="77" on="1"/>
        <pt x="202" y="52" on="0"/>
        <pt x="225" y="50" on="1"/>
        <pt x="315" y="39" on="1"/>
      </contour>
      <contour>
        <pt x="244" y="321" on="1"/>
        <pt x="286" y="321" on="1"/>
        <pt x="359" y="321" on="0"/>
        <pt x="417" y="360" on="1"/>
        <pt x="484" y="405" on="0"/>
        <pt x="484" y="528" on="1"/>
        <pt x="484" y="589" on="0"/>
        <pt x="417" y="640" on="0"/>
        <pt x="374" y="640" on="1"/>
        <pt x="320" y="640" on="1"/>
        <pt x="300" y="640" on="0"/>
        <pt x="296" y="616" on="1"/>
      </contour>
    </TTGlyph>
    <TTGlyph name="Q" xMin="62" yMin="-152" xMax="673" yMax="702">
      <contour>
        <pt x="606" y="-59" on="1"/>
        <pt x="624" y="-95" on="1"/>
        <pt x="546" y="-152" on="0"/>
        <pt x="458" y="-152" on="0"/>
        <pt x="422" y="-106" on="1"/>
        <pt x="407" y="-86" on="0"/>
        <pt x="390" y="-66" on="1"/>
        <pt x="349" y="-17" on="0"/>
        <pt x="275" y="-7" on="1"/>
        <pt x="174" y="5" on="0"/>
        <pt x="62" y="153" on="0"/>
        <pt x="62" y="273" on="1"/>
        <pt x="62" y="463" on="0"/>
        <pt x="255" y="702" on="0"/>
        <pt x="424" y="702" on="1"/>
        <pt x="539" y="702" on="0"/>
        <pt x="673" y="550" on="0"/>
        <pt x="673" y="425" on="1"/>
        <pt x="673" y="269" on="0"/>
        <pt x="539" y="44" on="0"/>
        <pt x="424" y="10" on="1"/>
        <pt x="423" y="6" on="1"/>
        <pt x="440" y="-1" on="0"/>
        <pt x="522" y="-74" on="0"/>
        <pt x="565" y="-74" on="0"/>
      </contour>
      <contour>
        <pt x="335" y="44" on="1"/>
        <pt x="384" y="44" on="0"/>
        <pt x="423" y="68" on="1"/>
        <pt x="492" y="109" on="0"/>
        <pt x="560" y="307" on="0"/>
        <pt x="560" y="518" on="0"/>
        <pt x="477" y="649" on="0"/>
        <pt x="401" y="649" on="1"/>
        <pt x="340" y="649" on="0"/>
        <pt x="248" y="581" on="0"/>
        <pt x="224" y="525" on="1"/>
        <pt x="175" y="414" on="0"/>
        <pt x="175" y="176" on="0"/>
        <pt x="256" y="44" on="0"/>
      </contour>
    </TTGlyph>
    <TTGlyph name="R" xMin="21" yMin="0" xMax="588" yMax="693">
      <contour>
        <pt x="577" y="0" on="1"/>
        <pt x="433" y="0" on="1"/>
        <pt x="296" y="304" on="1"/>
        <pt x="241" y="304" on="1"/>
        <pt x="205" y="99" on="1"/>
        <pt x="202" y="84" on="0"/>
        <pt x="202" y="76" on="1"/>
        <pt x="202" y="55" on="0"/>
        <pt x="221" y="50" on="1"/>
        <pt x="269" y="39" on="1"/>
        <pt x="264" y="0" on="1"/>
        <pt x="21" y="0" on="1"/>
        <pt x="21" y="39" on="1"/>
        <pt x="75" y="48" on="0"/>
        <pt x="102" y="70" on="0"/>
        <pt x="108" y="101" on="1"/>
        <pt x="194" y="592" on="1"/>
        <pt x="197" y="606" on="0"/>
        <pt x="197" y="631" on="0"/>
        <pt x="170" y="646" on="0"/>
        <pt x="129" y="654" on="1"/>
        <pt x="135" y="693" on="1"/>
        <pt x="401" y="693" on="1"/>
        <pt x="492" y="693" on="0"/>
        <pt x="588" y="612" on="0"/>
        <pt x="588" y="455" on="0"/>
        <pt x="477" y="335" on="0"/>
        <pt x="393" y="319" on="1"/>
        <pt x="392" y="314" on="1"/>
        <pt x="402" y="311" on="0"/>
        <pt x="410" y="292" on="1"/>
        <pt x="507" y="80" on="1"/>
        <pt x="517" y="58" on="0"/>
        <pt x="546" y="42" on="0"/>
        <pt x="582" y="39" on="1"/>
      </contour>
      <contour>
        <pt x="250" y="355" on="1"/>
        <pt x="295" y="355" on="1"/>
        <pt x="381" y="355" on="0"/>
        <pt x="479" y="442" on="0"/>
        <pt x="479" y="589" on="0"/>
        <pt x="414" y="640" on="0"/>
        <pt x="361" y="640" on="1"/>
        <pt x="320" y="640" on="1"/>
        <pt x="300" y="640" on="0"/>
        <pt x="296" y="616" on="1"/>
      </contour>
    </TTGlyph>
    <TTGlyph name="Racute" xMin="21" yMin="0" xMax="588" yMax="914">
      <contour>
        <pt x="565" y="842" on="1"/>
        <pt x="347" y="749" on="1"/>
        <pt x="323" y="785" on="1"/>
        <pt x="521" y="914" on="1"/>
        <pt x="577" y="863" on="1"/>
      </contour>
      <contour>
        <pt x="577" y="0" on="1"/>
        <pt x="433" y="0" on="1"/>
        <pt x="296" y="304" on="1"/>
        <pt x="241" y="304" on="1"/>
        <pt x="205" y="99" on="1"/>
        <pt x="202" y="84" on="0"/>
        <pt x="202" y="76" on="1"/>
        <pt x="202" y="55" on="0"/>
        <pt x="221" y="50" on="1"/>
        <pt x="269" y="39" on="1"/>
        <pt x="264" y="0" on="1"/>
        <pt x="21" y="0" on="1"/>
        <pt x="21" y="39" on="1"/>
        <pt x="75" y="48" on="0"/>
        <pt x="102" y="70" on="0"/>
        <pt x="108" y="101" on="1"/>
        <pt x="194" y="592" on="1"/>
        <pt x="197" y="606" on="0"/>
        <pt x="197" y="631" on="0"/>
        <pt x="170" y="646" on="0"/>
        <pt x="129" y="654" on="1"/>
        <pt x="135" y="693" on="1"/>
        <pt x="401" y="693" on="1"/>
        <pt x="492" y="693" on="0"/>
        <pt x="588" y="612" on="0"/>
        <pt x="588" y="455" on="0"/>
        <pt x="477" y="335" on="0"/>
        <pt x="393" y="319" on="1"/>
        <pt x="392" y="314" on="1"/>
        <pt x="402" y="311" on="0"/>
        <pt x="410" y="292" on="1"/>
        <pt x="507" y="80" on="1"/>
        <pt x="517" y="58" on="0"/>
        <pt x="546" y="42" on="0"/>
        <pt x="582" y="39" on="1"/>
      </contour>
      <contour>
        <pt x="250" y="355" on="1"/>
        <pt x="295" y="355" on="1"/>
        <pt x="381" y="355" on="0"/>
        <pt x="479" y="442" on="0"/>
        <pt x="479" y="589" on="0"/>
        <pt x="414" y="640" on="0"/>
        <pt x="361" y="640" on="1"/>
        <pt x="320" y="640" on="1"/>
        <pt x="300" y="640" on="0"/>
        <pt x="296" y="616" on="1"/>
      </contour>
    </TTGlyph>
    <TTGlyph name="Rcaron" xMin="21" yMin="0" xMax="588" yMax="917">
      <contour>
        <pt x="576" y="891" on="1"/>
        <pt x="419" y="752" on="1"/>
        <pt x="363" y="752" on="1"/>
        <pt x="248" y="891" on="1"/>
        <pt x="278" y="917" on="1"/>
        <pt x="400" y="826" on="1"/>
        <pt x="556" y="917" on="1"/>
      </contour>
      <contour>
        <pt x="577" y="0" on="1"/>
        <pt x="433" y="0" on="1"/>
        <pt x="296" y="304" on="1"/>
        <pt x="241" y="304" on="1"/>
        <pt x="205" y="99" on="1"/>
        <pt x="202" y="84" on="0"/>
        <pt x="202" y="76" on="1"/>
        <pt x="202" y="55" on="0"/>
        <pt x="221" y="50" on="1"/>
        <pt x="269" y="39" on="1"/>
        <pt x="264" y="0" on="1"/>
        <pt x="21" y="0" on="1"/>
        <pt x="21" y="39" on="1"/>
        <pt x="75" y="48" on="0"/>
        <pt x="102" y="70" on="0"/>
        <pt x="108" y="101" on="1"/>
        <pt x="194" y="592" on="1"/>
        <pt x="197" y="606" on="0"/>
        <pt x="197" y="631" on="0"/>
        <pt x="170" y="646" on="0"/>
        <pt x="129" y="654" on="1"/>
        <pt x="135" y="693" on="1"/>
        <pt x="401" y="693" on="1"/>
        <pt x="492" y="693" on="0"/>
        <pt x="588" y="612" on="0"/>
        <pt x="588" y="455" on="0"/>
        <pt x="477" y="335" on="0"/>
        <pt x="393" y="319" on="1"/>
        <pt x="392" y="314" on="1"/>
        <pt x="402" y="311" on="0"/>
        <pt x="410" y="292" on="1"/>
        <pt x="507" y="80" on="1"/>
        <pt x="517" y="58" on="0"/>
        <pt x="546" y="42" on="0"/>
        <pt x="582" y="39" on="1"/>
      </contour>
      <contour>
        <pt x="250" y="355" on="1"/>
        <pt x="295" y="355" on="1"/>
        <pt x="381" y="355" on="0"/>
        <pt x="479" y="442" on="0"/>
        <pt x="479" y="589" on="0"/>
        <pt x="414" y="640" on="0"/>
        <pt x="361" y="640" on="1"/>
        <pt x="320" y="640" on="1"/>
        <pt x="300" y="640" on="0"/>
        <pt x="296" y="616" on="1"/>
      </contour>
    </TTGlyph>
    <TTGlyph name="Rcommaaccent" xMin="21" yMin="-210" xMax="588" yMax="693">
      <contour>
        <pt x="577" y="0" on="1"/>
        <pt x="433" y="0" on="1"/>
        <pt x="296" y="304" on="1"/>
        <pt x="241" y="304" on="1"/>
        <pt x="205" y="99" on="1"/>
        <pt x="202" y="84" on="0"/>
        <pt x="202" y="76" on="1"/>
        <pt x="202" y="55" on="0"/>
        <pt x="221" y="50" on="1"/>
        <pt x="269" y="39" on="1"/>
        <pt x="264" y="0" on="1"/>
        <pt x="21" y="0" on="1"/>
        <pt x="21" y="39" on="1"/>
        <pt x="75" y="48" on="0"/>
        <pt x="102" y="70" on="0"/>
        <pt x="108" y="101" on="1"/>
        <pt x="194" y="592" on="1"/>
        <pt x="197" y="606" on="0"/>
        <pt x="197" y="631" on="0"/>
        <pt x="170" y="646" on="0"/>
        <pt x="129" y="654" on="1"/>
        <pt x="135" y="693" on="1"/>
        <pt x="401" y="693" on="1"/>
        <pt x="492" y="693" on="0"/>
        <pt x="588" y="612" on="0"/>
        <pt x="588" y="455" on="0"/>
        <pt x="477" y="335" on="0"/>
        <pt x="393" y="319" on="1"/>
        <pt x="392" y="314" on="1"/>
        <pt x="402" y="311" on="0"/>
        <pt x="410" y="292" on="1"/>
        <pt x="507" y="80" on="1"/>
        <pt x="517" y="58" on="0"/>
        <pt x="546" y="42" on="0"/>
        <pt x="582" y="39" on="1"/>
      </contour>
      <contour>
        <pt x="250" y="355" on="1"/>
        <pt x="295" y="355" on="1"/>
        <pt x="381" y="355" on="0"/>
        <pt x="479" y="442" on="0"/>
        <pt x="479" y="589" on="0"/>
        <pt x="414" y="640" on="0"/>
        <pt x="361" y="640" on="1"/>
        <pt x="320" y="640" on="1"/>
        <pt x="300" y="640" on="0"/>
        <pt x="296" y="616" on="1"/>
      </contour>
      <contour>
        <pt x="262" y="-210" on="1"/>
        <pt x="241" y="-185" on="1"/>
        <pt x="298" y="-149" on="0"/>
        <pt x="298" y="-117" on="1"/>
        <pt x="298" y="-108" on="0"/>
        <pt x="285" y="-80" on="0"/>
        <pt x="285" y="-48" on="0"/>
        <pt x="314" y="-21" on="0"/>
        <pt x="354" y="-21" on="0"/>
        <pt x="380" y="-50" on="0"/>
        <pt x="380" y="-108" on="0"/>
        <pt x="318" y="-181" on="0"/>
      </contour>
    </TTGlyph>
    <TTGlyph name="S" xMin="15" yMin="-9" xMax="504" yMax="702">
      <contour>
        <pt x="466" y="506" on="1"/>
        <pt x="407" y="499" on="1"/>
        <pt x="412" y="561" on="0"/>
        <pt x="412" y="615" on="0"/>
        <pt x="402" y="625" on="1"/>
        <pt x="381" y="646" on="0"/>
        <pt x="277" y="646" on="0"/>
        <pt x="244" y="622" on="1"/>
        <pt x="196" y="587" on="0"/>
        <pt x="196" y="478" on="0"/>
        <pt x="239" y="446" on="1"/>
        <pt x="272" y="420" on="0"/>
        <pt x="389" y="364" on="0"/>
        <pt x="456" y="282" on="0"/>
        <pt x="456" y="216" on="1"/>
        <pt x="456" y="120" on="0"/>
        <pt x="317" y="-9" on="0"/>
        <pt x="199" y="-9" on="1"/>
        <pt x="141" y="-9" on="0"/>
        <pt x="39" y="20" on="0"/>
        <pt x="15" y="34" on="1"/>
        <pt x="15" y="103" on="0"/>
        <pt x="53" y="200" on="1"/>
        <pt x="111" y="203" on="1"/>
        <pt x="107" y="131" on="0"/>
        <pt x="107" y="90" on="0"/>
        <pt x="131" y="70" on="0"/>
        <pt x="194" y="47" on="0"/>
        <pt x="273" y="47" on="0"/>
        <pt x="306" y="71" on="1"/>
        <pt x="356" y="107" on="0"/>
        <pt x="356" y="239" on="0"/>
        <pt x="290" y="280" on="1"/>
        <pt x="270" y="293" on="0"/>
        <pt x="252" y="303" on="1"/>
        <pt x="171" y="345" on="0"/>
        <pt x="105" y="420" on="0"/>
        <pt x="105" y="483" on="1"/>
        <pt x="105" y="579" on="0"/>
        <pt x="250" y="702" on="0"/>
        <pt x="366" y="702" on="1"/>
        <pt x="443" y="702" on="0"/>
        <pt x="504" y="675" on="1"/>
        <pt x="500" y="602" on="0"/>
      </contour>
    </TTGlyph>
    <TTGlyph name="Sacute" xMin="15" yMin="-9" xMax="532" yMax="914">
      <contour>
        <pt x="520" y="842" on="1"/>
        <pt x="302" y="749" on="1"/>
        <pt x="278" y="785" on="1"/>
        <pt x="476" y="914" on="1"/>
        <pt x="532" y="863" on="1"/>
      </contour>
      <contour>
        <pt x="466" y="506" on="1"/>
        <pt x="407" y="499" on="1"/>
        <pt x="412" y="561" on="0"/>
        <pt x="412" y="615" on="0"/>
        <pt x="402" y="625" on="1"/>
        <pt x="381" y="646" on="0"/>
        <pt x="277" y="646" on="0"/>
        <pt x="244" y="622" on="1"/>
        <pt x="196" y="587" on="0"/>
        <pt x="196" y="478" on="0"/>
        <pt x="239" y="446" on="1"/>
        <pt x="272" y="420" on="0"/>
        <pt x="389" y="364" on="0"/>
        <pt x="456" y="282" on="0"/>
        <pt x="456" y="216" on="1"/>
        <pt x="456" y="120" on="0"/>
        <pt x="317" y="-9" on="0"/>
        <pt x="199" y="-9" on="1"/>
        <pt x="141" y="-9" on="0"/>
        <pt x="39" y="20" on="0"/>
        <pt x="15" y="34" on="1"/>
        <pt x="15" y="103" on="0"/>
        <pt x="53" y="200" on="1"/>
        <pt x="111" y="203" on="1"/>
        <pt x="107" y="131" on="0"/>
        <pt x="107" y="90" on="0"/>
        <pt x="131" y="70" on="0"/>
        <pt x="194" y="47" on="0"/>
        <pt x="273" y="47" on="0"/>
        <pt x="306" y="71" on="1"/>
        <pt x="356" y="107" on="0"/>
        <pt x="356" y="239" on="0"/>
        <pt x="290" y="280" on="1"/>
        <pt x="270" y="293" on="0"/>
        <pt x="252" y="303" on="1"/>
        <pt x="171" y="345" on="0"/>
        <pt x="105" y="420" on="0"/>
        <pt x="105" y="483" on="1"/>
        <pt x="105" y="579" on="0"/>
        <pt x="250" y="702" on="0"/>
        <pt x="366" y="702" on="1"/>
        <pt x="443" y="702" on="0"/>
        <pt x="504" y="675" on="1"/>
        <pt x="500" y="602" on="0"/>
      </contour>
    </TTGlyph>
    <TTGlyph name="Scaron" xMin="15" yMin="-9" xMax="531" yMax="917">
      <contour>
        <pt x="531" y="891" on="1"/>
        <pt x="374" y="752" on="1"/>
        <pt x="318" y="752" on="1"/>
        <pt x="203" y="891" on="1"/>
        <pt x="233" y="917" on="1"/>
        <pt x="355" y="826" on="1"/>
        <pt x="511" y="917" on="1"/>
      </contour>
      <contour>
        <pt x="466" y="506" on="1"/>
        <pt x="407" y="499" on="1"/>
        <pt x="412" y="561" on="0"/>
        <pt x="412" y="615" on="0"/>
        <pt x="402" y="625" on="1"/>
        <pt x="381" y="646" on="0"/>
        <pt x="277" y="646" on="0"/>
        <pt x="244" y="622" on="1"/>
        <pt x="196" y="587" on="0"/>
        <pt x="196" y="478" on="0"/>
        <pt x="239" y="446" on="1"/>
        <pt x="272" y="420" on="0"/>
        <pt x="389" y="364" on="0"/>
        <pt x="456" y="282" on="0"/>
        <pt x="456" y="216" on="1"/>
        <pt x="456" y="120" on="0"/>
        <pt x="317" y="-9" on="0"/>
        <pt x="199" y="-9" on="1"/>
        <pt x="141" y="-9" on="0"/>
        <pt x="39" y="20" on="0"/>
        <pt x="15" y="34" on="1"/>
        <pt x="15" y="103" on="0"/>
        <pt x="53" y="200" on="1"/>
        <pt x="111" y="203" on="1"/>
        <pt x="107" y="131" on="0"/>
        <pt x="107" y="90" on="0"/>
        <pt x="131" y="70" on="0"/>
        <pt x="194" y="47" on="0"/>
        <pt x="273" y="47" on="0"/>
        <pt x="306" y="71" on="1"/>
        <pt x="356" y="107" on="0"/>
        <pt x="356" y="239" on="0"/>
        <pt x="290" y="280" on="1"/>
        <pt x="270" y="293" on="0"/>
        <pt x="252" y="303" on="1"/>
        <pt x="171" y="345" on="0"/>
        <pt x="105" y="420" on="0"/>
        <pt x="105" y="483" on="1"/>
        <pt x="105" y="579" on="0"/>
        <pt x="250" y="702" on="0"/>
        <pt x="366" y="702" on="1"/>
        <pt x="443" y="702" on="0"/>
        <pt x="504" y="675" on="1"/>
        <pt x="500" y="602" on="0"/>
      </contour>
    </TTGlyph>
    <TTGlyph name="Scedilla" xMin="15" yMin="-217" xMax="504" yMax="702">
      <contour>
        <pt x="123" y="-217" on="1"/>
        <pt x="125" y="-186" on="1"/>
        <pt x="173" y="-180" on="0"/>
        <pt x="231" y="-146" on="0"/>
        <pt x="231" y="-122" on="1"/>
        <pt x="231" y="-90" on="0"/>
        <pt x="191" y="-90" on="1"/>
        <pt x="170" y="-90" on="0"/>
        <pt x="148" y="-100" on="1"/>
        <pt x="142" y="-89" on="1"/>
        <pt x="180" y="-9" on="1"/>
        <pt x="127" y="-6" on="0"/>
        <pt x="36" y="21" on="0"/>
        <pt x="15" y="34" on="1"/>
        <pt x="15" y="103" on="0"/>
        <pt x="53" y="200" on="1"/>
        <pt x="111" y="203" on="1"/>
        <pt x="107" y="131" on="0"/>
        <pt x="107" y="90" on="0"/>
        <pt x="131" y="70" on="0"/>
        <pt x="194" y="47" on="0"/>
        <pt x="273" y="47" on="0"/>
        <pt x="306" y="71" on="1"/>
        <pt x="356" y="107" on="0"/>
        <pt x="356" y="239" on="0"/>
        <pt x="290" y="280" on="1"/>
        <pt x="270" y="293" on="0"/>
        <pt x="252" y="303" on="1"/>
        <pt x="171" y="345" on="0"/>
        <pt x="105" y="420" on="0"/>
        <pt x="105" y="483" on="1"/>
        <pt x="105" y="579" on="0"/>
        <pt x="250" y="702" on="0"/>
        <pt x="366" y="702" on="1"/>
        <pt x="443" y="702" on="0"/>
        <pt x="504" y="675" on="1"/>
        <pt x="500" y="602" on="0"/>
        <pt x="466" y="506" on="1"/>
        <pt x="407" y="499" on="1"/>
        <pt x="412" y="561" on="0"/>
        <pt x="412" y="615" on="0"/>
        <pt x="402" y="625" on="1"/>
        <pt x="381" y="646" on="0"/>
        <pt x="277" y="646" on="0"/>
        <pt x="244" y="622" on="1"/>
        <pt x="196" y="587" on="0"/>
        <pt x="196" y="478" on="0"/>
        <pt x="239" y="446" on="1"/>
        <pt x="272" y="420" on="0"/>
        <pt x="389" y="364" on="0"/>
        <pt x="456" y="282" on="0"/>
        <pt x="456" y="216" on="1"/>
        <pt x="456" y="128" on="0"/>
        <pt x="336" y="3" on="0"/>
        <pt x="234" y="-7" on="1"/>
        <pt x="215" y="-47" on="1"/>
        <pt x="225" y="-45" on="0"/>
        <pt x="278" y="-45" on="0"/>
        <pt x="317" y="-74" on="0"/>
        <pt x="317" y="-99" on="1"/>
        <pt x="317" y="-144" on="0"/>
        <pt x="211" y="-213" on="0"/>
      </contour>
    </TTGlyph>
    <TTGlyph name="Scircumflex" xMin="15" yMin="-9" xMax="530" yMax="914">
      <contour>
        <pt x="530" y="775" on="1"/>
        <pt x="500" y="749" on="1"/>
        <pt x="378" y="840" on="1"/>
        <pt x="222" y="749" on="1"/>
        <pt x="202" y="775" on="1"/>
        <pt x="358" y="914" on="1"/>
        <pt x="414" y="914" on="1"/>
      </contour>
      <contour>
        <pt x="466" y="506" on="1"/>
        <pt x="407" y="499" on="1"/>
        <pt x="412" y="561" on="0"/>
        <pt x="412" y="615" on="0"/>
        <pt x="402" y="625" on="1"/>
        <pt x="381" y="646" on="0"/>
        <pt x="277" y="646" on="0"/>
        <pt x="244" y="622" on="1"/>
        <pt x="196" y="587" on="0"/>
        <pt x="196" y="478" on="0"/>
        <pt x="239" y="446" on="1"/>
        <pt x="272" y="420" on="0"/>
        <pt x="389" y="364" on="0"/>
        <pt x="456" y="282" on="0"/>
        <pt x="456" y="216" on="1"/>
        <pt x="456" y="120" on="0"/>
        <pt x="317" y="-9" on="0"/>
        <pt x="199" y="-9" on="1"/>
        <pt x="141" y="-9" on="0"/>
        <pt x="39" y="20" on="0"/>
        <pt x="15" y="34" on="1"/>
        <pt x="15" y="103" on="0"/>
        <pt x="53" y="200" on="1"/>
        <pt x="111" y="203" on="1"/>
        <pt x="107" y="131" on="0"/>
        <pt x="107" y="90" on="0"/>
        <pt x="131" y="70" on="0"/>
        <pt x="194" y="47" on="0"/>
        <pt x="273" y="47" on="0"/>
        <pt x="306" y="71" on="1"/>
        <pt x="356" y="107" on="0"/>
        <pt x="356" y="239" on="0"/>
        <pt x="290" y="280" on="1"/>
        <pt x="270" y="293" on="0"/>
        <pt x="252" y="303" on="1"/>
        <pt x="171" y="345" on="0"/>
        <pt x="105" y="420" on="0"/>
        <pt x="105" y="483" on="1"/>
        <pt x="105" y="579" on="0"/>
        <pt x="250" y="702" on="0"/>
        <pt x="366" y="702" on="1"/>
        <pt x="443" y="702" on="0"/>
        <pt x="504" y="675" on="1"/>
        <pt x="500" y="602" on="0"/>
      </contour>
    </TTGlyph>
    <TTGlyph name="Scommaaccent" xMin="15" yMin="-210" xMax="504" yMax="702">
      <contour>
        <pt x="466" y="506" on="1"/>
        <pt x="407" y="499" on="1"/>
        <pt x="412" y="561" on="0"/>
        <pt x="412" y="615" on="0"/>
        <pt x="402" y="625" on="1"/>
        <pt x="381" y="646" on="0"/>
        <pt x="277" y="646" on="0"/>
        <pt x="244" y="622" on="1"/>
        <pt x="196" y="587" on="0"/>
        <pt x="196" y="478" on="0"/>
        <pt x="239" y="446" on="1"/>
        <pt x="272" y="420" on="0"/>
        <pt x="389" y="364" on="0"/>
        <pt x="456" y="282" on="0"/>
        <pt x="456" y="216" on="1"/>
        <pt x="456" y="120" on="0"/>
        <pt x="317" y="-9" on="0"/>
        <pt x="199" y="-9" on="1"/>
        <pt x="141" y="-9" on="0"/>
        <pt x="39" y="20" on="0"/>
        <pt x="15" y="34" on="1"/>
        <pt x="15" y="103" on="0"/>
        <pt x="53" y="200" on="1"/>
        <pt x="111" y="203" on="1"/>
        <pt x="107" y="131" on="0"/>
        <pt x="107" y="90" on="0"/>
        <pt x="131" y="70" on="0"/>
        <pt x="194" y="47" on="0"/>
        <pt x="273" y="47" on="0"/>
        <pt x="306" y="71" on="1"/>
        <pt x="356" y="107" on="0"/>
        <pt x="356" y="239" on="0"/>
        <pt x="290" y="280" on="1"/>
        <pt x="270" y="293" on="0"/>
        <pt x="252" y="303" on="1"/>
        <pt x="171" y="345" on="0"/>
        <pt x="105" y="420" on="0"/>
        <pt x="105" y="483" on="1"/>
        <pt x="105" y="579" on="0"/>
        <pt x="250" y="702" on="0"/>
        <pt x="366" y="702" on="1"/>
        <pt x="443" y="702" on="0"/>
        <pt x="504" y="675" on="1"/>
        <pt x="500" y="602" on="0"/>
      </contour>
      <contour>
        <pt x="146" y="-210" on="1"/>
        <pt x="125" y="-185" on="1"/>
        <pt x="182" y="-149" on="0"/>
        <pt x="182" y="-117" on="1"/>
        <pt x="182" y="-108" on="0"/>
        <pt x="169" y="-80" on="0"/>
        <pt x="169" y="-48" on="0"/>
        <pt x="198" y="-21" on="0"/>
        <pt x="238" y="-21" on="0"/>
        <pt x="264" y="-50" on="0"/>
        <pt x="264" y="-108" on="0"/>
        <pt x="202" y="-181" on="0"/>
      </contour>
    </TTGlyph>
    <TTGlyph name="T" xMin="69" yMin="0" xMax="653" yMax="693">
      <contour>
        <pt x="406" y="0" on="1"/>
        <pt x="125" y="0" on="1"/>
        <pt x="125" y="39" on="1"/>
        <pt x="204" y="51" on="0"/>
        <pt x="218" y="70" on="1"/>
        <pt x="224" y="79" on="0"/>
        <pt x="228" y="101" on="1"/>
        <pt x="323" y="641" on="1"/>
        <pt x="193" y="639" on="0"/>
        <pt x="174" y="631" on="0"/>
        <pt x="168" y="626" on="1"/>
        <pt x="155" y="612" on="0"/>
        <pt x="119" y="513" on="1"/>
        <pt x="69" y="517" on="1"/>
        <pt x="81" y="604" on="0"/>
        <pt x="108" y="693" on="1"/>
        <pt x="653" y="693" on="1"/>
        <pt x="647" y="586" on="0"/>
        <pt x="630" y="517" on="1"/>
        <pt x="578" y="513" on="1"/>
        <pt x="578" y="609" on="0"/>
        <pt x="569" y="626" on="1"/>
        <pt x="566" y="631" on="0"/>
        <pt x="548" y="639" on="0"/>
        <pt x="420" y="641" on="1"/>
        <pt x="324" y="95" on="1"/>
        <pt x="322" y="85" on="0"/>
        <pt x="322" y="77" on="1"/>
        <pt x="322" y="52" on="0"/>
        <pt x="345" y="50" on="1"/>
        <pt x="411" y="39" on="1"/>
      </contour>
    </TTGlyph>
    <TTGlyph name="Tbar" xMin="69" yMin="0" xMax="653" yMax="864">
      <contour>
        <pt x="524" y="804" on="1"/>
        <pt x="275" y="804" on="1"/>
        <pt x="286" y="864" on="1"/>
        <pt x="535" y="864" on="1"/>
      </contour>
      <contour>
        <pt x="406" y="0" on="1"/>
        <pt x="125" y="0" on="1"/>
        <pt x="125" y="39" on="1"/>
        <pt x="204" y="51" on="0"/>
        <pt x="218" y="70" on="1"/>
        <pt x="224" y="79" on="0"/>
        <pt x="228" y="101" on="1"/>
        <pt x="323" y="641" on="1"/>
        <pt x="193" y="639" on="0"/>
        <pt x="174" y="631" on="0"/>
        <pt x="168" y="626" on="1"/>
        <pt x="155" y="612" on="0"/>
        <pt x="119" y="513" on="1"/>
        <pt x="69" y="517" on="1"/>
        <pt x="81" y="604" on="0"/>
        <pt x="108" y="693" on="1"/>
        <pt x="653" y="693" on="1"/>
        <pt x="647" y="586" on="0"/>
        <pt x="630" y="517" on="1"/>
        <pt x="578" y="513" on="1"/>
        <pt x="578" y="609" on="0"/>
        <pt x="569" y="626" on="1"/>
        <pt x="566" y="631" on="0"/>
        <pt x="548" y="639" on="0"/>
        <pt x="420" y="641" on="1"/>
        <pt x="324" y="95" on="1"/>
        <pt x="322" y="85" on="0"/>
        <pt x="322" y="77" on="1"/>
        <pt x="322" y="52" on="0"/>
        <pt x="345" y="50" on="1"/>
        <pt x="411" y="39" on="1"/>
      </contour>
    </TTGlyph>
    <TTGlyph name="Tcaron" xMin="69" yMin="0" xMax="653" yMax="917">
      <contour>
        <pt x="568" y="891" on="1"/>
        <pt x="411" y="752" on="1"/>
        <pt x="355" y="752" on="1"/>
        <pt x="240" y="891" on="1"/>
        <pt x="270" y="917" on="1"/>
        <pt x="392" y="826" on="1"/>
        <pt x="548" y="917" on="1"/>
      </contour>
      <contour>
        <pt x="406" y="0" on="1"/>
        <pt x="125" y="0" on="1"/>
        <pt x="125" y="39" on="1"/>
        <pt x="204" y="51" on="0"/>
        <pt x="218" y="70" on="1"/>
        <pt x="224" y="79" on="0"/>
        <pt x="228" y="101" on="1"/>
        <pt x="323" y="641" on="1"/>
        <pt x="193" y="639" on="0"/>
        <pt x="174" y="631" on="0"/>
        <pt x="168" y="626" on="1"/>
        <pt x="155" y="612" on="0"/>
        <pt x="119" y="513" on="1"/>
        <pt x="69" y="517" on="1"/>
        <pt x="81" y="604" on="0"/>
        <pt x="108" y="693" on="1"/>
        <pt x="653" y="693" on="1"/>
        <pt x="647" y="586" on="0"/>
        <pt x="630" y="517" on="1"/>
        <pt x="578" y="513" on="1"/>
        <pt x="578" y="609" on="0"/>
        <pt x="569" y="626" on="1"/>
        <pt x="566" y="631" on="0"/>
        <pt x="548" y="639" on="0"/>
        <pt x="420" y="641" on="1"/>
        <pt x="324" y="95" on="1"/>
        <pt x="322" y="85" on="0"/>
        <pt x="322" y="77" on="1"/>
        <pt x="322" y="52" on="0"/>
        <pt x="345" y="50" on="1"/>
        <pt x="411" y="39" on="1"/>
      </contour>
    </TTGlyph>
    <TTGlyph name="Tcedilla" xMin="69" yMin="-217" xMax="653" yMax="693">
      <contour>
        <pt x="406" y="0" on="1"/>
        <pt x="279" y="0" on="1"/>
        <pt x="257" y="-47" on="1"/>
        <pt x="267" y="-45" on="0"/>
        <pt x="320" y="-45" on="0"/>
        <pt x="359" y="-74" on="0"/>
        <pt x="359" y="-99" on="1"/>
        <pt x="359" y="-144" on="0"/>
        <pt x="253" y="-213" on="0"/>
        <pt x="165" y="-217" on="1"/>
        <pt x="167" y="-186" on="1"/>
        <pt x="215" y="-180" on="0"/>
        <pt x="273" y="-146" on="0"/>
        <pt x="273" y="-122" on="1"/>
        <pt x="273" y="-90" on="0"/>
        <pt x="233" y="-90" on="1"/>
        <pt x="212" y="-90" on="0"/>
        <pt x="190" y="-100" on="1"/>
        <pt x="184" y="-89" on="1"/>
        <pt x="226" y="0" on="1"/>
        <pt x="125" y="0" on="1"/>
        <pt x="125" y="39" on="1"/>
        <pt x="204" y="51" on="0"/>
        <pt x="218" y="70" on="1"/>
        <pt x="224" y="79" on="0"/>
        <pt x="228" y="101" on="1"/>
        <pt x="323" y="641" on="1"/>
        <pt x="193" y="639" on="0"/>
        <pt x="174" y="631" on="0"/>
        <pt x="168" y="626" on="1"/>
        <pt x="155" y="612" on="0"/>
        <pt x="119" y="513" on="1"/>
        <pt x="69" y="517" on="1"/>
        <pt x="81" y="604" on="0"/>
        <pt x="108" y="693" on="1"/>
        <pt x="653" y="693" on="1"/>
        <pt x="647" y="586" on="0"/>
        <pt x="630" y="517" on="1"/>
        <pt x="578" y="513" on="1"/>
        <pt x="578" y="609" on="0"/>
        <pt x="569" y="626" on="1"/>
        <pt x="566" y="631" on="0"/>
        <pt x="548" y="639" on="0"/>
        <pt x="420" y="641" on="1"/>
        <pt x="324" y="95" on="1"/>
        <pt x="322" y="85" on="0"/>
        <pt x="322" y="77" on="1"/>
        <pt x="322" y="52" on="0"/>
        <pt x="345" y="50" on="1"/>
        <pt x="411" y="39" on="1"/>
      </contour>
    </TTGlyph>
    <TTGlyph name="Tcommaaccent" xMin="69" yMin="-210" xMax="653" yMax="693">
      <contour>
        <pt x="406" y="0" on="1"/>
        <pt x="125" y="0" on="1"/>
        <pt x="125" y="39" on="1"/>
        <pt x="204" y="51" on="0"/>
        <pt x="218" y="70" on="1"/>
        <pt x="224" y="79" on="0"/>
        <pt x="228" y="101" on="1"/>
        <pt x="323" y="641" on="1"/>
        <pt x="193" y="639" on="0"/>
        <pt x="174" y="631" on="0"/>
        <pt x="168" y="626" on="1"/>
        <pt x="155" y="612" on="0"/>
        <pt x="119" y="513" on="1"/>
        <pt x="69" y="517" on="1"/>
        <pt x="81" y="604" on="0"/>
        <pt x="108" y="693" on="1"/>
        <pt x="653" y="693" on="1"/>
        <pt x="647" y="586" on="0"/>
        <pt x="630" y="517" on="1"/>
        <pt x="578" y="513" on="1"/>
        <pt x="578" y="609" on="0"/>
        <pt x="569" y="626" on="1"/>
        <pt x="566" y="631" on="0"/>
        <pt x="548" y="639" on="0"/>
        <pt x="420" y="641" on="1"/>
        <pt x="324" y="95" on="1"/>
        <pt x="322" y="85" on="0"/>
        <pt x="322" y="77" on="1"/>
        <pt x="322" y="52" on="0"/>
        <pt x="345" y="50" on="1"/>
        <pt x="411" y="39" on="1"/>
      </contour>
      <contour>
        <pt x="178" y="-210" on="1"/>
        <pt x="157" y="-185" on="1"/>
        <pt x="214" y="-149" on="0"/>
        <pt x="214" y="-117" on="1"/>
        <pt x="214" y="-108" on="0"/>
        <pt x="201" y="-80" on="0"/>
        <pt x="201" y="-48" on="0"/>
        <pt x="230" y="-21" on="0"/>
        <pt x="270" y="-21" on="0"/>
        <pt x="296" y="-50" on="0"/>
        <pt x="296" y="-108" on="0"/>
        <pt x="234" y="-181" on="0"/>
      </contour>
    </TTGlyph>
    <TTGlyph name="Thorn" xMin="22" yMin="0" xMax="549" yMax="693">
      <contour>
        <pt x="195" y="592" on="1"/>
        <pt x="198" y="615" on="1"/>
        <pt x="198" y="631" on="0"/>
        <pt x="171" y="647" on="0"/>
        <pt x="130" y="654" on="1"/>
        <pt x="136" y="693" on="1"/>
        <pt x="388" y="693" on="1"/>
        <pt x="385" y="654" on="1"/>
        <pt x="321" y="642" on="1"/>
        <pt x="300" y="638" on="0"/>
        <pt x="296" y="616" on="1"/>
        <pt x="285" y="557" on="1"/>
        <pt x="376" y="557" on="1"/>
        <pt x="461" y="557" on="0"/>
        <pt x="549" y="479" on="0"/>
        <pt x="549" y="414" on="1"/>
        <pt x="549" y="311" on="0"/>
        <pt x="396" y="162" on="0"/>
        <pt x="260" y="162" on="1"/>
        <pt x="215" y="162" on="1"/>
        <pt x="205" y="102" on="1"/>
        <pt x="202" y="86" on="0"/>
        <pt x="202" y="76" on="1"/>
        <pt x="202" y="53" on="0"/>
        <pt x="229" y="48" on="1"/>
        <pt x="276" y="39" on="1"/>
        <pt x="271" y="0" on="1"/>
        <pt x="22" y="0" on="1"/>
        <pt x="22" y="39" on="1"/>
        <pt x="76" y="48" on="0"/>
        <pt x="102" y="70" on="0"/>
        <pt x="108" y="101" on="1"/>
      </contour>
      <contour>
        <pt x="225" y="215" on="1"/>
        <pt x="262" y="215" on="1"/>
        <pt x="328" y="215" on="0"/>
        <pt x="378" y="250" on="1"/>
        <pt x="406" y="269" on="0"/>
        <pt x="439" y="347" on="0"/>
        <pt x="439" y="458" on="0"/>
        <pt x="380" y="504" on="0"/>
        <pt x="342" y="504" on="1"/>
        <pt x="296" y="504" on="1"/>
        <pt x="276" y="504" on="0"/>
        <pt x="272" y="480" on="1"/>
      </contour>
    </TTGlyph>
    <TTGlyph name="U" xMin="127" yMin="-9" xMax="769" yMax="693">
      <contour>
        <pt x="227" y="196" on="1"/>
        <pt x="227" y="64" on="0"/>
        <pt x="368" y="64" on="1"/>
        <pt x="443" y="64" on="0"/>
        <pt x="533" y="172" on="0"/>
        <pt x="546" y="249" on="1"/>
        <pt x="603" y="573" on="1"/>
        <pt x="606" y="591" on="0"/>
        <pt x="606" y="628" on="0"/>
        <pt x="572" y="648" on="0"/>
        <pt x="521" y="654" on="1"/>
        <pt x="527" y="693" on="1"/>
        <pt x="769" y="693" on="1"/>
        <pt x="766" y="654" on="1"/>
        <pt x="702" y="642" on="1"/>
        <pt x="684" y="638" on="0"/>
        <pt x="680" y="628" on="1"/>
        <pt x="679" y="624" on="0"/>
        <pt x="678" y="616" on="1"/>
        <pt x="614" y="257" on="1"/>
        <pt x="566" y="-9" on="0"/>
        <pt x="328" y="-9" on="1"/>
        <pt x="228" y="-9" on="0"/>
        <pt x="127" y="87" on="0"/>
        <pt x="127" y="175" on="1"/>
        <pt x="127" y="210" on="0"/>
        <pt x="134" y="249" on="1"/>
        <pt x="194" y="592" on="1"/>
        <pt x="197" y="606" on="0"/>
        <pt x="197" y="632" on="0"/>
        <pt x="170" y="646" on="0"/>
        <pt x="129" y="654" on="1"/>
        <pt x="135" y="693" on="1"/>
        <pt x="387" y="693" on="1"/>
        <pt x="384" y="654" on="1"/>
        <pt x="320" y="642" on="1"/>
        <pt x="303" y="638" on="0"/>
        <pt x="298" y="628" on="1"/>
        <pt x="297" y="624" on="0"/>
        <pt x="296" y="616" on="1"/>
        <pt x="234" y="264" on="1"/>
        <pt x="227" y="220" on="0"/>
      </contour>
    </TTGlyph>
    <TTGlyph name="Uacute" xMin="127" yMin="-9" xMax="769" yMax="914">
      <contour>
        <pt x="638" y="842" on="1"/>
        <pt x="420" y="749" on="1"/>
        <pt x="396" y="785" on="1"/>
        <pt x="594" y="914" on="1"/>
        <pt x="650" y="863" on="1"/>
      </contour>
      <contour>
        <pt x="227" y="196" on="1"/>
        <pt x="227" y="64" on="0"/>
        <pt x="368" y="64" on="1"/>
        <pt x="443" y="64" on="0"/>
        <pt x="533" y="172" on="0"/>
        <pt x="546" y="249" on="1"/>
        <pt x="603" y="573" on="1"/>
        <pt x="606" y="591" on="0"/>
        <pt x="606" y="628" on="0"/>
        <pt x="572" y="648" on="0"/>
        <pt x="521" y="654" on="1"/>
        <pt x="527" y="693" on="1"/>
        <pt x="769" y="693" on="1"/>
        <pt x="766" y="654" on="1"/>
        <pt x="702" y="642" on="1"/>
        <pt x="684" y="638" on="0"/>
        <pt x="680" y="628" on="1"/>
        <pt x="679" y="624" on="0"/>
        <pt x="678" y="616" on="1"/>
        <pt x="614" y="257" on="1"/>
        <pt x="566" y="-9" on="0"/>
        <pt x="328" y="-9" on="1"/>
        <pt x="228" y="-9" on="0"/>
        <pt x="127" y="87" on="0"/>
        <pt x="127" y="175" on="1"/>
        <pt x="127" y="210" on="0"/>
        <pt x="134" y="249" on="1"/>
        <pt x="194" y="592" on="1"/>
        <pt x="197" y="606" on="0"/>
        <pt x="197" y="632" on="0"/>
        <pt x="170" y="646" on="0"/>
        <pt x="129" y="654" on="1"/>
        <pt x="135" y="693" on="1"/>
        <pt x="387" y="693" on="1"/>
        <pt x="384" y="654" on="1"/>
        <pt x="320" y="642" on="1"/>
        <pt x="303" y="638" on="0"/>
        <pt x="298" y="628" on="1"/>
        <pt x="297" y="624" on="0"/>
        <pt x="296" y="616" on="1"/>
        <pt x="234" y="264" on="1"/>
        <pt x="227" y="220" on="0"/>
      </contour>
    </TTGlyph>
    <TTGlyph name="Ucircumflex" xMin="127" yMin="-9" xMax="769" yMax="914">
      <contour>
        <pt x="648" y="775" on="1"/>
        <pt x="618" y="749" on="1"/>
        <pt x="496" y="840" on="1"/>
        <pt x="340" y="749" on="1"/>
        <pt x="320" y="775" on="1"/>
        <pt x="476" y="914" on="1"/>
        <pt x="532" y="914" on="1"/>
      </contour>
      <contour>
        <pt x="227" y="196" on="1"/>
        <pt x="227" y="64" on="0"/>
        <pt x="368" y="64" on="1"/>
        <pt x="443" y="64" on="0"/>
        <pt x="533" y="172" on="0"/>
        <pt x="546" y="249" on="1"/>
        <pt x="603" y="573" on="1"/>
        <pt x="606" y="591" on="0"/>
        <pt x="606" y="628" on="0"/>
        <pt x="572" y="648" on="0"/>
        <pt x="521" y="654" on="1"/>
        <pt x="527" y="693" on="1"/>
        <pt x="769" y="693" on="1"/>
        <pt x="766" y="654" on="1"/>
        <pt x="702" y="642" on="1"/>
        <pt x="684" y="638" on="0"/>
        <pt x="680" y="628" on="1"/>
        <pt x="679" y="624" on="0"/>
        <pt x="678" y="616" on="1"/>
        <pt x="614" y="257" on="1"/>
        <pt x="566" y="-9" on="0"/>
        <pt x="328" y="-9" on="1"/>
        <pt x="228" y="-9" on="0"/>
        <pt x="127" y="87" on="0"/>
        <pt x="127" y="175" on="1"/>
        <pt x="127" y="210" on="0"/>
        <pt x="134" y="249" on="1"/>
        <pt x="194" y="592" on="1"/>
        <pt x="197" y="606" on="0"/>
        <pt x="197" y="632" on="0"/>
        <pt x="170" y="646" on="0"/>
        <pt x="129" y="654" on="1"/>
        <pt x="135" y="693" on="1"/>
        <pt x="387" y="693" on="1"/>
        <pt x="384" y="654" on="1"/>
        <pt x="320" y="642" on="1"/>
        <pt x="303" y="638" on="0"/>
        <pt x="298" y="628" on="1"/>
        <pt x="297" y="624" on="0"/>
        <pt x="296" y="616" on="1"/>
        <pt x="234" y="264" on="1"/>
        <pt x="227" y="220" on="0"/>
      </contour>
    </TTGlyph>
    <TTGlyph name="Udieresis" xMin="127" yMin="-9" xMax="769" yMax="885">
      <contour>
        <pt x="574" y="775" on="1"/>
        <pt x="527" y="775" on="0"/>
        <pt x="527" y="821" on="1"/>
        <pt x="527" y="847" on="0"/>
        <pt x="563" y="885" on="0"/>
        <pt x="588" y="885" on="1"/>
        <pt x="635" y="885" on="0"/>
        <pt x="635" y="840" on="1"/>
        <pt x="635" y="814" on="0"/>
        <pt x="599" y="775" on="0"/>
      </contour>
      <contour>
        <pt x="381" y="775" on="1"/>
        <pt x="334" y="775" on="0"/>
        <pt x="334" y="821" on="1"/>
        <pt x="334" y="847" on="0"/>
        <pt x="370" y="885" on="0"/>
        <pt x="395" y="885" on="1"/>
        <pt x="442" y="885" on="0"/>
        <pt x="442" y="840" on="1"/>
        <pt x="442" y="814" on="0"/>
        <pt x="406" y="775" on="0"/>
      </contour>
      <contour>
        <pt x="227" y="196" on="1"/>
        <pt x="227" y="64" on="0"/>
        <pt x="368" y="64" on="1"/>
        <pt x="443" y="64" on="0"/>
        <pt x="533" y="172" on="0"/>
        <pt x="546" y="249" on="1"/>
        <pt x="603" y="573" on="1"/>
        <pt x="606" y="591" on="0"/>
        <pt x="606" y="628" on="0"/>
        <pt x="572" y="648" on="0"/>
        <pt x="521" y="654" on="1"/>
        <pt x="527" y="693" on="1"/>
        <pt x="769" y="693" on="1"/>
        <pt x="766" y="654" on="1"/>
        <pt x="702" y="642" on="1"/>
        <pt x="684" y="638" on="0"/>
        <pt x="680" y="628" on="1"/>
        <pt x="679" y="624" on="0"/>
        <pt x="678" y="616" on="1"/>
        <pt x="614" y="257" on="1"/>
        <pt x="566" y="-9" on="0"/>
        <pt x="328" y="-9" on="1"/>
        <pt x="228" y="-9" on="0"/>
        <pt x="127" y="87" on="0"/>
        <pt x="127" y="175" on="1"/>
        <pt x="127" y="210" on="0"/>
        <pt x="134" y="249" on="1"/>
        <pt x="194" y="592" on="1"/>
        <pt x="197" y="606" on="0"/>
        <pt x="197" y="632" on="0"/>
        <pt x="170" y="646" on="0"/>
        <pt x="129" y="654" on="1"/>
        <pt x="135" y="693" on="1"/>
        <pt x="387" y="693" on="1"/>
        <pt x="384" y="654" on="1"/>
        <pt x="320" y="642" on="1"/>
        <pt x="303" y="638" on="0"/>
        <pt x="298" y="628" on="1"/>
        <pt x="297" y="624" on="0"/>
        <pt x="296" y="616" on="1"/>
        <pt x="234" y="264" on="1"/>
        <pt x="227" y="220" on="0"/>
      </contour>
    </TTGlyph>
    <TTGlyph name="Ugrave" xMin="127" yMin="-9" xMax="769" yMax="914">
      <contour>
        <pt x="513" y="749" on="1"/>
        <pt x="329" y="842" on="1"/>
        <pt x="325" y="863" on="1"/>
        <pt x="389" y="914" on="1"/>
        <pt x="539" y="785" on="1"/>
      </contour>
      <contour>
        <pt x="227" y="196" on="1"/>
        <pt x="227" y="64" on="0"/>
        <pt x="368" y="64" on="1"/>
        <pt x="443" y="64" on="0"/>
        <pt x="533" y="172" on="0"/>
        <pt x="546" y="249" on="1"/>
        <pt x="603" y="573" on="1"/>
        <pt x="606" y="591" on="0"/>
        <pt x="606" y="628" on="0"/>
        <pt x="572" y="648" on="0"/>
        <pt x="521" y="654" on="1"/>
        <pt x="527" y="693" on="1"/>
        <pt x="769" y="693" on="1"/>
        <pt x="766" y="654" on="1"/>
        <pt x="702" y="642" on="1"/>
        <pt x="684" y="638" on="0"/>
        <pt x="680" y="628" on="1"/>
        <pt x="679" y="624" on="0"/>
        <pt x="678" y="616" on="1"/>
        <pt x="614" y="257" on="1"/>
        <pt x="566" y="-9" on="0"/>
        <pt x="328" y="-9" on="1"/>
        <pt x="228" y="-9" on="0"/>
        <pt x="127" y="87" on="0"/>
        <pt x="127" y="175" on="1"/>
        <pt x="127" y="210" on="0"/>
        <pt x="134" y="249" on="1"/>
        <pt x="194" y="592" on="1"/>
        <pt x="197" y="606" on="0"/>
        <pt x="197" y="632" on="0"/>
        <pt x="170" y="646" on="0"/>
        <pt x="129" y="654" on="1"/>
        <pt x="135" y="693" on="1"/>
        <pt x="387" y="693" on="1"/>
        <pt x="384" y="654" on="1"/>
        <pt x="320" y="642" on="1"/>
        <pt x="303" y="638" on="0"/>
        <pt x="298" y="628" on="1"/>
        <pt x="297" y="624" on="0"/>
        <pt x="296" y="616" on="1"/>
        <pt x="234" y="264" on="1"/>
        <pt x="227" y="220" on="0"/>
      </contour>
    </TTGlyph>
    <TTGlyph name="Uhungarumlaut" xMin="127" yMin="-9" xMax="769" yMax="915">
      <contour>
        <pt x="765" y="862" on="1"/>
        <pt x="567" y="751" on="1"/>
        <pt x="537" y="776" on="1"/>
        <pt x="680" y="915" on="1"/>
        <pt x="769" y="885" on="1"/>
      </contour>
      <contour>
        <pt x="567" y="862" on="1"/>
        <pt x="369" y="751" on="1"/>
        <pt x="339" y="776" on="1"/>
        <pt x="482" y="915" on="1"/>
        <pt x="571" y="885" on="1"/>
      </contour>
      <contour>
        <pt x="227" y="196" on="1"/>
        <pt x="227" y="64" on="0"/>
        <pt x="368" y="64" on="1"/>
        <pt x="443" y="64" on="0"/>
        <pt x="533" y="172" on="0"/>
        <pt x="546" y="249" on="1"/>
        <pt x="603" y="573" on="1"/>
        <pt x="606" y="591" on="0"/>
        <pt x="606" y="628" on="0"/>
        <pt x="572" y="648" on="0"/>
        <pt x="521" y="654" on="1"/>
        <pt x="527" y="693" on="1"/>
        <pt x="769" y="693" on="1"/>
        <pt x="766" y="654" on="1"/>
        <pt x="702" y="642" on="1"/>
        <pt x="684" y="638" on="0"/>
        <pt x="680" y="628" on="1"/>
        <pt x="679" y="624" on="0"/>
        <pt x="678" y="616" on="1"/>
        <pt x="614" y="257" on="1"/>
        <pt x="566" y="-9" on="0"/>
        <pt x="328" y="-9" on="1"/>
        <pt x="228" y="-9" on="0"/>
        <pt x="127" y="87" on="0"/>
        <pt x="127" y="175" on="1"/>
        <pt x="127" y="210" on="0"/>
        <pt x="134" y="249" on="1"/>
        <pt x="194" y="592" on="1"/>
        <pt x="197" y="606" on="0"/>
        <pt x="197" y="632" on="0"/>
        <pt x="170" y="646" on="0"/>
        <pt x="129" y="654" on="1"/>
        <pt x="135" y="693" on="1"/>
        <pt x="387" y="693" on="1"/>
        <pt x="384" y="654" on="1"/>
        <pt x="320" y="642" on="1"/>
        <pt x="303" y="638" on="0"/>
        <pt x="298" y="628" on="1"/>
        <pt x="297" y="624" on="0"/>
        <pt x="296" y="616" on="1"/>
        <pt x="234" y="264" on="1"/>
        <pt x="227" y="220" on="0"/>
      </contour>
    </TTGlyph>
    <TTGlyph name="Umacron" xMin="127" yMin="-9" xMax="769" yMax="864">
      <contour>
        <pt x="605" y="804" on="1"/>
        <pt x="356" y="804" on="1"/>
        <pt x="367" y="864" on="1"/>
        <pt x="616" y="864" on="1"/>
      </contour>
      <contour>
        <pt x="227" y="196" on="1"/>
        <pt x="227" y="64" on="0"/>
        <pt x="368" y="64" on="1"/>
        <pt x="443" y="64" on="0"/>
        <pt x="533" y="172" on="0"/>
        <pt x="546" y="249" on="1"/>
        <pt x="603" y="573" on="1"/>
        <pt x="606" y="591" on="0"/>
        <pt x="606" y="628" on="0"/>
        <pt x="572" y="648" on="0"/>
        <pt x="521" y="654" on="1"/>
        <pt x="527" y="693" on="1"/>
        <pt x="769" y="693" on="1"/>
        <pt x="766" y="654" on="1"/>
        <pt x="702" y="642" on="1"/>
        <pt x="684" y="638" on="0"/>
        <pt x="680" y="628" on="1"/>
        <pt x="679" y="624" on="0"/>
        <pt x="678" y="616" on="1"/>
        <pt x="614" y="257" on="1"/>
        <pt x="566" y="-9" on="0"/>
        <pt x="328" y="-9" on="1"/>
        <pt x="228" y="-9" on="0"/>
        <pt x="127" y="87" on="0"/>
        <pt x="127" y="175" on="1"/>
        <pt x="127" y="210" on="0"/>
        <pt x="134" y="249" on="1"/>
        <pt x="194" y="592" on="1"/>
        <pt x="197" y="606" on="0"/>
        <pt x="197" y="632" on="0"/>
        <pt x="170" y="646" on="0"/>
        <pt x="129" y="654" on="1"/>
        <pt x="135" y="693" on="1"/>
        <pt x="387" y="693" on="1"/>
        <pt x="384" y="654" on="1"/>
        <pt x="320" y="642" on="1"/>
        <pt x="303" y="638" on="0"/>
        <pt x="298" y="628" on="1"/>
        <pt x="297" y="624" on="0"/>
        <pt x="296" y="616" on="1"/>
        <pt x="234" y="264" on="1"/>
        <pt x="227" y="220" on="0"/>
      </contour>
    </TTGlyph>
    <TTGlyph name="Uogonek" xMin="127" yMin="-215" xMax="769" yMax="693">
      <contour>
        <pt x="262" y="-116" on="1"/>
        <pt x="262" y="-159" on="0"/>
        <pt x="314" y="-159" on="1"/>
        <pt x="340" y="-159" on="0"/>
        <pt x="370" y="-149" on="1"/>
        <pt x="379" y="-169" on="1"/>
        <pt x="319" y="-215" on="0"/>
        <pt x="260" y="-215" on="1"/>
        <pt x="225" y="-215" on="0"/>
        <pt x="177" y="-172" on="0"/>
        <pt x="177" y="-103" on="0"/>
        <pt x="233" y="-30" on="0"/>
        <pt x="282" y="-6" on="1"/>
        <pt x="127" y="15" on="0"/>
        <pt x="127" y="175" on="1"/>
        <pt x="127" y="210" on="0"/>
        <pt x="134" y="249" on="1"/>
        <pt x="194" y="592" on="1"/>
        <pt x="197" y="606" on="0"/>
        <pt x="197" y="632" on="0"/>
        <pt x="170" y="646" on="0"/>
        <pt x="129" y="654" on="1"/>
        <pt x="135" y="693" on="1"/>
        <pt x="387" y="693" on="1"/>
        <pt x="384" y="654" on="1"/>
        <pt x="320" y="642" on="1"/>
        <pt x="303" y="638" on="0"/>
        <pt x="298" y="628" on="1"/>
        <pt x="297" y="624" on="0"/>
        <pt x="296" y="616" on="1"/>
        <pt x="234" y="264" on="1"/>
        <pt x="227" y="220" on="0"/>
        <pt x="227" y="196" on="1"/>
        <pt x="227" y="64" on="0"/>
        <pt x="368" y="64" on="1"/>
        <pt x="443" y="64" on="0"/>
        <pt x="533" y="172" on="0"/>
        <pt x="546" y="249" on="1"/>
        <pt x="603" y="573" on="1"/>
        <pt x="606" y="591" on="0"/>
        <pt x="606" y="628" on="0"/>
        <pt x="572" y="648" on="0"/>
        <pt x="521" y="654" on="1"/>
        <pt x="527" y="693" on="1"/>
        <pt x="769" y="693" on="1"/>
        <pt x="766" y="654" on="1"/>
        <pt x="702" y="642" on="1"/>
        <pt x="684" y="638" on="0"/>
        <pt x="680" y="628" on="1"/>
        <pt x="679" y="624" on="0"/>
        <pt x="678" y="616" on="1"/>
        <pt x="614" y="257" on="1"/>
        <pt x="572" y="28" on="0"/>
        <pt x="388" y="-4" on="1"/>
        <pt x="336" y="-13" on="0"/>
        <pt x="262" y="-76" on="0"/>
      </contour>
    </TTGlyph>
    <TTGlyph name="Uring" xMin="127" yMin="-9" xMax="769" yMax="919">
      <contour>
        <pt x="527" y="919" on="0"/>
        <pt x="576" y="876" on="0"/>
        <pt x="576" y="798" on="0"/>
        <pt x="506" y="739" on="0"/>
        <pt x="423" y="739" on="0"/>
        <pt x="375" y="781" on="0"/>
        <pt x="375" y="861" on="0"/>
        <pt x="444" y="919" on="0"/>
      </contour>
      <contour>
        <pt x="424" y="824" on="1"/>
        <pt x="424" y="782" on="0"/>
        <pt x="469" y="782" on="1"/>
        <pt x="491" y="782" on="0"/>
        <pt x="525" y="814" on="0"/>
        <pt x="525" y="834" on="1"/>
        <pt x="525" y="876" on="0"/>
        <pt x="479" y="876" on="1"/>
        <pt x="455" y="876" on="0"/>
        <pt x="424" y="845" on="0"/>
      </contour>
      <contour>
        <pt x="227" y="196" on="1"/>
        <pt x="227" y="64" on="0"/>
        <pt x="368" y="64" on="1"/>
        <pt x="443" y="64" on="0"/>
        <pt x="533" y="172" on="0"/>
        <pt x="546" y="249" on="1"/>
        <pt x="603" y="573" on="1"/>
        <pt x="606" y="591" on="0"/>
        <pt x="606" y="628" on="0"/>
        <pt x="572" y="648" on="0"/>
        <pt x="521" y="654" on="1"/>
        <pt x="527" y="693" on="1"/>
        <pt x="769" y="693" on="1"/>
        <pt x="766" y="654" on="1"/>
        <pt x="702" y="642" on="1"/>
        <pt x="684" y="638" on="0"/>
        <pt x="680" y="628" on="1"/>
        <pt x="679" y="624" on="0"/>
        <pt x="678" y="616" on="1"/>
        <pt x="614" y="257" on="1"/>
        <pt x="566" y="-9" on="0"/>
        <pt x="328" y="-9" on="1"/>
        <pt x="228" y="-9" on="0"/>
        <pt x="127" y="87" on="0"/>
        <pt x="127" y="175" on="1"/>
        <pt x="127" y="210" on="0"/>
        <pt x="134" y="249" on="1"/>
        <pt x="194" y="592" on="1"/>
        <pt x="197" y="606" on="0"/>
        <pt x="197" y="632" on="0"/>
        <pt x="170" y="646" on="0"/>
        <pt x="129" y="654" on="1"/>
        <pt x="135" y="693" on="1"/>
        <pt x="387" y="693" on="1"/>
        <pt x="384" y="654" on="1"/>
        <pt x="320" y="642" on="1"/>
        <pt x="303" y="638" on="0"/>
        <pt x="298" y="628" on="1"/>
        <pt x="297" y="624" on="0"/>
        <pt x="296" y="616" on="1"/>
        <pt x="234" y="264" on="1"/>
        <pt x="227" y="220" on="0"/>
      </contour>
    </TTGlyph>
    <TTGlyph name="Utilde" xMin="127" yMin="-9" xMax="769" yMax="891">
      <contour>
        <pt x="642" y="891" on="1"/>
        <pt x="665" y="879" on="1"/>
        <pt x="600" y="778" on="0"/>
        <pt x="554" y="778" on="1"/>
        <pt x="537" y="778" on="0"/>
        <pt x="409" y="805" on="0"/>
        <pt x="347" y="805" on="0"/>
        <pt x="307" y="771" on="1"/>
        <pt x="287" y="787" on="1"/>
        <pt x="329" y="840" on="0"/>
        <pt x="383" y="883" on="0"/>
        <pt x="429" y="883" on="0"/>
        <pt x="553" y="856" on="0"/>
        <pt x="602" y="856" on="0"/>
      </contour>
      <contour>
        <pt x="227" y="196" on="1"/>
        <pt x="227" y="64" on="0"/>
        <pt x="368" y="64" on="1"/>
        <pt x="443" y="64" on="0"/>
        <pt x="533" y="172" on="0"/>
        <pt x="546" y="249" on="1"/>
        <pt x="603" y="573" on="1"/>
        <pt x="606" y="591" on="0"/>
        <pt x="606" y="628" on="0"/>
        <pt x="572" y="648" on="0"/>
        <pt x="521" y="654" on="1"/>
        <pt x="527" y="693" on="1"/>
        <pt x="769" y="693" on="1"/>
        <pt x="766" y="654" on="1"/>
        <pt x="702" y="642" on="1"/>
        <pt x="684" y="638" on="0"/>
        <pt x="680" y="628" on="1"/>
        <pt x="679" y="624" on="0"/>
        <pt x="678" y="616" on="1"/>
        <pt x="614" y="257" on="1"/>
        <pt x="566" y="-9" on="0"/>
        <pt x="328" y="-9" on="1"/>
        <pt x="228" y="-9" on="0"/>
        <pt x="127" y="87" on="0"/>
        <pt x="127" y="175" on="1"/>
        <pt x="127" y="210" on="0"/>
        <pt x="134" y="249" on="1"/>
        <pt x="194" y="592" on="1"/>
        <pt x="197" y="606" on="0"/>
        <pt x="197" y="632" on="0"/>
        <pt x="170" y="646" on="0"/>
        <pt x="129" y="654" on="1"/>
        <pt x="135" y="693" on="1"/>
        <pt x="387" y="693" on="1"/>
        <pt x="384" y="654" on="1"/>
        <pt x="320" y="642" on="1"/>
        <pt x="303" y="638" on="0"/>
        <pt x="298" y="628" on="1"/>
        <pt x="297" y="624" on="0"/>
        <pt x="296" y="616" on="1"/>
        <pt x="234" y="264" on="1"/>
        <pt x="227" y="220" on="0"/>
      </contour>
    </TTGlyph>
    <TTGlyph name="V" xMin="83" yMin="-9" xMax="717" yMax="693">
      <contour>
        <pt x="342" y="-9" on="1"/>
        <pt x="264" y="-9" on="1"/>
        <pt x="143" y="610" on="1"/>
        <pt x="139" y="631" on="0"/>
        <pt x="119" y="644" on="0"/>
        <pt x="83" y="653" on="1"/>
        <pt x="89" y="693" on="1"/>
        <pt x="327" y="693" on="1"/>
        <pt x="324" y="652" on="1"/>
        <pt x="251" y="633" on="1"/>
        <pt x="243" y="632" on="0"/>
        <pt x="243" y="616" on="0"/>
        <pt x="244" y="611" on="1"/>
        <pt x="324" y="158" on="1"/>
        <pt x="328" y="139" on="0"/>
        <pt x="328" y="124" on="1"/>
        <pt x="338" y="124" on="1"/>
        <pt x="547" y="569" on="1"/>
        <pt x="569" y="616" on="0"/>
        <pt x="569" y="622" on="1"/>
        <pt x="569" y="632" on="0"/>
        <pt x="537" y="645" on="0"/>
        <pt x="501" y="653" on="1"/>
        <pt x="506" y="693" on="1"/>
        <pt x="717" y="693" on="1"/>
        <pt x="714" y="651" on="1"/>
        <pt x="672" y="643" on="0"/>
        <pt x="647" y="623" on="0"/>
        <pt x="633" y="595" on="1"/>
      </contour>
    </TTGlyph>
    <TTGlyph name="W" xMin="86" yMin="-9" xMax="1030" yMax="693">
      <contour>
        <pt x="624" y="162" on="1"/>
        <pt x="627" y="128" on="1"/>
        <pt x="637" y="128" on="1"/>
        <pt x="858" y="569" on="1"/>
        <pt x="879" y="611" on="0"/>
        <pt x="879" y="620" on="1"/>
        <pt x="879" y="641" on="0"/>
        <pt x="808" y="653" on="1"/>
        <pt x="813" y="693" on="1"/>
        <pt x="1030" y="693" on="1"/>
        <pt x="1027" y="651" on="1"/>
        <pt x="984" y="643" on="0"/>
        <pt x="957" y="623" on="0"/>
        <pt x="942" y="595" on="1"/>
        <pt x="636" y="-9" on="1"/>
        <pt x="558" y="-9" on="1"/>
        <pt x="520" y="337" on="1"/>
        <pt x="518" y="353" on="0"/>
        <pt x="518" y="381" on="1"/>
        <pt x="510" y="381" on="1"/>
        <pt x="508" y="370" on="0"/>
        <pt x="499" y="355" on="1"/>
        <pt x="320" y="-9" on="1"/>
        <pt x="239" y="-9" on="1"/>
        <pt x="145" y="610" on="1"/>
        <pt x="142" y="631" on="0"/>
        <pt x="122" y="644" on="0"/>
        <pt x="86" y="653" on="1"/>
        <pt x="92" y="693" on="1"/>
        <pt x="319" y="693" on="1"/>
        <pt x="316" y="652" on="1"/>
        <pt x="256" y="633" on="1"/>
        <pt x="248" y="632" on="0"/>
        <pt x="248" y="625" on="1"/>
        <pt x="305" y="162" on="1"/>
        <pt x="308" y="128" on="1"/>
        <pt x="318" y="128" on="1"/>
        <pt x="500" y="492" on="1"/>
        <pt x="487" y="610" on="1"/>
        <pt x="484" y="630" on="0"/>
        <pt x="475" y="637" on="0"/>
        <pt x="472" y="640" on="0"/>
        <pt x="461" y="645" on="0"/>
        <pt x="456" y="646" on="0"/>
        <pt x="439" y="652" on="0"/>
        <pt x="435" y="653" on="1"/>
        <pt x="441" y="693" on="1"/>
        <pt x="660" y="693" on="1"/>
        <pt x="657" y="652" on="1"/>
        <pt x="582" y="633" on="1"/>
        <pt x="574" y="632" on="0"/>
        <pt x="574" y="625" on="1"/>
      </contour>
    </TTGlyph>
</ttFont>
